<svg width="162" height="97" viewBox="0 0 162 97" fill="none" xmlns="http://www.w3.org/2000/svg">
<g clip-path="url(#clip0_744_11788)">
<path d="M91.1154 96.615C117.403 96.615 138.714 96.0379 138.714 95.326C138.714 94.6142 117.403 94.0371 91.1154 94.0371C64.8273 94.0371 43.5166 94.6142 43.5166 95.326C43.5166 96.0379 64.8273 96.615 91.1154 96.615Z" fill="#779B38"/>
<path d="M39.2062 79.932C40.747 82.381 47.2402 88.4206 57.0351 86.745C57.0351 86.745 58.1907 70.9831 75.1391 72.3826C75.1391 72.3826 85.8695 72.5483 83.7968 88.3653H112.686C112.686 88.3653 111.219 72.8429 129.286 72.3089C130.57 72.2721 131.854 72.5114 132.991 73.1191C135.981 74.6658 141.117 78.8088 138.989 88.3837C138.989 88.3837 162.871 87.5183 161.661 73.9661C160.45 60.4139 143.667 51.7228 143.667 51.7228C143.667 51.7228 133.303 45.7569 126.131 44.56C126.131 44.56 130.203 48.5925 129.891 54.6873C129.891 54.6873 127.103 40.6564 102.103 41.3008C102.103 41.3008 109.054 43.7866 109.128 54.3743C109.128 54.3743 103.735 38.0233 82.6963 42.6634C82.6963 42.6634 87.5203 46.0331 88.254 55.0924C88.254 55.0924 85.6127 47.9481 77.9455 43.1422C77.9455 43.1422 67.2519 44.8178 59.6581 49.8815L10.5185 52.0726L57.7505 55.3134L49.8632 55.5712C49.8632 55.5712 47.3686 57.21 46.9467 58.4989C46.5248 59.7878 0.301758 60.4323 0.301758 60.4323L48.7076 63.4889L42.6546 63.8203C42.6546 63.8203 39.463 66.3246 38.8577 71.1673L4.09865 72.493L51.7891 75.4576L38.3624 75.8627C38.3624 75.8627 37.6838 77.483 39.2245 79.932H39.2062Z" fill="#F9F2E4"/>
<path d="M131.138 75.2365C131.138 75.2365 123.6 72.6955 117.712 79.1586C116.208 81.0367 114.282 84.259 115.291 90.317C115.291 90.317 116.831 96.4303 123.545 96.2277C130.258 96.0252 134.954 89.4148 134.954 89.4148C134.954 89.4148 138.604 84.7562 135.797 78.9376C135.797 78.9376 134.33 75.9362 131.12 75.2365H131.138Z" fill="#F9F2E4"/>
<path d="M76.4046 75.2365C76.4046 75.2365 68.8658 72.6955 62.9779 79.1586C61.4738 81.0367 59.5478 84.259 60.5567 90.317C60.5567 90.317 62.0974 96.4303 68.8108 96.2277C75.5241 96.0252 80.2198 89.4148 80.2198 89.4148C80.2198 89.4148 83.87 84.7562 81.0636 78.9376C81.0636 78.9376 79.5962 75.9362 76.3862 75.2365H76.4046Z" fill="#F9F2E4"/>
<path d="M149.481 48.1143C149.481 48.1143 139.998 5.59789 72.3696 19.4631" stroke="#F9F2E4" stroke-width="0.611486" stroke-miterlimit="10"/>
<path d="M146.455 36.1457C146.455 36.1457 152.966 33.5126 153.443 26.6813C153.92 19.8499 149.224 17.2168 149.224 17.2168C149.224 17.2168 141.979 19.8499 141.979 26.6813C141.979 33.5126 146.455 36.1457 146.455 36.1457Z" fill="#F9F2E4"/>
<path d="M132.184 23.4214C132.184 23.4214 137.632 18.9654 136.036 12.2997C134.44 5.6341 129.194 4.5293 129.194 4.5293C129.194 4.5293 123.068 9.20628 125.104 15.7246C127.14 22.2429 132.184 23.4214 132.184 23.4214Z" fill="#F9F2E4"/>
<path d="M113.493 16.1478C113.493 16.1478 116.666 9.85047 112.521 4.41853C108.376 -1.0134 103.13 0.0913975 103.13 0.0913975C103.13 0.0913975 99.4244 6.86751 103.918 12.0048C108.412 17.1421 113.511 16.1478 113.511 16.1478H113.493Z" fill="#F9F2E4"/>
<path d="M89.1531 14.4726C89.1531 14.4726 90.1619 7.49393 84.5124 3.66395C78.8629 -0.16602 74.2406 2.57757 74.2406 2.57757C74.2406 2.57757 72.8649 10.1823 78.7529 13.6072C84.6408 17.032 89.1531 14.4726 89.1531 14.4726Z" fill="#F9F2E4"/>
<path d="M71.5258 19.3153C71.5258 19.3153 65.9863 14.9697 59.86 17.9895C53.7336 21.0093 53.8253 26.4044 53.8253 26.4044C53.8253 26.4044 59.7132 31.376 65.6195 27.9511C71.5258 24.5262 71.5258 19.3153 71.5258 19.3153Z" fill="#F9F2E4"/>
<path d="M89.2995 18.2109C89.2995 18.2109 82.2927 17.6585 78.8626 23.5876C75.4326 29.4983 78.4774 33.9543 78.4774 33.9543C78.4774 33.9543 86.1262 34.8197 89.1527 28.6881C92.1793 22.5564 89.3178 18.2109 89.3178 18.2109H89.2995Z" fill="#F9F2E4"/>
<path d="M112.136 19.6653C112.136 19.6653 105.826 16.5719 100.452 20.7885C95.0776 25.0236 96.2698 30.2714 96.2698 30.2714C96.2698 30.2714 103.057 33.9172 108.119 29.3323C113.182 24.7474 112.118 19.6653 112.118 19.6653H112.136Z" fill="#F9F2E4"/>
<path d="M130.625 26.3495C130.625 26.3495 125.636 21.3963 119.198 23.6796C112.759 25.9628 112.228 31.3395 112.228 31.3395C112.228 31.3395 117.51 36.9556 123.747 34.2488C129.983 31.5421 130.625 26.3679 130.625 26.3679V26.3495Z" fill="#F9F2E4"/>
<path d="M144.015 38.9075C144.015 38.9075 140.787 32.647 133.964 32.8495C127.14 33.0521 124.994 37.9869 124.994 37.9869C124.994 37.9869 128.296 44.9655 135.083 44.3026C141.869 43.6398 144.034 38.9075 144.034 38.9075H144.015Z" fill="#F9F2E4"/>
<path d="M58.4844 81.4414C58.4844 81.4414 57.2004 84.5717 57.0536 86.7445C57.0536 86.7445 45.3144 89.3224 38.7295 79.0293C38.7295 79.0293 46.9653 81.6624 58.4844 81.4414Z" fill="#779B38"/>
<path d="M67.6001 45.9414C67.6001 45.9414 82.2924 43.2899 87.8686 54.2826C87.8686 54.2826 85.4107 47.3408 77.9453 43.1426C77.9453 43.1426 71.9473 44.1553 67.6184 45.9414H67.6001Z" fill="#779B38"/>
<path d="M82.6777 42.6451C82.6777 42.6451 84.1085 43.621 85.6125 46.1068C85.6125 46.1068 86.6214 41.3377 95.4258 44.1549C95.4258 44.1549 101.809 45.7753 107.77 51.5571C107.77 51.5571 105.074 45.5912 97.5718 42.8292C97.5718 42.8292 91.5188 40.3066 82.6777 42.6266V42.6451Z" fill="#779B38"/>
<path d="M107.238 46.2537C107.238 46.2537 105.716 42.9946 102.084 41.3005C102.084 41.3005 111.384 40.4167 117.638 42.9946C117.638 42.9946 125.379 46.3458 127.782 50.452C127.782 50.452 120.445 45.9775 116.685 45.0016C116.685 45.0016 109.403 42.6815 107.22 46.2721L107.238 46.2537Z" fill="#779B38"/>
<path d="M128.094 47.2672C128.094 47.2672 127.488 46.0335 126.058 44.542C126.058 44.542 127.837 44.5788 133.468 46.77C133.468 46.77 127.47 45.2049 128.112 47.2672H128.094Z" fill="#779B38"/>
<path d="M81.4306 79.748C81.4306 79.748 82.1093 89.3966 71.8925 93.2266C71.8925 93.2266 64.5738 96.2464 60.4468 89.5071C60.4468 89.5071 61.5106 97.0198 69.8932 96.1727C69.8932 96.1727 76.4781 95.8413 80.7886 88.568C80.7886 88.568 83.4116 85.0327 81.4306 79.7665V79.748Z" fill="#779B38"/>
<path d="M136.073 79.748C136.073 79.748 136.751 89.3966 126.535 93.2266C126.535 93.2266 119.216 96.2464 115.089 89.5071C115.089 89.5071 116.153 97.0198 124.535 96.1727C124.535 96.1727 131.12 95.8413 135.431 88.568C135.431 88.568 138.054 85.0327 136.073 79.7665V79.748Z" fill="#779B38"/>
<path d="M133.468 76.2127C128.314 73.8742 122.463 75.292 118.152 78.588C122.096 74.666 128.699 73.2665 133.468 76.2127Z" fill="#779B38"/>
<path d="M63.4365 78.6986C67.16 74.7029 73.5799 73.506 78.4223 76.0102C73.4332 74.1689 67.4902 75.2921 63.4365 78.6986Z" fill="#779B38"/>
<path d="M146.95 53.6934C146.95 53.6934 161.716 62.9831 161.716 74.7398C161.716 74.7398 162.486 87.5739 139.008 88.3657C139.008 88.3657 140.035 84.3884 139.1 80.6505C139.1 80.6505 152.471 79.4168 153.7 71.2229C154.929 63.0289 150.417 56.6211 146.95 53.6934Z" fill="#779B38"/>
<path d="M113.621 81.9951C113.621 81.9951 112.594 84.7571 112.704 88.3661H83.8149C83.8149 88.3661 84.2735 84.1311 83.9433 81.9951H113.64H113.621Z" fill="#779B38"/>
</g>
<defs>
<clipPath id="clip0_744_11788">
<rect width="161.432" height="96.6148" fill="white" transform="translate(0.283203)"/>
</clipPath>
</defs>
</svg>
