<svg width="247" height="204" viewBox="0 0 247 204" fill="none" xmlns="http://www.w3.org/2000/svg">
<path d="M211.827 200.713C211.827 200.713 227.287 170.834 237.771 135.549C251.209 90.3223 254.833 25.039 214.436 5.63225C180.226 -10.8023 140.37 17.1322 140.37 17.1322C140.37 17.1322 95.182 -16.5682 48.1664 10.5625C4.861 35.552 28.8225 91.0181 28.8225 91.0181C28.8225 91.0181 5.25202 102.579 0.787385 131.63C-5.23865 170.84 27.8365 200.565 27.8365 200.565L211.827 200.713Z" fill="#EED6C0"/>
<path d="M12.9029 204H225.476C226.692 204 227.677 203.015 227.677 201.799V201.275C227.677 200.059 226.692 199.074 225.476 199.074H12.9029C11.6873 199.074 10.7021 200.059 10.7021 201.275V201.799C10.7019 203.015 11.6873 204 12.9029 204Z" fill="#281711"/>
<path d="M44.434 199.143H117.743C123.525 199.143 128.212 194.456 128.212 188.674V31.2424C128.212 25.4606 123.525 20.7734 117.743 20.7734H44.434C38.6522 20.7734 33.9653 25.4606 33.9653 31.2424V188.674C33.9653 194.456 38.6522 199.143 44.434 199.143Z" fill="#281711"/>
<path d="M122.956 177.745V32.9644C122.956 29.2281 119.927 26.1992 116.191 26.1992H45.9859C42.2496 26.1992 39.2207 29.2281 39.2207 32.9644V177.745C39.2207 181.481 42.2496 184.51 45.9859 184.51H116.191C119.927 184.51 122.956 181.481 122.956 177.745Z" fill="#F9F2E4"/>
<path d="M103.751 76.0854C103.751 76.0854 91.4219 74.2202 80.704 73.8271C70.009 73.8271 57.6569 76.0854 57.6569 76.0854C57.6569 86.2697 48.167 86.4467 48.167 86.4467C48.167 86.4467 49.8241 112.35 54.6442 125.368C59.4643 138.386 80.704 146.091 80.704 146.091C80.704 146.091 101.944 138.386 106.764 125.368C111.584 112.35 113.241 86.4467 113.241 86.4467C113.241 86.4467 103.751 86.2699 103.751 76.0854Z" fill="#281711"/>
<path d="M80.7041 140.238C73.0782 136.92 63.0246 130.882 60.3721 123.719C56.9728 114.538 55.1965 98.083 54.5166 90.3623C58.752 88.5734 61.9132 85.2063 63.1238 80.6131C67.4411 79.9875 74.3622 79.1515 80.5799 79.1406C86.9242 79.3802 93.9148 80.161 98.3128 80.7199C99.4571 84.9397 102.372 88.4539 106.891 90.3623C106.21 98.0856 104.432 114.548 101.036 123.719C98.3859 130.876 88.3441 136.913 80.7041 140.238Z" fill="#D99D6F"/>
<path d="M89.546 100.884V98.1157C89.546 93.2395 85.5793 89.2725 80.7031 89.2725C75.8272 89.2725 71.8601 93.2395 71.8601 98.1157V100.884C70.3803 101.707 69.3784 103.286 69.3784 105.099V115.372C69.3784 118.034 71.5369 120.193 74.1991 120.193H87.2067C89.869 120.193 92.0274 118.034 92.0274 115.372V105.099C92.0277 103.285 91.0258 101.707 89.546 100.884ZM74.1994 100.278C74.1745 100.278 74.1498 100.28 74.1249 100.28V98.1154C74.1249 94.488 77.0759 91.5369 80.7031 91.5369C84.3302 91.5369 87.2813 94.488 87.2813 98.1154V100.28C87.2563 100.28 87.2317 100.278 87.2067 100.278H74.1994Z" fill="#281711"/>
<path d="M83.0065 107.881C83.0065 106.608 81.975 105.577 80.7027 105.577C79.4305 105.577 78.3989 106.608 78.3989 107.881C78.3989 108.88 79.0356 109.727 79.9239 110.047L78.7615 114.89H82.644L81.4815 110.047C82.3701 109.727 83.0065 108.88 83.0065 107.881Z" fill="#D99D6F"/>
<path d="M162.368 66.5075C161.647 68.5075 161.333 68.3114 161.248 68.57C161.147 68.8762 162.32 73.0279 162.32 73.0279C162.32 73.0279 165.695 85.2852 165.901 85.941L174.414 96.1184L170.443 101.657C170.443 101.657 161.483 90.3454 161.12 89.6744C160.758 89.0033 158.175 71.9221 157.898 70.4252C157.898 70.4252 156.891 68.757 156.295 67.6893C155.698 66.6217 155.62 65.3512 155.499 65.0257C155.481 64.9775 155.144 63.8705 155.102 62.4007C155.065 61.1343 155.695 62.3209 155.695 62.3209C155.695 62.3209 156.195 64.6572 156.377 64.5874C156.517 64.5337 156.167 63.2734 156.112 61.8723C156.097 61.5121 156.905 61.4508 156.913 61.835C156.921 62.2498 157.066 62.6288 157.128 62.9767C157.251 63.6671 157.331 64.172 157.358 64.1515C157.392 64.125 157.516 64.2454 157.513 63.8626C157.509 63.4026 157.28 62.4254 157.328 61.7484C157.356 61.3648 157.363 60.5587 157.363 60.5587C157.363 60.5587 158.18 60.1574 158.073 60.674C158.178 61.0375 158.145 61.8852 158.145 61.8852C158.145 61.8852 158.474 63.6145 158.726 63.5735C158.833 63.5558 158.762 62.4723 158.863 61.3994C158.957 60.4031 159.788 60.4991 159.788 60.4991C159.788 60.4991 159.757 61.282 159.767 61.543C159.779 61.8488 159.886 62.7621 159.886 62.7621C159.886 62.7621 160.32 65.5764 160.555 65.5177C160.789 65.4589 161.332 65.1692 161.37 64.9622C161.407 64.7556 161.014 63.7302 161.051 63.5232C161.088 63.3166 161.406 63.2796 161.67 63.3054C161.935 63.331 162.407 65.0612 162.407 65.0612C162.407 65.0612 162.575 65.9301 162.368 66.5075Z" fill="#F8A492"/>
<path d="M160.527 65.5267C160.527 65.5267 159.937 65.5689 159.383 66.0198C158.83 66.4707 158.737 67.8434 158.737 67.8434C158.737 67.8434 158.46 66.6882 158.635 66.0577C158.81 65.4268 159.906 65.2595 160.527 65.5267Z" fill="#F47458"/>
<path d="M202.341 58.6992C202.341 58.6992 202.812 58.6663 202.852 58.6992C202.996 58.8143 203.504 59.1791 203.504 59.6961C203.504 60.3607 203.695 60.3023 203.695 60.3023L204.102 63.3508L203.738 64.3521C203.738 64.3521 202.999 63.3288 202.739 62.5576C202.245 61.0884 201.927 58.8953 202.341 58.6992Z" fill="#F7A491"/>
<path d="M216.414 54.9248L148.147 61.1018L147.541 53.2451L143.472 53.5592L144.079 61.4156L138.858 61.8183L138.199 53.2803L132.957 53.6846L133.616 62.2225L123.397 63.0107L123.831 68.6419L135.213 67.7642L136.13 79.6575L150.467 78.5517L149.55 66.6584L216.873 60.3526L216.414 54.9248Z" fill="#779B38"/>
<path d="M224.798 38.7314C217.634 38.7314 211.827 46.9212 211.827 57.0238C211.827 67.1264 217.634 75.3166 224.798 75.3166C231.963 75.3166 237.771 67.1264 237.771 57.0238C237.771 46.9212 231.963 38.7314 224.798 38.7314ZM224.798 67.9889C220.504 67.9889 217.023 63.0798 217.023 57.0241C217.023 50.9687 220.504 46.0597 224.798 46.0597C229.093 46.0597 232.574 50.9687 232.574 57.0241C232.574 63.0798 229.093 67.9889 224.798 67.9889Z" fill="#779B38"/>
<path d="M207.197 57.7932C207.197 57.7932 206.765 55.8217 206.599 55.2678C206.433 54.7139 205.514 53.5511 205.369 53.7173C205.225 53.8834 205.27 54.3707 205.425 54.6367C205.58 54.9023 206.056 56.3754 206.056 56.3754L206.166 58.4355C206.166 58.4355 205.942 56.8195 205.759 56.3102C205.598 55.8608 204.866 54.6736 204.833 54.6405C204.808 54.6158 204.28 54.1018 204.009 53.8376C203.883 53.7152 203.668 53.7674 203.621 53.9365C203.607 53.9867 203.601 54.046 203.608 54.1159C203.641 54.459 203.929 54.858 204.128 55.1128C204.328 55.3676 204.752 56.2163 204.87 56.6413C204.997 57.0949 205.125 58.5462 205.025 58.5462C204.926 58.5462 204.775 57.2704 204.613 56.8709C204.467 56.5127 203.973 55.9157 203.707 55.6165C203.442 55.3174 202.666 54.6472 202.334 54.6472C202.001 54.6472 202.843 55.7663 202.91 55.8655C202.976 55.9653 203.674 57.0285 203.674 57.0285C203.674 57.0285 204.04 58.6237 203.84 58.6237C203.641 58.6237 201.888 55.4924 201.78 56.0319C201.68 56.5304 202.767 58.4014 202.876 58.7563C202.956 59.0129 203.306 61.7773 203.507 63.6076C203.571 64.1788 203.944 64.603 203.873 64.9033C203.574 66.1659 199.553 82.9424 199.553 82.9424C199.553 82.9424 196.197 87.8301 195.234 89.0929C194.27 90.3555 191.978 93.8112 191.978 93.8112L197.626 97.1782L205.689 83.976C205.689 83.976 207.395 63.0663 207.428 63.0551L207.197 57.7932Z" fill="#F7A491"/>
<path d="M150.564 170.84C150.047 173.939 150.068 176.996 150.049 177.344C150.034 177.613 150.157 178.839 150.173 179.011C147.429 180.414 145.762 180.541 142.849 181.209C143.578 179.884 145.018 179.981 145.211 179.424C145.443 178.75 145.3 176.124 144.762 171.832C146.786 172.321 148.568 171.352 150.564 170.84Z" fill="#F7A491"/>
<path d="M173.966 179.909C174.904 182.919 176.133 185.139 176.311 185.443C176.397 185.588 177.126 186.08 177.219 186.229C175.39 188.654 174.827 192.504 172.513 194.34C172.569 192.839 173.383 189.967 173.304 189.384C173.208 188.679 171.891 186.374 169.466 182.737C171.504 182.32 172.405 181.215 173.966 179.909Z" fill="#F7A491"/>
<path d="M175.783 186.54C176.004 185.858 176.874 185.333 177.55 185.676C178.231 186.023 179.13 186.39 179.81 186.77C180.574 187.198 180.669 187.736 180.661 187.86C180.637 188.219 173.994 198.595 171.339 199.137C170.252 199.359 172.041 190.632 173.178 189.706C174.189 188.883 174.789 189.61 175.783 186.54Z" fill="#281711"/>
<path d="M149.442 178.301C150.104 177.98 151.104 178.217 151.321 178.922C151.539 179.633 151.894 180.509 152.086 181.242C152.302 182.068 151.968 182.507 151.87 182.587C151.586 182.819 137.969 184.566 137.044 183.969C136.12 183.371 143.778 178.554 145.262 178.697C146.583 178.825 146.461 179.744 149.442 178.301Z" fill="#281711"/>
<path d="M173.099 129.421L187.127 133.784L169.552 147.079L152.487 150.167C152.487 150.167 151.177 165.969 151.071 172.255C149.315 172.976 146.068 173.891 144.246 173.674C142.975 164.946 141.667 146.915 143.224 144.153C144.569 141.765 173.099 129.421 173.099 129.421Z" fill="#9E4E35"/>
<path d="M176.686 131.51C177.414 130.134 177.542 127.354 177.542 127.354L186.517 133.588L189.187 135.147C189.187 135.147 189.734 141.717 186.307 145.648C182.879 149.58 166.733 160.239 166.733 160.239C166.733 160.239 172.457 175.009 175.122 180.543C173.77 182.048 171.478 183.912 169.523 184.603C167.08 180.621 153.874 162.432 154.489 158.397C154.944 155.415 175.958 132.887 176.686 131.51Z" fill="#C25E3E"/>
<path d="M192.775 91.3252C192.775 91.3252 187.594 96.4767 184.653 97.6885C184.009 97.9539 182.343 98.4564 181.809 98.4864C178.838 98.6522 171.177 91.3795 171.177 91.3795C171.177 91.3795 167.024 96.9828 167.059 97.7995C167.089 98.4961 171.818 103.233 172.113 104.986C173.033 110.456 171.528 129.671 171.528 129.671C175.61 132.849 189.487 135.549 189.487 135.549C189.487 135.549 192.485 105.939 192.733 105.726C193.758 104.843 198.653 97.5071 198.842 96.659C199.183 95.132 192.775 91.3252 192.775 91.3252Z" fill="#FF7685"/>
<path d="M180.926 95.9751L180.233 98.8015C180.233 98.8015 180.075 101.262 181.217 101.483C182.595 101.75 184.642 99.6889 184.642 99.6889L185.827 91.7178L180.926 95.9751Z" fill="#F7A491"/>
<path d="M185.815 91.7549L180.926 95.9753L180.408 98.0865C182.277 97.6371 184.942 95.5805 185.815 91.7549Z" fill="#F47458"/>
<path d="M180.909 84.4209C179.727 84.4171 178.663 85.2382 178.247 86.4179C177.902 87.3964 177.461 88.8462 177.18 90.5101C176.662 93.5753 178.408 96.3814 179.927 96.6054C181.446 96.8294 185.064 95.8231 185.864 91.4811C186.207 89.6197 186.658 87.1783 185.127 85.8957C183.937 84.8979 182.268 84.425 180.909 84.4209Z" fill="#F7A491"/>
<path d="M185.371 94.7894C185.371 94.7894 190.725 90.018 190.959 86.2902C191.192 82.5624 187.75 80.5657 184.806 80.4617C183.476 80.4148 182.576 80.4743 181.203 80.6475C178.254 81.0195 176.342 82.3267 177.015 84.7432C177.918 87.9875 184.04 85.2504 185.291 86.2573C186.324 87.0884 184.649 89.0872 185.653 89.8495C186.596 90.5661 186.115 90.3233 185.803 91.686C185.491 93.049 185.371 94.7894 185.371 94.7894Z" fill="#333343"/>
<path d="M187.435 90.4657C187.302 91.359 186.756 92.0183 186.215 91.9384C185.674 91.8589 185.343 91.0701 185.476 90.1768C185.608 89.2836 186.155 88.6242 186.696 88.7038C187.237 88.7836 187.568 89.5724 187.435 90.4657Z" fill="#F7A491"/>
<path d="M161.341 63.1798C161.341 63.1798 162.47 64.6411 162.47 65.6638C162.47 66.6863 161.89 67.6588 161.89 67.6588L159.552 65.8887C159.552 65.8887 160.47 65.3838 160.75 65.1038C161.03 64.8237 160.353 63.8133 160.527 63.3991C160.701 62.9852 161.056 62.7744 161.341 63.1798Z" fill="#F8A492"/>
</svg>
