<?xml version="1.0" encoding="UTF-8"?>
<!DOCTYPE svg PUBLIC "-//W3C//DTD SVG 1.1//EN" "http://www.w3.org/Graphics/SVG/1.1/DTD/svg11.dtd">
<svg xmlns="http://www.w3.org/2000/svg" version="1.1" width="156px" height="125px" style="shape-rendering:geometricPrecision; text-rendering:geometricPrecision; image-rendering:optimizeQuality; fill-rule:evenodd; clip-rule:evenodd" xmlns:xlink="http://www.w3.org/1999/xlink">
<g><path style="opacity:0.974" fill="#dee1d6" d="M -0.5,-0.5 C 4.83333,-0.5 10.1667,-0.5 15.5,-0.5C 15.7633,3.60023 15.4299,7.60023 14.5,11.5C 12.2422,10.5527 11.0755,11.5527 11,14.5C 9.64699,13.3147 8.48032,11.9814 7.5,10.5C 7.16667,10.8333 6.83333,11.1667 6.5,11.5C 7.3898,12.7112 7.3898,14.0445 6.5,15.5C 7.19137,17.8912 8.19137,17.8912 9.5,15.5C 10.4287,16.6888 10.762,18.0222 10.5,19.5C 10.1667,19.5 9.83333,19.5 9.5,19.5C 8.60433,18.4937 7.93767,18.4937 7.5,19.5C 6.18047,18.0582 4.5138,17.3915 2.5,17.5C 2.92016,15.326 2.92016,13.326 2.5,11.5C 2.03582,13.9749 1.03582,15.9749 -0.5,17.5C -0.5,11.5 -0.5,5.5 -0.5,-0.5 Z"/></g>
<g><path style="opacity:1" fill="#dee1d8" d="M 16.5,-0.5 C 18.5,-0.5 20.5,-0.5 22.5,-0.5C 22.5,3.5 22.5,7.5 22.5,11.5C 17.3183,11.5573 17.3183,12.224 22.5,13.5C 20.9547,14.4519 19.288,14.7852 17.5,14.5C 17.5,15.5 17.5,16.5 17.5,17.5C 17.1667,17.5 16.8333,17.5 16.5,17.5C 16.5,11.5 16.5,5.5 16.5,-0.5 Z"/></g>
<g><path style="opacity:1" fill="#dde0d6" d="M 23.5,-0.5 C 40.5,-0.5 57.5,-0.5 74.5,-0.5C 74.5,3.83333 74.5,8.16667 74.5,12.5C 73.1266,12.3433 71.7932,12.51 70.5,13C 72.437,13.1216 73.7703,13.955 74.5,15.5C 72.2188,15.0773 70.5521,15.744 69.5,17.5C 66.8333,17.5 64.1667,17.5 61.5,17.5C 61.0296,16.3065 60.0296,15.6399 58.5,15.5C 56.9704,15.6399 55.9704,16.3065 55.5,17.5C 54.8333,17.5 54.1667,17.5 53.5,17.5C 53.8174,13.8284 52.1507,12.1617 48.5,12.5C 48.5,14.1667 48.5,15.8333 48.5,17.5C 44.4356,18.2093 40.4356,18.2093 36.5,17.5C 35.6236,17.6309 34.9569,17.2975 34.5,16.5C 35.5063,15.6043 35.5063,14.9377 34.5,14.5C 33.7025,14.9569 33.3691,15.6236 33.5,16.5C 33.1667,16.5 32.8333,16.5 32.5,16.5C 32.8072,14.5542 32.8072,12.8875 32.5,11.5C 31.5344,13.396 31.2011,15.396 31.5,17.5C 28.8333,17.5 26.1667,17.5 23.5,17.5C 23.5,11.5 23.5,5.5 23.5,-0.5 Z"/></g>
<g><path style="opacity:1" fill="#f8f1e2" d="M 75.5,-0.5 C 77.5,-0.5 79.5,-0.5 81.5,-0.5C 81.824,6.3543 81.4907,13.021 80.5,19.5C 78.8828,18.962 77.2161,18.6287 75.5,18.5C 75.5,17.5 75.5,16.5 75.5,15.5C 75.5,10.1667 75.5,4.83333 75.5,-0.5 Z"/></g>
<g><path style="opacity:1" fill="#f8f1e3" d="M 83.5,-0.5 C 99.5,-0.5 115.5,-0.5 131.5,-0.5C 131.922,7.37073 131.256,15.0374 129.5,22.5C 131.5,22.5 133.5,22.5 135.5,22.5C 135.97,19.6544 135.137,17.3211 133,15.5C 132.501,10.1771 132.334,4.84372 132.5,-0.5C 136.5,-0.5 140.5,-0.5 144.5,-0.5C 144.987,9.36331 144.321,19.03 142.5,28.5C 144.5,28.5 146.5,28.5 148.5,28.5C 146.717,18.9686 146.05,9.30197 146.5,-0.5C 149.5,-0.5 152.5,-0.5 155.5,-0.5C 155.5,28.8333 155.5,58.1667 155.5,87.5C 153.865,83.427 152.865,79.0937 152.5,74.5C 150.037,72.5389 147.703,70.3722 145.5,68C 139.175,67.5005 132.842,67.3338 126.5,67.5C 126.5,66.1667 126.5,64.8333 126.5,63.5C 126.5,61.8333 126.5,60.1667 126.5,58.5C 127.738,59.4124 129.072,59.5791 130.5,59C 132.07,57.6032 133.404,56.1032 134.5,54.5C 137.167,54.8333 139.833,55.1667 142.5,55.5C 142.762,54.0222 142.429,52.6888 141.5,51.5C 137.23,48.4707 132.563,47.804 127.5,49.5C 129.404,50.7659 130.737,52.4325 131.5,54.5C 129.833,55.1667 128.167,55.8333 126.5,56.5C 126.808,54.076 126.474,51.7427 125.5,49.5C 123.739,48.9649 122.406,47.9649 121.5,46.5C 122.341,44.6208 122.675,42.6208 122.5,40.5C 119.122,39.8911 117.122,41.2244 116.5,44.5C 115.756,46.9859 114.256,48.9859 112,50.5C 111.204,53.0385 111.371,55.3718 112.5,57.5C 112.351,58.552 112.517,59.552 113,60.5C 114.622,61.0989 116.122,61.7656 117.5,62.5C 116.5,62.5 115.5,62.5 114.5,62.5C 114.5,64.1667 114.5,65.8333 114.5,67.5C 110.167,67.5 105.833,67.5 101.5,67.5C 101.5,66.1667 101.5,64.8333 101.5,63.5C 101.489,61.9826 100.823,60.8159 99.5,60C 96.591,60.2839 93.7577,60.1172 91,59.5C 88.4911,60.653 87.9911,62.3197 89.5,64.5C 89.5,65.5 89.5,66.5 89.5,67.5C 87.1667,67.5 84.8333,67.5 82.5,67.5C 82.5,68.8333 82.5,70.1667 82.5,71.5C 80.1667,71.5 77.8333,71.5 75.5,71.5C 75.5,57.5 75.5,43.5 75.5,29.5C 77.8333,29.5 80.1667,29.5 82.5,29.5C 82.5,26.5 82.5,23.5 82.5,20.5C 83.4912,13.6866 83.8245,6.68663 83.5,-0.5 Z"/></g>
<g><path style="opacity:1" fill="#ccc4bb" d="M 81.5,-0.5 C 82.1667,-0.5 82.8333,-0.5 83.5,-0.5C 83.8245,6.68663 83.4912,13.6866 82.5,20.5C 81.8333,20.5 81.1667,20.5 80.5,20.5C 80.5,20.1667 80.5,19.8333 80.5,19.5C 81.4907,13.021 81.824,6.3543 81.5,-0.5 Z"/></g>
<g><path style="opacity:1" fill="#9e9896" d="M 74.5,-0.5 C 74.8333,-0.5 75.1667,-0.5 75.5,-0.5C 75.5,4.83333 75.5,10.1667 75.5,15.5C 75.1667,15.5 74.8333,15.5 74.5,15.5C 73.7703,13.955 72.437,13.1216 70.5,13C 71.7932,12.51 73.1266,12.3433 74.5,12.5C 74.5,8.16667 74.5,3.83333 74.5,-0.5 Z"/></g>
<g><path style="opacity:1" fill="#89af7f" d="M 14.5,11.5 C 14.9382,11.4346 15.2716,11.6012 15.5,12C 13.6992,12.3173 13.3659,12.984 14.5,14C 13.1772,14.8159 12.5106,15.9826 12.5,17.5C 11.375,18.3478 11.375,19.3478 12.5,20.5C 12.0623,21.5063 11.3957,21.5063 10.5,20.5C 10.5,20.1667 10.5,19.8333 10.5,19.5C 10.762,18.0222 10.4287,16.6888 9.5,15.5C 8.19137,17.8912 7.19137,17.8912 6.5,15.5C 7.3898,14.0445 7.3898,12.7112 6.5,11.5C 6.83333,11.1667 7.16667,10.8333 7.5,10.5C 8.48032,11.9814 9.64699,13.3147 11,14.5C 11.0755,11.5527 12.2422,10.5527 14.5,11.5 Z"/></g>
<g><path style="opacity:1" fill="#abb2a5" d="M 15.5,-0.5 C 15.8333,-0.5 16.1667,-0.5 16.5,-0.5C 16.5,5.5 16.5,11.5 16.5,17.5C 15.7784,17.0825 15.2784,16.4158 15,15.5C 14.5357,16.0944 14.369,16.7611 14.5,17.5C 13.8333,17.5 13.1667,17.5 12.5,17.5C 12.5106,15.9826 13.1772,14.8159 14.5,14C 13.3659,12.984 13.6992,12.3173 15.5,12C 15.2716,11.6012 14.9382,11.4346 14.5,11.5C 15.4299,7.60023 15.7633,3.60023 15.5,-0.5 Z"/></g>
<g><path style="opacity:1" fill="#f88a3a" d="M 32.5,16.5 C 32.5,17.1667 32.1667,17.5 31.5,17.5C 31.2011,15.396 31.5344,13.396 32.5,11.5C 32.8072,12.8875 32.8072,14.5542 32.5,16.5 Z"/></g>
<g><path style="opacity:1" fill="#a6b0ac" d="M 53.5,17.5 C 51.8333,18.8333 50.1667,18.8333 48.5,17.5C 48.5,15.8333 48.5,14.1667 48.5,12.5C 52.1507,12.1617 53.8174,13.8284 53.5,17.5 Z"/></g>
<g><path style="opacity:1" fill="#f4cc68" d="M 63.5,13.5 C 64.675,13.281 65.675,13.6143 66.5,14.5C 64.9483,15.7979 63.9483,15.4646 63.5,13.5 Z"/></g>
<g><path style="opacity:1" fill="#aab1ad" d="M 22.5,-0.5 C 22.8333,-0.5 23.1667,-0.5 23.5,-0.5C 23.5,5.5 23.5,11.5 23.5,17.5C 21.3888,18.7416 19.3888,18.7416 17.5,17.5C 17.5,16.5 17.5,15.5 17.5,14.5C 19.288,14.7852 20.9547,14.4519 22.5,13.5C 17.3183,12.224 17.3183,11.5573 22.5,11.5C 22.5,7.5 22.5,3.5 22.5,-0.5 Z"/></g>
<g><path style="opacity:1" fill="#f4d589" d="M 26.5,13.5 C 27.5,13.5 28.5,13.5 29.5,13.5C 29.5,14.5 29.5,15.5 29.5,16.5C 28.5,16.5 27.5,16.5 26.5,16.5C 26.5,15.5 26.5,14.5 26.5,13.5 Z"/></g>
<g><path style="opacity:1" fill="#f5c54b" d="M 61.5,17.5 C 61.0296,18.6935 60.0296,19.3601 58.5,19.5C 56.9704,19.3601 55.9704,18.6935 55.5,17.5C 55.9704,16.3065 56.9704,15.6399 58.5,15.5C 60.0296,15.6399 61.0296,16.3065 61.5,17.5 Z"/></g>
<g><path style="opacity:1" fill="#f78532" d="M 74.5,15.5 C 74.5,16.8333 74.5,18.1667 74.5,19.5C 72.2188,19.9227 70.5521,19.256 69.5,17.5C 70.5521,15.744 72.2188,15.0773 74.5,15.5 Z"/></g>
<g><path style="opacity:1" fill="#d6d4cb" d="M 131.5,-0.5 C 131.833,-0.5 132.167,-0.5 132.5,-0.5C 132.334,4.84372 132.501,10.1771 133,15.5C 135.137,17.3211 135.97,19.6544 135.5,22.5C 133.5,22.5 131.5,22.5 129.5,22.5C 131.256,15.0374 131.922,7.37073 131.5,-0.5 Z"/></g>
<g><path style="opacity:0.958" fill="#dc9868" d="M 7.5,19.5 C 7.5,19.8333 7.5,20.1667 7.5,20.5C 4.83333,20.5 2.16667,20.5 -0.5,20.5C -0.5,19.5 -0.5,18.5 -0.5,17.5C 1.03582,15.9749 2.03582,13.9749 2.5,11.5C 2.92016,13.326 2.92016,15.326 2.5,17.5C 4.5138,17.3915 6.18047,18.0582 7.5,19.5 Z"/></g>
<g><path style="opacity:1" fill="#d29e74" d="M 12.5,17.5 C 13.1667,17.5 13.8333,17.5 14.5,17.5C 14.7148,19.1788 14.0481,20.1788 12.5,20.5C 11.375,19.3478 11.375,18.3478 12.5,17.5 Z"/></g>
<g><path style="opacity:1" fill="#8f9c66" d="M 36.5,17.5 C 36.1788,19.0481 35.1788,19.7148 33.5,19.5C 33.5,18.5 33.5,17.5 33.5,16.5C 33.3691,15.6236 33.7025,14.9569 34.5,14.5C 35.5063,14.9377 35.5063,15.6043 34.5,16.5C 34.9569,17.2975 35.6236,17.6309 36.5,17.5 Z"/></g>
<g><path style="opacity:1" fill="#cf976d" d="M 74.5,15.5 C 74.8333,15.5 75.1667,15.5 75.5,15.5C 75.5,16.5 75.5,17.5 75.5,18.5C 77.2161,18.6287 78.8828,18.962 80.5,19.5C 80.5,19.8333 80.5,20.1667 80.5,20.5C 59.1667,20.5 37.8333,20.5 16.5,20.5C 16.5,19.5 16.5,18.5 16.5,17.5C 16.8333,17.5 17.1667,17.5 17.5,17.5C 19.3888,18.7416 21.3888,18.7416 23.5,17.5C 26.1667,17.5 28.8333,17.5 31.5,17.5C 32.1667,17.5 32.5,17.1667 32.5,16.5C 32.8333,16.5 33.1667,16.5 33.5,16.5C 33.5,17.5 33.5,18.5 33.5,19.5C 35.1788,19.7148 36.1788,19.0481 36.5,17.5C 40.4356,18.2093 44.4356,18.2093 48.5,17.5C 50.1667,18.8333 51.8333,18.8333 53.5,17.5C 54.1667,17.5 54.8333,17.5 55.5,17.5C 55.9704,18.6935 56.9704,19.3601 58.5,19.5C 60.0296,19.3601 61.0296,18.6935 61.5,17.5C 64.1667,17.5 66.8333,17.5 69.5,17.5C 70.5521,19.256 72.2188,19.9227 74.5,19.5C 74.5,18.1667 74.5,16.8333 74.5,15.5 Z"/></g>
<g><path style="opacity:1" fill="#688448" d="M 9.5,19.5 C 9.29142,20.9217 8.79142,22.255 8,23.5C 7.51722,22.552 7.35055,21.552 7.5,20.5C 7.5,20.1667 7.5,19.8333 7.5,19.5C 7.93767,18.4937 8.60433,18.4937 9.5,19.5 Z"/></g>
<g><path style="opacity:1" fill="#dbd8cf" d="M 144.5,-0.5 C 145.167,-0.5 145.833,-0.5 146.5,-0.5C 146.05,9.30197 146.717,18.9686 148.5,28.5C 146.5,28.5 144.5,28.5 142.5,28.5C 144.321,19.03 144.987,9.36331 144.5,-0.5 Z"/></g>
<g><path style="opacity:1" fill="#b57e55" d="M 9.5,19.5 C 9.83333,19.5 10.1667,19.5 10.5,19.5C 10.5,19.8333 10.5,20.1667 10.5,20.5C 10.4006,23.4239 10.0673,26.4239 9.5,29.5C 6.16667,29.5 2.83333,29.5 -0.5,29.5C -0.5,26.5 -0.5,23.5 -0.5,20.5C 2.16667,20.5 4.83333,20.5 7.5,20.5C 7.35055,21.552 7.51722,22.552 8,23.5C 8.79142,22.255 9.29142,20.9217 9.5,19.5 Z"/></g>
<g><path style="opacity:1" fill="#b37952" d="M 16.5,20.5 C 37.8333,20.5 59.1667,20.5 80.5,20.5C 81.1667,20.5 81.8333,20.5 82.5,20.5C 82.5,23.5 82.5,26.5 82.5,29.5C 80.1667,29.5 77.8333,29.5 75.5,29.5C 56.1667,29.5 36.8333,29.5 17.5,29.5C 16.9618,26.8111 16.2951,24.1444 15.5,21.5C 15.6236,20.8933 15.9569,20.56 16.5,20.5 Z"/></g>
<g><path style="opacity:1" fill="#779056" d="M 16.5,17.5 C 16.5,18.5 16.5,19.5 16.5,20.5C 15.9569,20.56 15.6236,20.8933 15.5,21.5C 16.2951,24.1444 16.9618,26.8111 17.5,29.5C 16.2022,30.1157 15.2022,30.1157 14.5,29.5C 15.1303,27.2514 14.7969,24.9181 13.5,22.5C 12.6919,22.8076 12.0253,23.3076 11.5,24C 12.074,25.9193 12.4074,27.7526 12.5,29.5C 12.8158,31.7006 12.3158,34.034 11,36.5C 10.5604,34.1341 10.0604,31.8008 9.5,29.5C 10.0673,26.4239 10.4006,23.4239 10.5,20.5C 11.3957,21.5063 12.0623,21.5063 12.5,20.5C 14.0481,20.1788 14.7148,19.1788 14.5,17.5C 14.369,16.7611 14.5357,16.0944 15,15.5C 15.2784,16.4158 15.7784,17.0825 16.5,17.5 Z"/></g>
<g><path style="opacity:1" fill="#ae7c52" d="M 14.5,29.5 C 13.8333,29.5 13.1667,29.5 12.5,29.5C 12.4074,27.7526 12.074,25.9193 11.5,24C 12.0253,23.3076 12.6919,22.8076 13.5,22.5C 14.7969,24.9181 15.1303,27.2514 14.5,29.5 Z"/></g>
<g><path style="opacity:0.996" fill="#dee2d7" d="M -0.5,29.5 C 2.83333,29.5 6.16667,29.5 9.5,29.5C 10.0604,31.8008 10.5604,34.1341 11,36.5C 12.3158,34.034 12.8158,31.7006 12.5,29.5C 13.1667,29.5 13.8333,29.5 14.5,29.5C 15.2022,30.1157 16.2022,30.1157 17.5,29.5C 36.8333,29.5 56.1667,29.5 75.5,29.5C 75.5,43.5 75.5,57.5 75.5,71.5C 67.5,71.5 59.5,71.5 51.5,71.5C 53.1921,69.7952 54.5254,67.7952 55.5,65.5C 54.51,61.8509 52.6766,61.5176 50,64.5C 49.3083,65.4368 49.475,66.1034 50.5,66.5C 50.6308,69.3667 49.2974,71.0334 46.5,71.5C 46.0113,70.0048 45.3446,68.6715 44.5,67.5C 44.7373,66.209 44.404,65.209 43.5,64.5C 43.6309,63.6236 43.2975,62.9569 42.5,62.5C 40.3622,61.7569 38.1956,61.0903 36,60.5C 34.3576,60.9778 33.1909,61.9778 32.5,63.5C 31.8902,64.391 31.5569,65.391 31.5,66.5C 31.5,66.8333 31.5,67.1667 31.5,67.5C 30.8333,68.8333 30.1667,70.1667 29.5,71.5C 19.5,71.5 9.5,71.5 -0.5,71.5C -0.5,57.5 -0.5,43.5 -0.5,29.5 Z"/></g>
<g><path style="opacity:1" fill="#88b080" d="M 14.5,32.5 C 14.56,31.9569 14.8933,31.6236 15.5,31.5C 16.2868,32.2421 16.9535,33.0754 17.5,34C 17.0653,36.8669 15.8986,39.3669 14,41.5C 14.0464,39.6874 13.8797,38.0207 13.5,36.5C 14.1667,35.5 14.8333,34.5 15.5,33.5C 15.3764,32.8933 15.0431,32.56 14.5,32.5 Z"/></g>
<g><path style="opacity:1" fill="#eb9a71" d="M 121.5,46.5 C 119.446,46.6347 117.779,45.968 116.5,44.5C 117.122,41.2244 119.122,39.8911 122.5,40.5C 122.675,42.6208 122.341,44.6208 121.5,46.5 Z"/></g>
<g><path style="opacity:1" fill="#d8d8cf" d="M 116.5,44.5 C 117.779,45.968 119.446,46.6347 121.5,46.5C 122.406,47.9649 123.739,48.9649 125.5,49.5C 126.474,51.7427 126.808,54.076 126.5,56.5C 126.5,57.1667 126.5,57.8333 126.5,58.5C 126.5,60.1667 126.5,61.8333 126.5,63.5C 126.167,63.5 125.833,63.5 125.5,63.5C 121.537,60.6852 117.204,58.6852 112.5,57.5C 111.371,55.3718 111.204,53.0385 112,50.5C 114.256,48.9859 115.756,46.9859 116.5,44.5 Z"/></g>
<g><path style="opacity:1" fill="#f1c08f" d="M 134.5,54.5 C 133.652,53.375 132.652,53.375 131.5,54.5C 130.737,52.4325 129.404,50.7659 127.5,49.5C 132.563,47.804 137.23,48.4707 141.5,51.5C 142.429,52.6888 142.762,54.0222 142.5,55.5C 139.833,55.1667 137.167,54.8333 134.5,54.5 Z"/></g>
<g><path style="opacity:1" fill="#504146" d="M 41.5,53.5 C 39.2704,54.775 37.937,56.775 37.5,59.5C 33.2888,56.1436 33.6221,53.1436 38.5,50.5C 40.2131,50.8793 41.2131,51.8793 41.5,53.5 Z"/></g>
<g><path style="opacity:1" fill="#eb9d74" d="M 41.5,53.5 C 42.2485,54.531 42.9152,55.6976 43.5,57C 42.6634,58.0113 42.33,59.1779 42.5,60.5C 40.7085,60.634 39.0418,60.3007 37.5,59.5C 37.937,56.775 39.2704,54.775 41.5,53.5 Z"/></g>
<g><path style="opacity:1" fill="#f8a072" d="M 134.5,54.5 C 133.404,56.1032 132.07,57.6032 130.5,59C 129.072,59.5791 127.738,59.4124 126.5,58.5C 126.5,57.8333 126.5,57.1667 126.5,56.5C 128.167,55.8333 129.833,55.1667 131.5,54.5C 132.652,53.375 133.652,53.375 134.5,54.5 Z"/></g>
<g><path style="opacity:1" fill="#f4a074" d="M 112.5,57.5 C 117.204,58.6852 121.537,60.6852 125.5,63.5C 124.241,66.0182 122.907,65.8515 121.5,63C 120.207,62.51 118.873,62.3433 117.5,62.5C 116.122,61.7656 114.622,61.0989 113,60.5C 112.517,59.552 112.351,58.552 112.5,57.5 Z"/></g>
<g><path style="opacity:1" fill="#4f8646" d="M 101.5,63.5 C 97.6002,64.4299 93.6002,64.7633 89.5,64.5C 87.9911,62.3197 88.4911,60.653 91,59.5C 93.7577,60.1172 96.591,60.2839 99.5,60C 100.823,60.8159 101.489,61.9826 101.5,63.5 Z"/></g>
<g><path style="opacity:1" fill="#f6c448" d="M 32.5,63.5 C 36.1352,64.1143 39.8019,64.4476 43.5,64.5C 39.9707,66.4228 35.9707,67.0894 31.5,66.5C 31.5569,65.391 31.8902,64.391 32.5,63.5 Z"/></g>
<g><path style="opacity:1" fill="#f6ce6b" d="M 43.5,64.5 C 39.8019,64.4476 36.1352,64.1143 32.5,63.5C 33.1909,61.9778 34.3576,60.9778 36,60.5C 38.1956,61.0903 40.3622,61.7569 42.5,62.5C 43.2975,62.9569 43.6309,63.6236 43.5,64.5 Z"/></g>
<g><path style="opacity:1" fill="#514247" d="M 117.5,62.5 C 118.873,62.3433 120.207,62.51 121.5,63C 122.907,65.8515 124.241,66.0182 125.5,63.5C 125.833,63.5 126.167,63.5 126.5,63.5C 126.5,64.8333 126.5,66.1667 126.5,67.5C 122.5,67.5 118.5,67.5 114.5,67.5C 114.5,65.8333 114.5,64.1667 114.5,62.5C 115.5,62.5 116.5,62.5 117.5,62.5 Z"/></g>
<g><path style="opacity:1" fill="#f28344" d="M 55.5,65.5 C 53.5853,65.2155 51.9187,65.5489 50.5,66.5C 49.475,66.1034 49.3083,65.4368 50,64.5C 52.6766,61.5176 54.51,61.8509 55.5,65.5 Z"/></g>
<g><path style="opacity:1" fill="#d4d5cd" d="M 101.5,63.5 C 101.5,64.8333 101.5,66.1667 101.5,67.5C 105.833,67.5 110.167,67.5 114.5,67.5C 109.833,68.1667 105.167,68.8333 100.5,69.5C 97.9407,69.1984 95.6074,69.5318 93.5,70.5C 92.8333,70.5 92.1667,70.5 91.5,70.5C 91.5,69.8333 91.1667,69.5 90.5,69.5C 88.3718,68.3709 86.0385,68.2042 83.5,69C 85.6502,70.1923 86.3168,71.6923 85.5,73.5C 84.5,72.8333 83.5,72.1667 82.5,71.5C 82.5,70.1667 82.5,68.8333 82.5,67.5C 84.8333,67.5 87.1667,67.5 89.5,67.5C 89.5,66.5 89.5,65.5 89.5,64.5C 93.6002,64.7633 97.6002,64.4299 101.5,63.5 Z"/></g>
<g><path style="opacity:1" fill="#f7d581" d="M 43.5,64.5 C 44.404,65.209 44.7373,66.209 44.5,67.5C 40.1667,67.5 35.8333,67.5 31.5,67.5C 31.5,67.1667 31.5,66.8333 31.5,66.5C 35.9707,67.0894 39.9707,66.4228 43.5,64.5 Z"/></g>
<g><path style="opacity:1" fill="#f4a175" d="M 55.5,65.5 C 54.5254,67.7952 53.1921,69.7952 51.5,71.5C 50.5987,72.2905 49.9321,73.2905 49.5,74.5C 48.8333,75.5 48.1667,76.5 47.5,77.5C 45.4862,77.6085 43.8195,76.9418 42.5,75.5C 42.894,73.2901 44.2273,71.9568 46.5,71.5C 49.2974,71.0334 50.6308,69.3667 50.5,66.5C 51.9187,65.5489 53.5853,65.2155 55.5,65.5 Z"/></g>
<g><path style="opacity:1" fill="#aab3ad" d="M 114.5,67.5 C 118.5,67.5 122.5,67.5 126.5,67.5C 132.842,67.3338 139.175,67.5005 145.5,68C 147.703,70.3722 150.037,72.5389 152.5,74.5C 131.098,75.8312 109.598,75.8312 88,74.5C 87.5357,75.0944 87.369,75.7611 87.5,76.5C 86.0937,76.0269 85.427,75.0269 85.5,73.5C 86.3168,71.6923 85.6502,70.1923 83.5,69C 86.0385,68.2042 88.3718,68.3709 90.5,69.5C 88.9519,69.8212 88.2852,70.8212 88.5,72.5C 90.1788,72.7148 91.1788,72.0481 91.5,70.5C 92.1667,70.5 92.8333,70.5 93.5,70.5C 93.5,71.8333 93.5,73.1667 93.5,74.5C 99.1764,74.6661 104.843,74.4994 110.5,74C 111.833,73 111.833,72 110.5,71C 107.274,69.8011 103.941,69.3011 100.5,69.5C 105.167,68.8333 109.833,68.1667 114.5,67.5 Z"/></g>
<g><path style="opacity:1" fill="#d39367" d="M 100.5,69.5 C 103.941,69.3011 107.274,69.8011 110.5,71C 111.833,72 111.833,73 110.5,74C 104.843,74.4994 99.1764,74.6661 93.5,74.5C 93.5,73.1667 93.5,71.8333 93.5,70.5C 95.6074,69.5318 97.9407,69.1984 100.5,69.5 Z"/></g>
<g><path style="opacity:1" fill="#f2603a" d="M 90.5,69.5 C 91.1667,69.5 91.5,69.8333 91.5,70.5C 91.1788,72.0481 90.1788,72.7148 88.5,72.5C 88.2852,70.8212 88.9519,69.8212 90.5,69.5 Z"/></g>
<g><path style="opacity:1" fill="#f4c65d" d="M 31.5,67.5 C 35.8333,67.5 40.1667,67.5 44.5,67.5C 45.3446,68.6715 46.0113,70.0048 46.5,71.5C 44.2273,71.9568 42.894,73.2901 42.5,75.5C 42.5,76.8333 42.5,78.1667 42.5,79.5C 42.5,79.8333 42.5,80.1667 42.5,80.5C 38.9415,82.9679 34.9415,83.9679 30.5,83.5C 29.5655,82.4324 29.2322,81.099 29.5,79.5C 29.5,76.8333 29.5,74.1667 29.5,71.5C 30.1667,70.1667 30.8333,68.8333 31.5,67.5 Z"/></g>
<g><path style="opacity:0.992" fill="#44373e" d="M -0.5,71.5 C 9.5,71.5 19.5,71.5 29.5,71.5C 29.5,74.1667 29.5,76.8333 29.5,79.5C 19.5,79.5 9.5,79.5 -0.5,79.5C -0.5,76.8333 -0.5,74.1667 -0.5,71.5 Z"/></g>
<g><path style="opacity:1" fill="#493b41" d="M 51.5,71.5 C 59.5,71.5 67.5,71.5 75.5,71.5C 77.8333,71.5 80.1667,71.5 82.5,71.5C 83.5,72.1667 84.5,72.8333 85.5,73.5C 85.427,75.0269 86.0937,76.0269 87.5,76.5C 88.1667,77.5 88.8333,78.5 89.5,79.5C 73.8333,79.5 58.1667,79.5 42.5,79.5C 42.5,78.1667 42.5,76.8333 42.5,75.5C 43.8195,76.9418 45.4862,77.6085 47.5,77.5C 52.7556,79.1892 57.7556,78.6892 62.5,76C 58.3654,74.5692 54.032,74.0692 49.5,74.5C 49.9321,73.2905 50.5987,72.2905 51.5,71.5 Z"/></g>
<g><path style="opacity:1" fill="#e1dacf" d="M 49.5,74.5 C 54.032,74.0692 58.3654,74.5692 62.5,76C 57.7556,78.6892 52.7556,79.1892 47.5,77.5C 48.1667,76.5 48.8333,75.5 49.5,74.5 Z"/></g>
<g><path style="opacity:1" fill="#f6c548" d="M 30.5,75.5 C 45.0471,77.1131 45.0471,78.1131 30.5,78.5C 30.5,77.5 30.5,76.5 30.5,75.5 Z"/></g>
<g><path style="opacity:0.987" fill="#d79468" d="M -0.5,79.5 C 9.5,79.5 19.5,79.5 29.5,79.5C 29.2322,81.099 29.5655,82.4324 30.5,83.5C 30.427,85.0269 31.0937,86.0269 32.5,86.5C 32.5,86.8333 32.5,87.1667 32.5,87.5C 32.309,95.8403 31.9756,104.174 31.5,112.5C 27.8333,112.5 24.1667,112.5 20.5,112.5C 19.901,104.514 19.5676,96.5136 19.5,88.5C 19.5,88.1667 19.5,87.8333 19.5,87.5C 15.03,86.5139 10.3633,86.1805 5.5,86.5C 5.26269,87.791 5.59603,88.791 6.5,89.5C 6.18503,93.3714 6.51836,97.0381 7.5,100.5C 9.5,100.5 11.5,100.5 13.5,100.5C 13.5,103.833 13.5,107.167 13.5,110.5C 11.1667,110.5 8.83333,110.5 6.5,110.5C 6.66463,107.482 6.49796,104.482 6,101.5C 5.50137,105.152 5.3347,108.818 5.5,112.5C 3.5,112.5 1.5,112.5 -0.5,112.5C -0.5,101.5 -0.5,90.5 -0.5,79.5 Z"/></g>
<g><path style="opacity:1" fill="#f75d34" d="M 42.5,80.5 C 46.1817,80.3347 49.8484,80.5014 53.5,81C 54.5156,81.5194 55.1822,82.3527 55.5,83.5C 53.5208,90.7294 51.5208,97.5627 49.5,104C 48.4232,104.47 47.4232,104.303 46.5,103.5C 45.6864,98.8809 45.3531,94.2142 45.5,89.5C 46.404,88.791 46.7373,87.791 46.5,86.5C 41.8333,86.5 37.1667,86.5 32.5,86.5C 31.0937,86.0269 30.427,85.0269 30.5,83.5C 34.9415,83.9679 38.9415,82.9679 42.5,80.5 Z"/></g>
<g><path style="opacity:1" fill="#d89669" d="M 42.5,80.5 C 42.5,80.1667 42.5,79.8333 42.5,79.5C 58.1667,79.5 73.8333,79.5 89.5,79.5C 90.4936,88.6517 90.8269,97.985 90.5,107.5C 90.5,108.167 90.5,108.833 90.5,109.5C 90.5,110.5 90.5,111.5 90.5,112.5C 86.8333,112.5 83.1667,112.5 79.5,112.5C 79.1667,112.5 78.8333,112.5 78.5,112.5C 78.0772,103.784 78.0772,95.1173 78.5,86.5C 73.456,86.1725 68.456,86.5059 63.5,87.5C 63.6236,88.1067 63.9569,88.44 64.5,88.5C 64.4988,96.5173 64.1655,104.517 63.5,112.5C 63.1667,112.5 62.8333,112.5 62.5,112.5C 57.5,112.5 52.5,112.5 47.5,112.5C 46.5233,109.713 46.19,106.713 46.5,103.5C 47.4232,104.303 48.4232,104.47 49.5,104C 51.5208,97.5627 53.5208,90.7294 55.5,83.5C 55.1822,82.3527 54.5156,81.5194 53.5,81C 49.8484,80.5014 46.1817,80.3347 42.5,80.5 Z"/></g>
<g><path style="opacity:1" fill="#90674f" d="M 19.5,87.5 C 14.706,86.9031 10.3727,87.5698 6.5,89.5C 5.59603,88.791 5.26269,87.791 5.5,86.5C 10.3633,86.1805 15.03,86.5139 19.5,87.5 Z"/></g>
<g><path style="opacity:1" fill="#aa4733" d="M 32.5,87.5 C 32.5,87.1667 32.5,86.8333 32.5,86.5C 37.1667,86.5 41.8333,86.5 46.5,86.5C 46.7373,87.791 46.404,88.791 45.5,89.5C 45.5,89.1667 45.5,88.8333 45.5,88.5C 41.3656,87.5151 37.0323,87.1818 32.5,87.5 Z"/></g>
<g><path style="opacity:1" fill="#d89568" d="M 8.5,89.5 C 9.83333,89.5 11.1667,89.5 12.5,89.5C 12.5,92.5 12.5,95.5 12.5,98.5C 10.8333,98.5 9.16667,98.5 7.5,98.5C 7.19,95.2869 7.52333,92.2869 8.5,89.5 Z"/></g>
<g><path style="opacity:1" fill="#654c45" d="M 32.5,87.5 C 37.0323,87.1818 41.3656,87.5151 45.5,88.5C 43.5853,88.2155 41.9187,88.5489 40.5,89.5C 40.5,92.5 40.5,95.5 40.5,98.5C 40.5,99.1667 40.5,99.8333 40.5,100.5C 40.5,101.167 40.5,101.833 40.5,102.5C 40.5,105.167 40.5,107.833 40.5,110.5C 42.1667,110.5 43.8333,110.5 45.5,110.5C 45.5,108.167 45.5,105.833 45.5,103.5C 45.8333,103.5 46.1667,103.5 46.5,103.5C 46.19,106.713 46.5233,109.713 47.5,112.5C 46.8333,117.833 46.1667,117.833 45.5,112.5C 43.8333,112.5 42.1667,112.5 40.5,112.5C 40.1667,117.833 39.8333,117.833 39.5,112.5C 37.1667,112.5 34.8333,112.5 32.5,112.5C 32.1667,116.5 31.8333,116.5 31.5,112.5C 31.9756,104.174 32.309,95.8403 32.5,87.5 Z"/></g>
<g><path style="opacity:1" fill="#d49366" d="M 34.5,89.5 C 36.1667,89.5 37.8333,89.5 39.5,89.5C 39.5,92.5 39.5,95.5 39.5,98.5C 37.5,98.5 35.5,98.5 33.5,98.5C 33.3677,95.4299 33.701,92.4299 34.5,89.5 Z"/></g>
<g><path style="opacity:1" fill="#d89568" d="M 71.5,89.5 C 71.5,92.5 71.5,95.5 71.5,98.5C 69.5,98.5 67.5,98.5 65.5,98.5C 65.9629,95.5176 66.2962,92.5176 66.5,89.5C 68.1667,89.5 69.8333,89.5 71.5,89.5 Z"/></g>
<g><path style="opacity:1" fill="#d89568" d="M 72.5,89.5 C 73.8333,89.5 75.1667,89.5 76.5,89.5C 76.5,92.5 76.5,95.5 76.5,98.5C 75.1667,98.5 73.8333,98.5 72.5,98.5C 72.5,95.5 72.5,92.5 72.5,89.5 Z"/></g>
<g><path style="opacity:1" fill="#493635" d="M 19.5,87.5 C 19.5,87.8333 19.5,88.1667 19.5,88.5C 15.6286,88.185 11.9619,88.5184 8.5,89.5C 7.52333,92.2869 7.19,95.2869 7.5,98.5C 7.5,99.1667 7.5,99.8333 7.5,100.5C 6.51836,97.0381 6.18503,93.3714 6.5,89.5C 10.3727,87.5698 14.706,86.9031 19.5,87.5 Z"/></g>
<g><path style="opacity:1" fill="#894b3e" d="M 40.5,89.5 C 41.9187,88.5489 43.5853,88.2155 45.5,88.5C 45.5,88.8333 45.5,89.1667 45.5,89.5C 45.3531,94.2142 45.6864,98.8809 46.5,103.5C 46.1667,103.5 45.8333,103.5 45.5,103.5C 45.5,102.833 45.1667,102.5 44.5,102.5C 43.8166,100.824 42.4832,100.157 40.5,100.5C 40.5,99.8333 40.5,99.1667 40.5,98.5C 40.8333,98.5 41.1667,98.5 41.5,98.5C 42.5,98.5 43.5,98.5 44.5,98.5C 44.8064,95.6146 44.4731,92.9479 43.5,90.5C 42.791,89.596 41.791,89.2627 40.5,89.5 Z"/></g>
<g><path style="opacity:1" fill="#d79366" d="M 40.5,89.5 C 41.791,89.2627 42.791,89.596 43.5,90.5C 43.0372,93.221 42.3705,95.8877 41.5,98.5C 41.1667,98.5 40.8333,98.5 40.5,98.5C 40.5,95.5 40.5,92.5 40.5,89.5 Z"/></g>
<g><path style="opacity:1" fill="#3d2f33" d="M 64.5,88.5 C 68.6463,87.353 72.9796,87.1864 77.5,88C 75.6183,88.1981 73.9516,88.6981 72.5,89.5C 72.5,92.5 72.5,95.5 72.5,98.5C 72.5,99.1667 72.5,99.8333 72.5,100.5C 72.5,103.833 72.5,107.167 72.5,110.5C 72.5,111.167 72.5,111.833 72.5,112.5C 72.1667,117.833 71.8333,117.833 71.5,112.5C 71.5,111.833 71.5,111.167 71.5,110.5C 71.5,107.167 71.5,103.833 71.5,100.5C 71.5,99.8333 71.5,99.1667 71.5,98.5C 71.5,95.5 71.5,92.5 71.5,89.5C 69.3926,88.5318 67.0593,88.1984 64.5,88.5 Z"/></g>
<g><path style="opacity:1" fill="#825f4f" d="M 78.5,112.5 C 76.5,112.5 74.5,112.5 72.5,112.5C 72.5,111.833 72.5,111.167 72.5,110.5C 74.1667,110.5 75.8333,110.5 77.5,110.5C 77.3841,107.14 77.0508,103.807 76.5,100.5C 75.1667,100.5 73.8333,100.5 72.5,100.5C 72.5,99.8333 72.5,99.1667 72.5,98.5C 73.8333,98.5 75.1667,98.5 76.5,98.5C 76.5,95.5 76.5,92.5 76.5,89.5C 75.1667,89.5 73.8333,89.5 72.5,89.5C 73.9516,88.6981 75.6183,88.1981 77.5,88C 72.9796,87.1864 68.6463,87.353 64.5,88.5C 63.9569,88.44 63.6236,88.1067 63.5,87.5C 68.456,86.5059 73.456,86.1725 78.5,86.5C 78.0772,95.1173 78.0772,103.784 78.5,112.5 Z"/></g>
<g><path style="opacity:1" fill="#ed5f39" d="M 43.5,90.5 C 44.4731,92.9479 44.8064,95.6146 44.5,98.5C 43.5,98.5 42.5,98.5 41.5,98.5C 42.3705,95.8877 43.0372,93.221 43.5,90.5 Z"/></g>
<g><path style="opacity:1" fill="#d79467" d="M 33.5,100.5 C 35.5,100.5 37.5,100.5 39.5,100.5C 39.5,103.833 39.5,107.167 39.5,110.5C 37.1667,110.5 34.8333,110.5 32.5,110.5C 32.6159,107.14 32.9492,103.807 33.5,100.5 Z"/></g>
<g><path style="opacity:1" fill="#d79467" d="M 71.5,100.5 C 71.5,103.833 71.5,107.167 71.5,110.5C 69.1667,110.5 66.8333,110.5 64.5,110.5C 64.8333,107.167 65.1667,103.833 65.5,100.5C 67.5,100.5 69.5,100.5 71.5,100.5 Z"/></g>
<g><path style="opacity:1" fill="#d59367" d="M 72.5,100.5 C 73.8333,100.5 75.1667,100.5 76.5,100.5C 77.0508,103.807 77.3841,107.14 77.5,110.5C 75.8333,110.5 74.1667,110.5 72.5,110.5C 72.5,107.167 72.5,103.833 72.5,100.5 Z"/></g>
<g><path style="opacity:1" fill="#f56840" d="M 40.5,100.5 C 42.4832,100.157 43.8166,100.824 44.5,102.5C 43.3684,103.354 42.035,103.354 40.5,102.5C 40.5,101.833 40.5,101.167 40.5,100.5 Z"/></g>
<g><path style="opacity:1" fill="#755648" d="M 64.5,88.5 C 67.0593,88.1984 69.3926,88.5318 71.5,89.5C 69.8333,89.5 68.1667,89.5 66.5,89.5C 66.2962,92.5176 65.9629,95.5176 65.5,98.5C 67.5,98.5 69.5,98.5 71.5,98.5C 71.5,99.1667 71.5,99.8333 71.5,100.5C 69.5,100.5 67.5,100.5 65.5,100.5C 65.1667,103.833 64.8333,107.167 64.5,110.5C 66.8333,110.5 69.1667,110.5 71.5,110.5C 71.5,111.167 71.5,111.833 71.5,112.5C 69.1667,112.5 66.8333,112.5 64.5,112.5C 64.1667,117.833 63.8333,117.833 63.5,112.5C 64.1655,104.517 64.4988,96.5173 64.5,88.5 Z"/></g>
<g><path style="opacity:1" fill="#d6956b" d="M 40.5,102.5 C 42.035,103.354 43.3684,103.354 44.5,102.5C 45.1667,102.5 45.5,102.833 45.5,103.5C 45.5,105.833 45.5,108.167 45.5,110.5C 43.8333,110.5 42.1667,110.5 40.5,110.5C 40.5,107.833 40.5,105.167 40.5,102.5 Z"/></g>
<g><path style="opacity:1" fill="#a09c9a" d="M 90.5,107.5 C 174.5,108.167 174.5,108.833 90.5,109.5C 90.5,108.833 90.5,108.167 90.5,107.5 Z"/></g>
<g><path style="opacity:1" fill="#79584a" d="M 8.5,89.5 C 11.9619,88.5184 15.6286,88.185 19.5,88.5C 19.5676,96.5136 19.901,104.514 20.5,112.5C 20.1667,117.833 19.8333,117.833 19.5,112.5C 17.8333,112.5 16.1667,112.5 14.5,112.5C 14.1667,117.833 13.8333,117.833 13.5,112.5C 10.8333,112.5 8.16667,112.5 5.5,112.5C 5.3347,108.818 5.50137,105.152 6,101.5C 6.49796,104.482 6.66463,107.482 6.5,110.5C 8.83333,110.5 11.1667,110.5 13.5,110.5C 13.5,107.167 13.5,103.833 13.5,100.5C 11.5,100.5 9.5,100.5 7.5,100.5C 7.5,99.8333 7.5,99.1667 7.5,98.5C 9.16667,98.5 10.8333,98.5 12.5,98.5C 12.5,95.5 12.5,92.5 12.5,89.5C 11.1667,89.5 9.83333,89.5 8.5,89.5 Z"/></g>
<g><path style="opacity:1" fill="#db9769" d="M 14.5,100.5 C 15.8333,100.5 17.1667,100.5 18.5,100.5C 18.5,103.833 18.5,107.167 18.5,110.5C 17.1667,110.5 15.8333,110.5 14.5,110.5C 14.5,107.167 14.5,103.833 14.5,100.5 Z"/></g>
<g><path style="opacity:1" fill="#d99568" d="M 14.5,89.5 C 15.5,89.5 16.5,89.5 17.5,89.5C 17.7038,92.5176 18.0371,95.5176 18.5,98.5C 17.1667,98.5 15.8333,98.5 14.5,98.5C 14.5,95.5 14.5,92.5 14.5,89.5 Z"/></g>
<g><path style="opacity:1" fill="#d8dad1" d="M 152.5,74.5 C 152.865,79.0937 153.865,83.427 155.5,87.5C 155.5,99.8333 155.5,112.167 155.5,124.5C 103.5,124.5 51.5,124.5 -0.5,124.5C -0.5,120.5 -0.5,116.5 -0.5,112.5C 1.5,112.5 3.5,112.5 5.5,112.5C 8.16667,112.5 10.8333,112.5 13.5,112.5C 13.8333,117.833 14.1667,117.833 14.5,112.5C 16.1667,112.5 17.8333,112.5 19.5,112.5C 19.8333,117.833 20.1667,117.833 20.5,112.5C 24.1667,112.5 27.8333,112.5 31.5,112.5C 31.8333,116.5 32.1667,116.5 32.5,112.5C 34.8333,112.5 37.1667,112.5 39.5,112.5C 39.8333,117.833 40.1667,117.833 40.5,112.5C 42.1667,112.5 43.8333,112.5 45.5,112.5C 46.1667,117.833 46.8333,117.833 47.5,112.5C 52.5,112.5 57.5,112.5 62.5,112.5C 62.6399,114.124 61.9733,115.29 60.5,116C 60.8333,116.333 61.1667,116.667 61.5,117C 67.8333,117.667 74.1667,117.667 80.5,117C 80.8333,116.667 81.1667,116.333 81.5,116C 80.0267,115.29 79.3601,114.124 79.5,112.5C 83.1667,112.5 86.8333,112.5 90.5,112.5C 90.5,111.5 90.5,110.5 90.5,109.5C 174.5,108.833 174.5,108.167 90.5,107.5C 90.8269,97.985 90.4936,88.6517 89.5,79.5C 88.8333,78.5 88.1667,77.5 87.5,76.5C 87.369,75.7611 87.5357,75.0944 88,74.5C 109.598,75.8312 131.098,75.8312 152.5,74.5 Z"/></g>
<g><path style="opacity:1" fill="#f4eee1" d="M 140.5,99.5 C 138.735,100.461 136.735,100.795 134.5,100.5C 134.323,102.981 135.323,104.814 137.5,106C 134.183,106.498 130.85,106.665 127.5,106.5C 125.681,103.58 125.015,100.58 125.5,97.5C 130.802,96.3372 136.136,96.1705 141.5,97C 140.748,97.6708 140.414,98.5041 140.5,99.5 Z"/></g>
<g><path style="opacity:1" fill="#f3ede0" d="M 97.5,105.5 C 97.5,102.5 97.5,99.5 97.5,96.5C 103.167,96.5 108.833,96.5 114.5,96.5C 114.817,99.5719 114.484,102.572 113.5,105.5C 108.137,106.829 102.803,106.829 97.5,105.5 Z"/></g>
<g><path style="opacity:1" fill="#7c9191" d="M 145.5,92.5 C 147.5,92.5 149.5,92.5 151.5,92.5C 151.5,97.1667 151.5,101.833 151.5,106.5C 149.801,106.66 148.134,106.494 146.5,106C 148.004,104.663 149.004,102.996 149.5,101C 148.207,100.51 146.873,100.343 145.5,100.5C 145.5,97.8333 145.5,95.1667 145.5,92.5 Z"/></g>
<g><path style="opacity:1" fill="#abb7b3" d="M 145.5,92.5 C 145.5,95.1667 145.5,97.8333 145.5,100.5C 143.708,100.634 142.042,100.301 140.5,99.5C 140.414,98.5041 140.748,97.6708 141.5,97C 136.136,96.1705 130.802,96.3372 125.5,97.5C 125.015,100.58 125.681,103.58 127.5,106.5C 125.833,106.5 124.167,106.5 122.5,106.5C 122.5,101.833 122.5,97.1667 122.5,92.5C 130.167,92.5 137.833,92.5 145.5,92.5 Z"/></g>
<g><path style="opacity:1" fill="#738a8b" d="M 115.5,92.5 C 117.5,92.5 119.5,92.5 121.5,92.5C 121.5,97.1667 121.5,101.833 121.5,106.5C 119.533,106.739 117.699,106.406 116,105.5C 115.502,102.183 115.335,98.8499 115.5,95.5C 115.5,94.5 115.5,93.5 115.5,92.5 Z"/></g>
<g><path style="opacity:1" fill="#abb7b3" d="M 115.5,92.5 C 115.5,93.5 115.5,94.5 115.5,95.5C 109.167,95.5 102.833,95.5 96.5,95.5C 96.1872,99.0419 96.5206,102.375 97.5,105.5C 96.0813,106.451 94.4147,106.784 92.5,106.5C 92.5,101.833 92.5,97.1667 92.5,92.5C 100.167,92.5 107.833,92.5 115.5,92.5 Z"/></g>
<g><path style="opacity:1" fill="#f4eee1" d="M 139.5,83.5 C 141.5,83.5 143.5,83.5 145.5,83.5C 146.5,83.5 147.5,83.5 148.5,83.5C 148.5,86.1667 148.5,88.8333 148.5,91.5C 145.5,91.5 142.5,91.5 139.5,91.5C 139.5,88.8333 139.5,86.1667 139.5,83.5 Z"/></g>
<g><path style="opacity:1" fill="#f2ede0" d="M 136.5,84.5 C 136.756,86.7925 136.423,88.9592 135.5,91C 131.745,91.7554 128.078,91.5887 124.5,90.5C 124.5,87.1667 124.5,83.8333 124.5,80.5C 128.5,80.5 132.5,80.5 136.5,80.5C 136.5,81.8333 136.5,83.1667 136.5,84.5 Z"/></g>
<g><path style="opacity:1" fill="#f5efe2" d="M 112.5,86.5 C 112.297,88.0443 111.63,89.3777 110.5,90.5C 105.784,91.7746 101.117,91.7746 96.5,90.5C 95.8592,89.5178 95.1925,88.5178 94.5,87.5C 94.6938,85.7367 94.6938,83.9033 94.5,82C 100.5,81.3333 106.5,81.3333 112.5,82C 112.011,83.7643 112.011,85.2643 112.5,86.5 Z"/></g>
<g><path style="opacity:1" fill="#7d9192" d="M 145.5,77.5 C 147.5,77.5 149.5,77.5 151.5,77.5C 151.827,82.2137 151.493,86.8804 150.5,91.5C 149.832,88.6944 149.166,86.0277 148.5,83.5C 147.5,83.5 146.5,83.5 145.5,83.5C 145.5,81.5 145.5,79.5 145.5,77.5 Z"/></g>
<g><path style="opacity:1" fill="#acb8b3" d="M 145.5,77.5 C 145.5,79.5 145.5,81.5 145.5,83.5C 143.5,83.5 141.5,83.5 139.5,83.5C 138.686,85.631 138.186,87.9644 138,90.5C 137.809,88.2922 137.309,86.2922 136.5,84.5C 136.5,83.1667 136.5,81.8333 136.5,80.5C 132.5,80.5 128.5,80.5 124.5,80.5C 124.5,83.8333 124.5,87.1667 124.5,90.5C 124.44,91.0431 124.107,91.3764 123.5,91.5C 122.507,86.8804 122.173,82.2137 122.5,77.5C 130.167,77.5 137.833,77.5 145.5,77.5 Z"/></g>
<g><path style="opacity:1" fill="#7a8f90" d="M 115.5,77.5 C 117.5,77.5 119.5,77.5 121.5,77.5C 121.5,82.1667 121.5,86.8333 121.5,91.5C 120.127,91.6567 118.793,91.49 117.5,91C 118.38,89.6439 118.714,88.1439 118.5,86.5C 117.5,86.5 116.5,86.5 115.5,86.5C 115.5,83.5 115.5,80.5 115.5,77.5 Z"/></g>
<g><path style="opacity:1" fill="#aab7b2" d="M 115.5,77.5 C 115.5,80.5 115.5,83.5 115.5,86.5C 114.5,86.5 113.5,86.5 112.5,86.5C 112.011,85.2643 112.011,83.7643 112.5,82C 106.5,81.3333 100.5,81.3333 94.5,82C 94.6938,83.9033 94.6938,85.7367 94.5,87.5C 95.1925,88.5178 95.8592,89.5178 96.5,90.5C 95.4324,91.4345 94.099,91.7678 92.5,91.5C 92.5,86.8333 92.5,82.1667 92.5,77.5C 100.167,77.5 107.833,77.5 115.5,77.5 Z"/></g>
<g><path style="opacity:1" fill="#b7bbb7" d="M 62.5,112.5 C 62.8333,112.5 63.1667,112.5 63.5,112.5C 63.8333,117.833 64.1667,117.833 64.5,112.5C 66.8333,112.5 69.1667,112.5 71.5,112.5C 71.8333,117.833 72.1667,117.833 72.5,112.5C 74.5,112.5 76.5,112.5 78.5,112.5C 78.8333,112.5 79.1667,112.5 79.5,112.5C 79.3601,114.124 80.0267,115.29 81.5,116C 81.1667,116.333 80.8333,116.667 80.5,117C 74.1667,117.667 67.8333,117.667 61.5,117C 61.1667,116.667 60.8333,116.333 60.5,116C 61.9733,115.29 62.6399,114.124 62.5,112.5 Z"/></g>
</svg>
