<svg width="169" height="102" viewBox="0 0 169 102" fill="none" xmlns="http://www.w3.org/2000/svg">
<g clip-path="url(#clip0_863_6276)">
<path d="M73.4983 101.435C46.1301 101.435 23.9438 100.834 23.9438 100.093C23.9438 99.3518 46.1301 98.751 73.4983 98.751C100.866 98.751 123.053 99.3518 123.053 100.093C123.053 100.834 100.866 101.435 73.4983 101.435Z" fill="#779B38"/>
<path d="M127.541 84.066C125.936 86.6156 119.176 92.9034 108.979 91.1589C108.979 91.1589 107.776 74.7495 90.1312 76.2064C90.1312 76.2064 78.96 76.3789 81.1179 92.8458H51.0415C51.0415 92.8458 52.5692 76.6856 33.7595 76.1297C32.4227 76.0914 31.086 76.3406 29.9021 76.9732C26.7894 78.5834 21.4425 82.8967 23.6576 92.865C23.6576 92.865 -1.20555 91.964 0.0547943 77.855C1.31514 63.746 18.7881 54.6978 18.7881 54.6978C18.7881 54.6978 29.5774 48.4867 37.044 47.2407C37.044 47.2407 32.8047 51.4389 33.1293 57.7841C33.1293 57.7841 36.0319 43.1767 62.0599 43.8476C62.0599 43.8476 54.8225 46.4356 54.7461 57.4582C54.7461 57.4582 60.3604 40.4354 82.2636 45.2662C82.2636 45.2662 77.2413 48.7743 76.4775 58.2059C76.4775 58.2059 79.2273 50.7679 87.2095 45.7646C87.2095 45.7646 98.3426 47.5091 106.248 52.7808L157.407 55.062L108.234 58.4359L116.446 58.7043C116.446 58.7043 119.043 60.4104 119.482 61.7523C119.921 63.0942 168.043 63.7651 168.043 63.7651L117.649 66.9473L123.95 67.2924C123.95 67.2924 127.273 69.8995 127.903 74.9412L164.091 76.3214L114.441 79.4078L128.419 79.8295C128.419 79.8295 129.126 81.5164 127.521 84.066H127.541Z" fill="#F9F2E4"/>
<path d="M31.8307 79.1776C31.8307 79.1776 39.6792 76.5322 45.8091 83.2608C47.375 85.2162 49.3801 88.5709 48.3298 94.8778C48.3298 94.8778 46.7257 101.242 39.7365 101.031C32.7473 100.82 27.8587 93.9385 27.8587 93.9385C27.8587 93.9385 24.0586 89.0885 26.9803 83.0308C26.9803 83.0308 28.508 79.9061 31.8498 79.1776H31.8307Z" fill="#F9F2E4"/>
<path d="M88.8141 79.1776C88.8141 79.1776 96.6626 76.5322 102.792 83.2608C104.358 85.2162 106.363 88.5709 105.313 94.8778C105.313 94.8778 103.709 101.242 96.7199 101.031C89.7307 100.82 84.8421 93.9385 84.8421 93.9385C84.8421 93.9385 81.042 89.0885 83.9637 83.0308C83.9637 83.0308 85.4914 79.9061 88.8332 79.1776H88.8141Z" fill="#F9F2E4"/>
<path d="M12.7355 50.9418C12.7355 50.9418 22.6082 6.67855 93.0156 21.1135" stroke="#F9F2E4" stroke-width="0.63661" stroke-miterlimit="10"/>
<path d="M15.8864 38.4811C15.8864 38.4811 9.10732 35.7398 8.61082 28.6277C8.11432 21.5157 13.0029 18.7744 13.0029 18.7744C13.0029 18.7744 20.5459 21.5157 20.5459 28.6277C20.5459 35.7398 15.8864 38.4811 15.8864 38.4811Z" fill="#F9F2E4"/>
<path d="M30.7418 25.2347C30.7418 25.2347 25.0702 20.5956 26.7316 13.6561C28.393 6.7166 33.8545 5.56641 33.8545 5.56641C33.8545 5.56641 40.2326 10.4356 38.1129 17.2217C35.9932 24.0078 30.7418 25.2347 30.7418 25.2347Z" fill="#F9F2E4"/>
<path d="M50.2018 17.6619C50.2018 17.6619 46.8981 11.1058 51.2139 5.4507C55.5296 -0.204414 60.9911 0.945779 60.9911 0.945779C60.9911 0.945779 64.8485 8.0003 60.17 13.3487C55.4914 18.6971 50.1827 17.6619 50.1827 17.6619H50.2018Z" fill="#F9F2E4"/>
<path d="M75.542 15.9184C75.542 15.9184 74.4917 8.65299 80.3733 4.66566C86.2549 0.678321 91.0671 3.53463 91.0671 3.53463C91.0671 3.53463 92.4994 11.4518 86.3695 15.0174C80.2396 18.583 75.542 15.9184 75.542 15.9184Z" fill="#F9F2E4"/>
<path d="M93.8939 20.9595C93.8939 20.9595 99.661 16.4354 106.039 19.5793C112.417 22.7231 112.322 28.3399 112.322 28.3399C112.322 28.3399 106.192 33.5158 100.043 29.9502C93.8939 26.3846 93.8939 20.9595 93.8939 20.9595Z" fill="#F9F2E4"/>
<path d="M75.3878 19.8091C75.3878 19.8091 82.6825 19.234 86.2535 25.4067C89.8245 31.5602 86.6545 36.1994 86.6545 36.1994C86.6545 36.1994 78.6914 37.1003 75.5405 30.7168C72.3897 24.3332 75.3687 19.8091 75.3687 19.8091H75.3878Z" fill="#F9F2E4"/>
<path d="M51.6151 21.3235C51.6151 21.3235 58.1842 18.103 63.7793 22.4929C69.3745 26.902 68.1333 32.3654 68.1333 32.3654C68.1333 32.3654 61.0677 36.161 55.7972 31.3877C50.5266 26.6144 51.6342 21.3235 51.6342 21.3235H51.6151Z" fill="#F9F2E4"/>
<path d="M32.3647 28.2837C32.3647 28.2837 37.5588 23.127 44.2615 25.5041C50.9643 27.8812 51.5181 33.4788 51.5181 33.4788C51.5181 33.4788 46.0184 39.3256 39.5257 36.5076C33.033 33.6896 32.3647 28.3029 32.3647 28.3029V28.2837Z" fill="#F9F2E4"/>
<path d="M18.4263 41.3568C18.4263 41.3568 21.7872 34.8391 28.891 35.0499C35.9948 35.2608 38.229 40.3983 38.229 40.3983C38.229 40.3983 34.7917 47.6637 27.7261 46.9736C20.6606 46.2835 18.4072 41.3568 18.4072 41.3568H18.4263Z" fill="#F9F2E4"/>
<path d="M107.47 85.6372C107.47 85.6372 108.806 88.8961 108.959 91.1582C108.959 91.1582 121.181 93.8419 128.036 83.126C128.036 83.126 119.462 85.8673 107.47 85.6372Z" fill="#779B38"/>
<path d="M97.981 48.6794C97.981 48.6794 82.685 45.919 76.8797 57.3634C76.8797 57.3634 79.4386 50.1364 87.2107 45.7656C87.2107 45.7656 93.4552 46.82 97.9619 48.6794H97.981Z" fill="#779B38"/>
<path d="M82.2822 45.2476C82.2822 45.2476 80.7927 46.2637 79.2268 48.8516C79.2268 48.8516 78.1766 43.8866 69.0104 46.8196C69.0104 46.8196 62.365 48.5065 56.1587 54.5259C56.1587 54.5259 58.9658 48.3148 66.7762 45.4393C66.7762 45.4393 73.0779 42.8131 82.2822 45.2285V45.2476Z" fill="#779B38"/>
<path d="M56.7141 49.0052C56.7141 49.0052 58.299 45.6122 62.0801 43.8485C62.0801 43.8485 52.3983 42.9284 45.8866 45.6122C45.8866 45.6122 37.828 49.1011 35.3264 53.376C35.3264 53.376 42.9649 48.7177 46.8796 47.7017C46.8796 47.7017 54.4607 45.2863 56.7332 49.0244L56.7141 49.0052Z" fill="#779B38"/>
<path d="M35.0024 50.0598C35.0024 50.0598 35.6326 48.7754 37.1221 47.2227C37.1221 47.2227 35.2697 47.261 29.4072 49.5422C29.4072 49.5422 35.6517 47.9128 34.9833 50.0598H35.0024Z" fill="#779B38"/>
<path d="M83.5813 83.876C83.5813 83.876 82.8747 93.921 93.5113 97.9083C93.5113 97.9083 101.131 101.052 105.427 94.036C105.427 94.036 104.32 101.857 95.5927 100.976C95.5927 100.976 88.7372 100.63 84.2496 93.0583C84.2496 93.0583 81.5189 89.3777 83.5813 83.8951V83.876Z" fill="#779B38"/>
<path d="M26.6941 83.876C26.6941 83.876 25.9875 93.921 36.6241 97.9083C36.6241 97.9083 44.2434 101.052 48.54 94.036C48.54 94.036 47.4325 101.857 38.7055 100.976C38.7055 100.976 31.85 100.63 27.3624 93.0583C27.3624 93.0583 24.6317 89.3777 26.6941 83.8951V83.876Z" fill="#779B38"/>
<path d="M29.4063 80.1945C34.7723 77.7599 40.864 79.236 45.3516 82.6674C41.2459 78.5842 34.3713 77.1273 29.4063 80.1945Z" fill="#779B38"/>
<path d="M102.316 82.7827C98.4394 78.6228 91.7558 77.3768 86.7144 79.9839C91.9085 78.0669 98.0957 79.2363 102.316 82.7827Z" fill="#779B38"/>
<path d="M15.3696 56.749C15.3696 56.749 -0.00283623 66.4205 -0.00283623 78.6602C-0.00283623 78.6602 -0.804865 92.0216 23.6382 92.8459C23.6382 92.8459 22.5688 88.7052 23.5427 84.8137C23.5427 84.8137 9.62162 83.5294 8.34218 74.9988C7.06274 66.4682 11.7604 59.797 15.3696 56.749Z" fill="#779B38"/>
<path d="M50.0684 86.2129C50.0684 86.2129 51.1378 89.0884 51.0232 92.8457H81.0996C81.0996 92.8457 80.6222 88.4366 80.9659 86.2129H50.0493H50.0684Z" fill="#779B38"/>
</g>
<defs>
<clipPath id="clip0_863_6276">
<rect width="168.065" height="100.584" fill="white" transform="matrix(-1 0 0 1 168.063 0.850586)"/>
</clipPath>
</defs>
</svg>
