<svg width="242" height="225" viewBox="0 0 242 225" fill="none" xmlns="http://www.w3.org/2000/svg">
<path d="M32.138 80.7172C72.3521 89.4767 118.144 60.976 140.395 30.7225C150.927 16.404 163.29 0.218576 181.063 0.00484764C223.022 -0.499727 237.527 38.4881 240.175 68.3764C240.901 76.5635 241.755 84.7625 241.971 92.9788C242.705 120.888 229.883 166.507 172.836 193.275C106.324 224.485 39.5 189.5 19.9868 159.38C2.5062 128.469 -19.5364 69.4614 32.138 80.7172Z" fill="#C25E3E"/>
<path d="M164.465 198.554L163.906 186.976C163.906 186.976 170.158 179.6 169.532 177.653C168.907 175.704 165.296 172.42 165.296 172.42C165.296 172.42 168.278 169.97 167.243 168.708C166.206 167.446 163.738 164.162 163.738 164.162L162.073 145.208L81.6531 147.116C81.6531 147.116 85.2208 197.96 84.18 197.951C83.1392 197.94 160.658 201.073 164.465 198.554Z" fill="#D4DBDC"/>
<path d="M161.948 146.821C161.954 146.824 161.972 146.835 161.985 146.88C162.829 149.672 163.002 152.704 163.279 155.642C163.416 157.098 163.504 158.558 163.587 160.022C163.658 161.298 163.832 162.571 163.734 163.809L163.722 163.972L163.865 164.049C164.756 164.529 165.711 165.282 166.442 166.16C167.176 167.041 167.661 168.018 167.664 168.949C167.667 170.076 167.027 171.256 166.092 172.079L165.864 172.278L166.104 172.463C167.104 173.239 168.164 174.142 168.878 175.173C169.588 176.199 169.942 177.33 169.579 178.584C169.366 179.318 168.992 179.981 168.564 180.638C168.144 181.284 167.655 181.949 167.26 182.633C166.439 184.054 165.423 185.358 164.413 186.708C164.276 186.891 164.122 187.104 164.012 187.335C163.915 187.539 163.845 187.77 163.855 188.018L163.865 188.126C163.875 188.195 163.936 188.481 164.02 188.871C164.106 189.271 164.22 189.799 164.34 190.368C164.581 191.507 164.844 192.798 164.955 193.54C165.091 194.447 165.206 195.353 165.249 196.26C165.271 196.726 165.275 197.191 165.249 197.652C165.242 197.776 165.242 197.912 165.239 198.029C165.237 198.151 165.231 198.263 165.215 198.367C165.187 198.544 165.131 198.679 165.018 198.781L164.966 198.823C164.769 198.962 164.515 199.051 164.223 199.128C164.017 199.183 163.776 199.235 163.551 199.296L163.333 199.361C162.665 199.581 161.978 199.768 161.292 199.887C160.1 200.096 158.929 200.19 157.708 200.367C156.425 200.551 155.03 200.791 153.635 200.9C152.241 201.008 150.871 200.984 149.649 200.651C149.434 200.592 149.402 200.333 149.552 200.213L149.627 200.171C150.784 199.753 152.072 199.564 153.395 199.439C154.704 199.315 156.072 199.253 157.325 199.085C158.655 198.908 159.975 198.677 161.289 198.457C162.18 198.307 163.048 198.064 163.917 198.031L164.237 198.018L164.147 197.71C163.69 196.154 163.418 194.534 163.171 192.895C162.924 191.261 162.701 189.601 162.339 187.989V187.988C162.278 187.72 162.227 187.494 162.246 187.285L162.259 187.196C162.316 186.897 162.533 186.645 162.798 186.347C164.677 184.234 166.158 181.858 167.725 179.549C168.28 178.731 168.508 178.026 168.485 177.386C168.463 176.745 168.191 176.208 167.824 175.724C167.463 175.247 166.987 174.797 166.547 174.347C166.098 173.889 165.673 173.421 165.365 172.882L165.251 172.681L165.041 172.781C164.705 172.94 164.358 173.048 164.012 173.092C163.925 173.103 163.824 173.056 163.754 172.946C163.701 172.863 163.688 172.777 163.703 172.708L163.728 172.646C163.965 172.256 164.309 171.896 164.684 171.529C165.05 171.169 165.453 170.796 165.766 170.404C166.081 170.008 166.328 169.564 166.362 169.046C166.397 168.524 166.211 167.971 165.75 167.365C165.409 166.916 165.006 166.527 164.612 166.155C164.214 165.779 163.826 165.424 163.487 165.03L163.39 164.917L163.243 164.949C162.979 165.007 162.745 164.898 162.68 164.658C162.317 163.318 162.397 161.903 162.322 160.449C162.246 158.966 162.147 157.528 162.074 156.051C161.935 153.2 161.586 150.321 161.744 147.506L161.783 146.944C161.788 146.878 161.838 146.829 161.896 146.817C161.923 146.811 161.94 146.816 161.948 146.821Z" fill="#6E7881" stroke="#ECF6EF" stroke-width="0.5"/>
<path d="M180.376 224.998C175.147 224.998 157.131 224.836 145.014 224.722C138.363 224.658 133.49 224.61 133.49 224.61C133.49 224.61 138.122 217.186 141.683 214.553C145.241 211.916 158.826 212.542 164.98 216.122C165.589 216.475 170.564 218.78 174.693 221.007C177.755 222.66 180.35 224.265 180.376 224.998Z" fill="#666666"/>
<path d="M174.693 221.009C168.868 220.943 157.159 219.418 153.82 220.176C150.866 220.847 147.258 223.137 145.015 224.722C138.364 224.658 133.491 224.61 133.491 224.61C133.491 224.61 138.123 217.186 141.684 214.553C145.242 211.916 158.827 212.542 164.981 216.122C165.589 216.476 170.563 218.782 174.693 221.009Z" fill="#ECF6EF"/>
<path d="M164.98 216.122C164.98 216.122 159.33 214.851 150.235 215.411C140.181 216.03 134.193 223.511 135.553 224.61C135.553 224.61 135.553 224.61 131.423 224.61C130.553 223.644 129.346 216.084 128.433 209.458C127.683 204.004 127.134 199.185 127.134 199.185L126.251 190.625L122.518 154.456L156.481 147.518L158.426 192.063C158.426 192.063 160.999 192.651 162.397 194.524C164.144 196.868 161.444 202.491 161.444 202.491C161.444 202.491 164.618 203.816 167.242 205.289C169.865 206.762 164.98 216.122 164.98 216.122Z" fill="white"/>
<path d="M153.785 177.652C153.785 177.652 157.251 177.437 156.646 174.665C156.041 171.893 153.785 170.741 153.785 170.741L154.944 149.484C154.944 149.484 144.207 151.712 143.429 152.452C142.651 153.192 141.563 173.187 141.867 173.334C142.17 173.482 149.882 178.95 149.882 178.95L153.785 177.652Z" fill="#D4DBDC"/>
<path d="M157.26 209.645C154.29 213.87 135.324 212.872 128.638 211.741C127.888 206.287 127.135 199.185 127.135 199.185L126.252 190.624C129.556 189.789 132.396 189.138 132.624 189.309C133.19 189.732 154.62 181.014 154.62 181.014C154.62 181.014 158.424 204.611 157.26 209.645Z" fill="#D4DBDC"/>
<path d="M110.962 224.998C110.962 224.998 107.366 224.998 102.115 224.998H64.0925C63.4573 224.191 66.1794 222.656 69.6613 221.109C74.8203 218.816 81.6467 216.497 81.6467 216.497L85.5094 213.822C85.5094 213.822 99.658 213.187 100.251 213.489C100.845 213.793 110.962 224.998 110.962 224.998Z" fill="#666666"/>
<path d="M110.962 224.998C110.962 224.998 107.366 224.998 102.115 224.998L90.9062 222.492C90.9062 222.492 73.8788 222.18 69.6609 221.109C74.8198 218.816 81.6462 216.497 81.6462 216.497L85.509 213.822C85.509 213.822 99.6575 213.187 100.251 213.489C100.844 213.793 110.962 224.998 110.962 224.998Z" fill="#ECF6EF"/>
<path d="M81.6455 216.497C81.6455 216.497 77.1518 213.234 77.2805 211.547C77.4093 209.86 82.9824 205.023 82.9824 205.023C82.9824 205.023 76.3824 199.264 77.7752 197.067C79.169 194.869 81.1787 192.458 81.1787 192.458L80.8729 155.482L107.44 158.976C107.44 158.976 114.278 218.917 112.342 225C107.647 225 107.647 225 107.647 225C107.647 225 94.9217 216.1 81.6455 216.497Z" fill="white"/>
<path d="M84.9866 205.965C84.3481 208.704 107.149 216.995 106.834 214.407C106.518 211.819 101.51 207.634 101.51 207.634C101.51 207.634 111.75 198.437 108.004 196.301C104.26 194.165 85.625 203.225 84.9866 205.965Z" fill="#D4DBDC"/>
<path d="M163.347 145.21C158.401 150.051 147.626 152.245 135.367 153.012C134.382 153.075 133.385 153.126 132.384 153.17C107.81 154.241 78.8503 150.134 78.8503 150.134C78.8503 150.134 78.8503 150.134 79.0091 146.004C78.8503 121.704 102.833 81.8376 107.122 78.6616C107.572 78.3279 108.005 78.0639 108.418 77.8579C111.947 76.0853 114.11 78.5028 114.11 78.5028L129.834 78.9792C129.834 78.9792 138.384 75.1196 146.024 75.5198C147.813 75.6089 149.55 75.9329 151.117 76.5971C159.377 80.0908 162.076 111.221 163.347 145.21Z" fill="white"/>
<path d="M135.368 153.012C134.383 153.075 133.386 153.127 132.385 153.171C134.415 141.913 142.099 98.9628 141.27 97.7213C140.317 96.2921 131.899 97.8801 130.31 96.1333C128.722 94.3865 132.533 80.886 132.533 80.2508L133.486 80.092C133.486 80.092 130.945 92.7985 132.216 94.5453C133.486 96.2921 141.11 94.3865 142.698 95.9745C144.074 97.349 137.223 141.309 135.368 153.012Z" fill="#6E7881"/>
<path d="M146.025 75.5198C139.602 85.342 122.465 94.6739 116.652 91.8444C111.471 89.3218 109.069 80.358 108.418 77.8579C111.947 76.0853 114.11 78.5028 114.11 78.5028L129.834 78.9792C129.834 78.9792 138.386 75.1196 146.025 75.5198Z" fill="#ECF6EF"/>
<path d="M135.144 105.465C134.963 105.125 134.638 104.723 134.254 104.598L134.212 104.584C134.051 104.533 133.891 104.481 133.73 104.43C133.556 104.422 133.381 104.415 133.207 104.406C133.038 104.445 132.867 104.484 132.698 104.522C132.45 104.605 132.24 104.741 132.068 104.929C131.929 105.029 131.824 105.155 131.75 105.309C131.641 105.441 131.57 105.591 131.539 105.759C131.465 105.919 131.435 106.087 131.45 106.261C131.415 106.524 131.45 106.782 131.554 107.033C131.559 107.048 131.563 107.063 131.569 107.078C131.649 107.228 131.73 107.379 131.809 107.53C131.954 107.748 132.139 107.916 132.365 108.035C132.705 108.252 133.181 108.427 133.593 108.349C133.612 108.346 133.631 108.342 133.649 108.339C133.815 108.302 133.979 108.265 134.144 108.228C134.384 108.149 134.588 108.018 134.756 107.836C135.056 107.559 135.271 107.209 135.346 106.798L135.357 106.735C135.365 106.559 135.373 106.383 135.38 106.206C135.368 105.936 135.289 105.688 135.144 105.465Z" fill="#783932"/>
<path d="M132.948 119.347C132.877 118.832 132.657 118.311 132.231 117.985C132.086 117.893 131.941 117.802 131.797 117.71C131.468 117.557 131.123 117.497 130.762 117.529C130.485 117.544 130.234 117.626 130.006 117.773C129.766 117.876 129.564 118.035 129.4 118.246C129.085 118.625 128.877 119.219 128.944 119.716C129.015 120.231 129.235 120.753 129.661 121.078C129.806 121.17 129.951 121.261 130.095 121.354C130.424 121.506 130.769 121.566 131.131 121.534C131.408 121.519 131.659 121.437 131.886 121.29C132.127 121.186 132.329 121.028 132.493 120.817C132.807 120.437 133.016 119.844 132.948 119.347Z" fill="#783932"/>
<path d="M129.774 134.385C129.752 134.064 129.653 133.772 129.478 133.51C129.354 133.232 129.167 133 128.917 132.814C128.596 132.557 128.233 132.394 127.827 132.327C127.819 132.326 127.812 132.324 127.804 132.323C127.486 132.259 127.176 132.279 126.874 132.38C126.566 132.428 126.288 132.55 126.04 132.748C125.897 132.887 125.753 133.024 125.609 133.162C125.405 133.397 125.272 133.663 125.209 133.96C125.123 134.152 125.092 134.354 125.113 134.563C125.078 134.878 125.124 135.186 125.254 135.485C125.503 136.043 125.904 136.501 126.47 136.757C126.477 136.76 126.484 136.764 126.491 136.767C127.075 137.032 127.713 137.013 128.308 136.809C128.69 136.656 129.01 136.42 129.269 136.101C129.473 135.866 129.606 135.599 129.669 135.301C129.786 135.009 129.821 134.703 129.774 134.385Z" fill="#783932"/>
<path d="M121.734 83.1709C121.679 83.1709 121.68 83.2557 121.735 83.2557C121.789 83.2557 121.788 83.1709 121.734 83.1709Z" fill="#C96F67"/>
<path d="M151.7 173.147C151.679 173.147 151.679 173.18 151.7 173.18C151.721 173.179 151.721 173.147 151.7 173.147Z" fill="#C9A287"/>
<path d="M100.669 72.8643L100.564 72.9876C100.593 72.9147 100.628 72.8728 100.669 72.8643Z" fill="#F28068"/>
<path d="M169.028 135.092C165.248 134.976 162.36 133.691 160.038 131.579C155.887 127.809 153.542 121.389 151.112 114.239C146.515 97.9819 145.995 78.3085 151.472 76.7237C156.783 75.1861 166.315 90.3926 171.109 99.5978C172.22 101.73 173.075 103.537 173.564 104.744C176.182 111.167 179.57 135.423 169.028 135.092Z" fill="#ECF6EF"/>
<path d="M148.855 96.4125C148.573 94.6689 148.38 92.9231 148.332 91.1569C148.282 89.3554 148.364 87.5453 148.562 85.7544C148.738 84.1739 149.135 82.6063 149.136 81.0129C149.136 80.7285 148.736 80.6448 148.605 80.8862C147.05 83.7672 146.995 87.7438 147.066 90.9499C147.137 94.0905 147.341 98.1389 148.998 100.902C149.159 101.17 149.586 101.03 149.575 100.724C149.52 99.2763 149.087 97.8428 148.855 96.4125Z" fill="#6E7881"/>
<path d="M154.112 108.011C153.765 107.525 154.668 97.8442 157.603 97.7573C160.539 97.6714 156.055 105.88 156.603 105.009C157.151 104.137 162.675 101.234 165.455 102.147C167.538 102.83 163.234 104.877 162.674 105.141C161.306 105.785 160.451 106.094 162.401 106.717C164.068 107.249 165.657 108.073 166.95 109.264C168.686 110.863 169.845 113.165 169.764 115.524C169.756 115.781 169.706 116.082 169.479 116.204C169.251 116.327 168.975 116.203 168.754 116.071C167.105 115.09 165.82 113.618 164.376 112.356C162.464 110.686 160.508 110.427 158.271 109.56C156.894 109.026 155.499 108.528 154.112 108.011Z" fill="#D4DBDC"/>
<path d="M147.74 115.074C147.743 115.321 152.666 127.979 158.83 129.408C164.995 130.838 167.098 126.678 167.134 123.361C167.16 121.037 165.486 111.207 161.24 108.41C156.995 105.612 155.381 107.455 154.938 107.966C154.495 108.479 147.656 109.399 147.74 115.074Z" fill="#ECF6EF"/>
<path d="M166.63 118.998C165.633 114.772 164.221 110.041 160.562 107.326C160.187 107.047 159.745 107.528 160.075 107.869C162.671 110.556 164.094 113.785 165.004 117.377C165.81 120.554 167.745 125.753 164.304 128.037C161.023 130.216 157.135 127.987 154.901 125.387C152.516 122.612 151.072 119.167 148.838 116.284C148.646 116.035 148.15 116.204 148.297 116.54C149.266 118.757 150.564 120.878 151.815 122.947C152.89 124.723 154.078 126.478 155.68 127.825C158.314 130.038 162.193 131.069 165.19 128.917C168.472 126.56 167.412 122.318 166.63 118.998Z" fill="#6E7881"/>
<path d="M159.458 108.444C159.912 108.364 162.084 113.427 162.613 117.456C163.142 121.487 160.503 124.557 158.805 124.345C157.108 124.134 159.899 121.487 159.899 121.487C159.899 121.487 156.699 123.387 153.409 120.954C150.119 118.522 149.057 112.628 149.057 112.628L159.458 108.444Z" fill="#ECF6EF"/>
<path d="M141.556 75.5212C148.203 73.3234 155.395 77.2484 160.05 81.9343C164.651 86.5652 168.157 92.4625 171.121 98.2751C174.325 104.56 176.569 111.365 176.823 118.437C176.948 121.923 176.634 125.458 175.843 128.852C175.261 131.35 174.195 133.502 171.84 134.592C169.251 135.789 166.379 135.45 163.771 134.244C161.163 133.038 158.846 130.976 157.393 128.784V128.783L157.364 128.715C157.348 128.64 157.37 128.548 157.436 128.469C157.518 128.373 157.612 128.356 157.699 128.411C159.114 129.299 160.337 130.426 161.678 131.476C163.007 132.517 164.43 133.461 166.186 133.907C169.02 134.627 172.4 133.94 173.887 131.158L174.025 130.883C175.393 127.953 175.587 124.079 175.651 120.962C175.715 117.909 175.437 114.848 174.818 111.856C173.592 105.931 171.051 100.334 168.048 95.1355C165.182 90.1756 161.963 85.026 157.586 81.1882C153.207 77.3487 147.966 75.5042 142.203 75.9763L141.643 76.03C141.566 76.0384 141.516 76.0158 141.482 75.9861C141.444 75.9525 141.413 75.8968 141.4 75.8269C141.374 75.6801 141.437 75.5606 141.556 75.5212Z" fill="#6E7881" stroke="#ECF6EF" stroke-width="0.5"/>
<path d="M152.164 118.212C145.497 117.891 144.061 109.6 144.061 109.6C144.061 109.6 140.671 106.204 141.23 104.979C141.882 103.556 143.886 103.12 145.526 105.353C147.162 107.589 147.263 108.412 147.263 108.412L149.465 108.848L148.442 105.722C146.698 105.62 145.694 104.163 146.742 102.689C146.012 101.288 145.37 99.6202 145.738 98.559C146.475 96.4495 148.172 96.8723 148.648 97.3991C149.124 97.9292 150.954 101.706 150.954 101.706C150.954 101.706 153.435 102.636 154.324 104.663C156.037 104.552 156.529 104.717 156.529 104.717C156.529 104.717 155.868 100.877 157.39 99.7962C158.915 98.7157 160.386 98.9453 160.63 100.527C160.875 102.108 160.601 107.264 161.218 110.591C161.833 113.917 161.894 118.679 152.164 118.212Z" fill="#FBE0C7"/>
<path d="M157.215 109.601C157.215 109.601 153.333 112.755 152.828 114.238C151.532 111.801 151.386 110.9 149.464 108.847L148.442 105.722L150.364 105.623C150.364 105.623 151.495 107.253 151.936 107.357C150.738 108.733 150.837 110.546 152.164 111.042C153.489 111.537 155.505 107.846 155.505 107.846L157.084 107.668L157.215 109.601Z" fill="#EED6C0"/>
<path d="M150.795 109.556C150.047 108.713 148.619 107.705 147.436 108.148C146.887 106.438 146.134 104.556 144.325 103.876C142.959 103.363 141.329 103.704 140.942 105.203C140.867 105.496 141.225 105.852 141.368 105.591C142.191 104.078 143.918 104.195 145.058 105.259C146.007 106.146 146.397 107.468 146.773 108.669C146.883 109.017 147.297 108.983 147.467 108.759C148.041 108.865 148.563 108.931 149.11 109.266C149.811 109.694 150.322 110.33 150.781 111.001C151.106 111.475 151.42 111.971 151.668 112.491C151.94 113.063 152.037 113.685 152.333 114.239C152.455 114.469 152.783 114.366 152.847 114.15C153.284 112.651 151.72 110.6 150.795 109.556Z" fill="#6E7881"/>
<path d="M157.162 107.483C156.377 107.283 155.545 107.402 154.938 107.968C154.559 108.321 154.306 108.794 153.951 109.171C153.735 109.4 153.494 109.68 153.224 109.841C152.716 110.142 151.526 110.136 151.124 109.634C151.016 109.498 150.812 109.517 150.759 109.693C150.412 110.822 151.847 111.264 152.715 111.032C153.4 110.848 154.01 110.393 154.517 109.909C154.822 109.619 155.032 109.25 155.324 108.954C155.847 108.425 156.42 108.38 157.103 108.25C157.512 108.17 157.616 107.599 157.162 107.483Z" fill="#6E7881"/>
<path d="M160.715 99.6205C159.687 98.1526 157.625 98.8437 156.776 100.165C156.055 101.285 156.031 102.679 156.083 103.965C156.163 105.877 156.374 107.912 157.206 109.653C157.318 109.888 157.682 109.742 157.672 109.508C157.602 107.826 157.225 106.169 157.138 104.483C157.038 102.537 157.398 98.6044 160.358 100.008C160.592 100.117 160.88 99.8555 160.715 99.6205Z" fill="#6E7881"/>
<path d="M151.157 104.866C150.359 104.833 149.639 105.111 148.826 104.969C148.14 104.849 147.129 104.542 146.782 103.883C146.034 102.461 150.386 102.206 151.12 101.982C151.337 101.916 151.313 101.611 151.106 101.552C149.867 101.201 148.004 101.581 146.831 102.087C146.051 102.424 145.519 103.084 145.794 103.968C146.381 105.85 150.008 106.62 151.399 105.383C151.619 105.187 151.394 104.876 151.157 104.866Z" fill="#6E7881"/>
<path d="M152.112 107.214C152.038 106.876 151.679 106.6 151.451 106.354C151.187 106.067 150.929 105.753 150.618 105.517C150.357 105.318 149.963 105.599 150.16 105.903C150.377 106.238 150.675 106.529 150.947 106.82C151.197 107.088 151.434 107.451 151.796 107.558C152.009 107.62 152.153 107.399 152.112 107.214Z" fill="#6E7881"/>
<path d="M146.75 51.2638C146.75 51.2638 137.458 36.6517 117.128 43.7989H116.731C116.731 43.6369 117.977 40.8482 119.714 37.1378C123.142 29.8317 128.495 18.9612 130.073 17.5932C133.09 15.6081 138.491 14.4171 141.111 15.2905C143.151 15.9708 146.727 18.6672 149.148 21.7424C149.84 22.6191 150.437 23.5247 150.88 24.4239C151.674 31.0925 146.75 51.2638 146.75 51.2638Z" fill="white"/>
<path d="M146.75 51.2636C146.75 51.2636 137.458 36.6516 117.128 43.7988H116.731C116.731 43.6368 117.977 40.848 119.714 37.1376C123.539 34.8918 129.851 31.9282 133.646 33.5549C139.205 35.9369 142.699 39.2729 142.699 39.2729C142.699 39.2729 147.241 29.499 149.148 21.7412C149.84 22.6178 150.437 23.5235 150.88 24.4226C151.674 31.0924 146.75 51.2636 146.75 51.2636Z" fill="#ECF6EF"/>
<path d="M144.132 18.7818C142.713 22.4225 141.46 26.135 140.138 29.8122C138.817 33.4883 137.377 37.1343 136.159 40.8458C135.962 41.4467 136.832 41.8244 137.077 41.2256C140.022 34.0301 142.553 26.4419 144.636 18.9524C144.716 18.6616 144.242 18.4985 144.132 18.7818Z" fill="#6E7881"/>
<path d="M148.238 25.1612C147.659 28.2794 146.807 31.3557 145.953 34.4073C145.046 37.6445 143.759 40.7873 142.899 44.0277C142.759 44.5524 143.574 44.7316 143.786 44.2745C145.112 41.4085 145.88 38.1617 146.68 35.1101C147.534 31.8567 148.104 28.5626 148.717 25.2589C148.772 24.9509 148.296 24.8533 148.238 25.1612Z" fill="#6E7881"/>
<path d="M136.099 21.0962C133.279 26.4601 130.8 32.0869 128.424 37.6611C128.165 38.2705 129.095 38.6429 129.371 38.0484C131.914 32.5676 134.426 26.9751 136.517 21.3054C136.618 21.0297 136.242 20.8236 136.099 21.0962Z" fill="#6E7881"/>
<path d="M130.154 23.3612C128.528 26.0533 127.28 28.9826 125.966 31.8357C124.773 34.4238 123.495 37.0752 122.914 39.8821C122.912 39.8896 122.91 39.895 122.908 39.9025C122.887 40.0076 122.867 40.1117 122.846 40.2169C122.805 40.4379 123.089 40.5924 123.241 40.4154C123.313 40.3317 123.386 40.2469 123.458 40.1622C123.555 40.0506 123.557 39.939 123.511 39.8488C124.68 37.3262 125.733 34.7457 126.899 32.2199C128.219 29.3625 129.648 26.5179 130.647 23.5286C130.748 23.2281 130.296 23.1251 130.154 23.3612Z" fill="#6E7881"/>
<path d="M113.635 50.7341C113.529 50.6279 113.344 50.3102 113.344 49.6493C113.344 48.9872 115.701 44.0375 116.282 43.3486C116.865 42.6608 122.688 40.0138 129.862 40.3839C137.036 40.7541 143.018 43.8787 146.83 47.4518C147.989 48.5376 148.445 49.278 148.366 49.6224C148.286 49.9669 147.572 53.8318 146.301 55.1022C145.031 56.3727 141.881 56.1087 141.881 56.1087L113.635 50.7341Z" fill="#ECF6EF"/>
<path d="M151.902 25.6845C151.777 24.7939 151.356 23.8754 150.964 23.1436C150.357 22.0148 149.527 21.017 148.569 20.1693C146.569 18.3988 144.768 16.6187 142.34 15.4052C142.109 15.2893 141.935 15.6091 142.146 15.7518C144.262 17.1842 146.261 18.8237 147.793 20.886C148.716 22.1286 149.454 23.4301 150.225 24.7617C150.744 25.6566 150.513 26.6051 150.397 27.5515C150.267 28.6148 150.198 29.6846 150.077 30.7501C149.855 32.6858 149.599 34.6182 149.325 36.5464C148.791 40.3126 148.149 44.0327 147.304 47.742C147.289 47.8086 147.287 47.8698 147.289 47.9309C147.186 48.0414 147.205 48.1906 147.297 48.2989C147.606 48.6616 148.013 48.6466 148.23 49.1799C148.472 49.7732 148.121 50.5179 147.938 51.0726C147.681 51.8473 147.172 52.7154 147.477 53.519C147.556 53.7261 147.801 53.8463 148.003 53.7143C148.672 53.2744 148.786 52.4364 149.012 51.7025C149.256 50.9052 149.54 50.0286 149.342 49.1874C149.245 48.7711 148.883 48.1841 148.444 47.8708C149.319 44.1207 150.127 40.3319 150.729 36.5282C150.779 36.2073 150.832 35.8865 150.884 35.5668C151.134 34.0463 151.397 32.5281 151.582 30.998C151.754 29.5634 151.672 28.0708 151.902 26.6566C151.955 26.3433 151.949 26.016 151.902 25.6845Z" fill="#D4DBDC"/>
<path d="M113.833 55.5516C113.794 55.4325 113.436 51.4614 111.213 50.6276C108.99 49.7939 107.918 53.7243 109.228 57.4573C110.538 61.1891 112.682 59.5217 112.92 59.1247C113.159 58.7287 113.833 55.5516 113.833 55.5516Z" fill="#FBE0C7"/>
<path d="M113.084 53.8031C112.882 53.1142 112.575 52.4018 111.924 52.0241C110.493 51.1936 109.306 52.6539 109.497 54.0435C109.525 54.2441 109.811 54.3611 109.916 54.1422C110.114 53.7312 110.197 53.1625 110.554 52.8524C111.367 52.1442 111.963 53.2334 112.171 53.86C112.174 53.8707 112.177 53.8836 112.18 53.8943C111.746 53.8557 111.253 54.1229 110.928 54.3825C110.312 54.875 109.926 55.6315 109.923 56.4223C109.917 57.6187 111.448 59.681 112.792 58.7335C112.891 58.6648 112.934 58.4964 112.824 58.4106C112.056 57.814 110.891 57.5339 111.014 56.2914C111.071 55.7163 111.446 55.272 111.913 54.9652C112.074 54.8589 112.232 54.7881 112.377 54.699C112.504 55.3396 112.617 56.0081 112.957 56.507C113.107 56.7281 113.464 56.6723 113.525 56.4062C113.71 55.5971 113.311 54.58 113.084 53.8031Z" fill="#6E7881"/>
<path d="M117.446 47.107C117.446 47.107 110.987 51.6597 110.987 53.5128C110.987 55.3658 113.051 53.3539 113.051 53.3539C113.051 53.3539 110.722 56.795 112.204 58.1717C113.686 59.5483 118.557 47.4246 118.609 47.107C118.664 46.7894 117.446 47.107 117.446 47.107Z" fill="white"/>
<path d="M143.971 50.9203C143.971 50.9203 141.926 69.878 139.413 75.6271C139.215 76.0842 139.012 76.4565 138.808 76.7291C136.029 80.462 127.532 83.4793 119.987 83.0822C112.443 82.6852 112.284 77.4694 112.284 77.4694C112.201 77.4372 112.116 77.3997 112.03 77.361C110.476 76.6561 108.64 74.8899 108.789 70.3759C109.961 59.8229 117.598 47.5779 118.116 46.9427C118.125 46.933 118.132 46.9234 118.135 46.9202C118.192 46.9041 118.25 46.888 118.304 46.8729C120.502 46.2474 122.547 45.8407 124.444 45.6025C124.47 45.5993 124.498 45.5961 124.524 45.5929C138.055 43.9158 143.971 50.9203 143.971 50.9203Z" fill="#FBE0C7"/>
<path d="M120.518 64.9227C119.645 67.8606 121.233 67.4635 121.233 67.4635L119.517 73.9187C119.517 73.9187 119.009 73.4197 115.833 73.9755C112.656 74.5313 112.116 77.0057 112.265 77.4091C112.189 77.3995 112.109 77.3834 112.03 77.3619C110.62 77.0003 108.616 74.9101 108.765 70.4025C109.956 59.6822 117.818 47.214 118.11 46.9468C118.114 46.9468 118.114 46.9436 118.117 46.9436C118.18 46.921 118.241 46.8964 118.305 46.8738C120.503 46.2483 122.548 45.8416 124.445 45.6034C124.471 45.6002 124.499 45.597 124.525 45.5938C126.831 47.6421 125.421 52.2517 125.421 52.2517C125.421 52.2517 121.392 61.9838 120.518 64.9227Z" fill="#EED6C0"/>
<path d="M123.916 53.699C123.865 53.8353 123.28 53.9469 122.474 54.0263C121.289 54.1475 119.627 54.1947 118.484 54.1475C117.801 54.1218 117.303 54.0585 117.201 53.9565C116.797 53.5531 118.077 51.0154 120.152 50.3545C120.532 50.2279 120.942 50.1667 121.368 50.1989C122.045 50.2397 122.553 50.4597 122.932 50.774L122.935 50.7773C123.481 51.2311 123.761 51.8728 123.881 52.4447C124.007 53.023 123.976 53.5305 123.916 53.699Z" fill="white"/>
<path d="M121.322 49.7379C118.87 49.5812 117.777 51.8613 116.66 53.5996C116.461 53.9086 117.015 54.1951 117.189 53.8507C117.862 52.5169 118.968 50.9976 120.537 50.7068C122.901 50.269 123.643 52.7186 124.002 54.5277C124.067 54.8518 124.51 54.825 124.517 54.488C124.566 52.445 123.753 49.8935 121.322 49.7379Z" fill="#783932"/>
<path d="M139.254 75.7324C139.057 76.1895 138.854 76.5619 138.65 76.8344C135.871 80.5663 127.373 83.5846 119.829 83.1876C112.284 82.7906 112.275 77.476 112.275 77.476C112.275 77.476 113.475 80.5126 118.771 80.8849C123.981 81.2498 133.453 80.9987 139.254 75.7324Z" fill="#EED6C0"/>
<path d="M135.015 72.0671C133.177 73.0853 129.441 72.8396 129.441 72.8396L129.455 71.7581L128.531 72.537L128.357 71.3128C128.357 71.3128 128.062 71.6819 127.639 72.6744C127.47 72.6712 127.233 72.6443 126.949 72.6036C125.253 72.36 121.915 71.5778 121.915 71.5778L121.764 70.2473L121.294 71.4469L119.74 71.1196L120.162 68.6109L118.914 70.9447C118.914 70.9447 118.187 70.7913 113.221 69.2022C114.739 67.1914 117.217 66.3405 119.649 66.1516C119.666 66.1484 119.682 66.1463 119.698 66.1463C121.259 66.0304 122.857 66.04 124.43 66.2149C128.617 66.6892 132.601 68.3631 135.015 72.0671Z" fill="white"/>
<path d="M135.015 72.067C133.177 73.0852 129.441 72.8395 129.441 72.8395L129.455 71.758L128.531 72.5369L128.357 71.3127C128.357 71.3127 128.062 71.6818 127.639 72.6743C127.47 72.6711 127.233 72.6442 126.949 72.6035C126.854 71.6807 126.484 69.9575 125.06 68.8587C123.582 67.5432 120.822 66.54 119.648 66.1526C119.665 66.1494 119.681 66.1473 119.697 66.1473C121.257 66.0314 122.856 66.041 124.429 66.2159C128.617 66.6891 132.601 68.363 135.015 72.067Z" fill="white"/>
<path d="M123.404 70.4929C123.368 69.7901 123.413 69.1259 123.609 68.4467C123.666 68.2482 123.406 68.1377 123.31 68.3244C122.971 68.9875 122.787 69.7192 122.824 70.465C122.843 70.8341 123.422 70.8663 123.404 70.4929Z" fill="#D4DBDC"/>
<path d="M121.905 68.2868C121.842 68.6151 121.781 68.9434 121.719 69.2718C121.687 69.4434 121.945 69.4724 121.984 69.3072C122.061 68.9799 122.14 68.6516 122.217 68.3243C122.263 68.1312 121.942 68.0861 121.905 68.2868Z" fill="#D4DBDC"/>
<path d="M118.119 66.8159C117.573 67.2891 117.142 68.0145 116.952 68.7108C116.863 69.036 117.341 69.2076 117.452 68.8825C117.681 68.2055 117.973 67.6486 118.355 67.0455C118.451 66.8964 118.271 66.685 118.119 66.8159Z" fill="white"/>
<path d="M118.352 67.6554C118.298 67.8431 118.243 68.0298 118.191 68.2176C118.141 68.3989 118.408 68.5191 118.468 68.3335C118.528 68.1479 118.585 67.9622 118.644 67.7755C118.704 67.5824 118.408 67.4622 118.352 67.6554Z" fill="#D4DBDC"/>
<path d="M141.906 61.3089C141.906 61.3089 142.858 64.4452 144.645 64.0085C146.431 63.5718 148.337 61.3485 149.013 59.1242C149.688 56.901 150.006 54.24 148.378 53.3665C146.75 52.4931 143.732 53.8033 141.786 57.7347C141.429 59.8002 141.906 61.3089 141.906 61.3089Z" fill="#FBE0C7"/>
<path d="M142.276 49.3838C142.276 49.3838 138.252 55.7896 139.364 56.266C140.476 56.7424 141.482 54.3067 141.482 54.3067C141.482 54.3067 139.947 61.2425 141.43 60.4485C142.913 59.6545 145.718 53.3539 145.718 53.3539C145.718 53.3539 145.611 51.2369 142.276 49.3838Z" fill="white"/>
<path d="M124.963 52.9839C124.963 52.9839 119.352 64.8963 120.093 67.0133C120.732 68.8374 123.461 67.655 124.575 67.0509C124.895 66.8781 125.189 66.6775 125.487 66.4714C125.984 66.1281 126.241 65.6452 126.466 65.0637C126.93 63.863 126.986 62.5013 126.602 61.2706C126.328 60.394 126.038 59.5882 125.854 58.6761C125.674 57.7823 125.518 56.8832 125.378 55.9829C125.222 54.9861 125.078 53.9861 124.963 52.9839Z" fill="#EED6C0"/>
<path d="M125.712 65.891C124.625 66.744 122.331 67.9565 121.069 66.8492C119.835 65.7654 121.83 62.4724 122.315 61.1677C123.456 58.1043 124.569 55.0376 125.753 51.9893C125.899 51.6148 125.356 51.3476 125.184 51.7199C124.1 54.0537 122.971 56.3638 122.107 58.791C121.347 60.9294 120.007 63.1795 119.7 65.4382C119.467 67.1432 120.022 68.0896 121.762 68.1647C123.449 68.2376 125.003 67.5917 126.134 66.3513C126.374 66.0895 125.996 65.6689 125.712 65.891Z" fill="#6E7881"/>
<path d="M121.237 74.3535C118.379 71.8362 112.845 72.3599 111.962 76.6422C111.168 80.491 114.957 83.4321 118.526 83.3151C118.82 83.3055 118.853 82.8398 118.558 82.7947C115.599 82.3365 112.494 80.5264 113.134 76.9995C113.72 73.7633 118.515 72.9886 120.832 74.8352C121.149 75.0895 121.542 74.6228 121.237 74.3535Z" fill="#6E7881"/>
<path d="M148.859 48.9239C145.381 44.4892 139.449 41.6855 134.077 40.3732C127.926 38.8721 121.692 39.5094 116.408 43.1136C116.072 43.3421 116.433 43.8518 116.771 43.6286C126.354 37.2894 141.002 41.2123 148.295 49.3305C148.587 49.6557 149.141 49.2833 148.859 48.9239Z" fill="#6E7881"/>
<path d="M135.396 58.3529C132.967 59.9237 130.119 59.5074 128.853 56.7359C128.704 56.4108 128.237 56.5105 128.244 56.8732C128.312 60.9227 133.546 61.4324 135.956 59.0815C136.375 58.6737 135.903 58.0256 135.396 58.3529Z" fill="#6E7881"/>
<path d="M147.548 55.2594C147.284 54.7701 146.77 54.5244 146.23 54.6596C145.531 54.8356 145.109 55.6253 144.74 56.1704C144.072 57.1575 143.453 58.1769 142.898 59.2316C142.607 59.752 143.513 60.2681 143.815 59.7467C143.903 59.5943 143.991 59.4441 144.079 59.2928C144.429 58.7735 145.106 58.0384 145.402 58.8786C145.523 59.222 144.303 61.133 144.008 60.6233C143.804 60.2703 143.163 60.5267 143.256 60.9237C143.424 61.6405 144.04 62.0043 144.746 61.6523C145.628 61.2135 146.331 59.7638 146.37 58.8239C146.401 58.0878 145.965 57.4558 145.193 57.4537C145.368 57.179 145.547 56.9075 145.731 56.6382C145.905 56.3839 146.038 55.9225 146.326 55.7702C146.445 55.7068 146.597 55.7326 146.706 55.8109C146.814 55.8893 146.883 56.0137 146.919 56.1435C147.062 56.65 146.979 57.1886 147.098 57.6962C147.146 57.899 147.43 57.8164 147.437 57.6339C147.469 56.8431 147.961 56.0244 147.548 55.2594Z" fill="#6E7881"/>
<path d="M121.831 56.352C120.985 56.6428 120.325 57.2329 119.41 57.4185C118.27 57.6492 117.103 57.4378 116.047 56.9808C115.755 56.8541 115.535 57.2383 115.806 57.4142C117.432 58.4765 121.007 58.6879 122.075 56.6567C122.158 56.5011 122.013 56.2897 121.831 56.352Z" fill="#6E7881"/>
<path d="M136.173 55.3163C136.091 55.3828 135.582 55.3989 134.861 55.3667C134.807 55.3635 134.749 55.3603 134.693 55.3603C134.359 55.3442 133.991 55.3195 133.6 55.2841C133.375 55.2648 133.146 55.2433 132.911 55.2176C132.543 55.1789 132.171 55.1317 131.806 55.0781C131.66 55.0588 131.518 55.0362 131.374 55.0148C131.265 54.9987 131.158 54.9794 131.053 54.9611C130.695 54.8978 130.354 54.8313 130.05 54.754C129.296 54.5695 128.754 54.3506 128.658 54.0995C128.55 53.8227 129.442 52.063 130.881 51.0468H130.885C131.415 50.6692 132.022 50.3988 132.68 50.3387C133.318 50.2818 133.864 50.4588 134.322 50.7764C134.763 51.078 135.123 51.5136 135.405 51.9965C135.408 51.9997 135.408 52.0029 135.411 52.0061C135.437 52.0501 135.462 52.0919 135.484 52.1359C135.856 52.8001 136.084 53.5308 136.196 54.1306C136.303 54.7229 136.29 55.1833 136.173 55.3163Z" fill="white"/>
<path d="M133.177 49.7929C130.742 49.3251 129.204 52.1696 128.289 53.9325C128.101 54.2941 128.703 54.5774 128.859 54.2029C129.426 52.8338 131.491 50.2253 133.263 50.7919C134.962 51.3337 135.702 53.7319 135.847 55.2792C135.895 55.7942 136.622 55.6858 136.627 55.1944C136.647 53.1192 135.493 50.2382 133.177 49.7929Z" fill="#783932"/>
<path d="M122.473 54.0267C121.289 54.1479 119.627 54.1951 118.484 54.1479C118.534 53.7251 118.729 52.3753 119.767 52.0674C120.958 51.7144 121.794 52.4451 122.214 53.2305C122.375 53.5256 122.448 53.7981 122.473 54.0267Z" fill="#783932"/>
<path d="M134.692 55.3612C134.359 55.3451 133.991 55.3204 133.6 55.285C133.375 55.2657 133.146 55.2442 132.911 55.2185C132.543 55.1798 132.171 55.1326 131.806 55.079C131.66 55.0597 131.517 55.0371 131.374 55.0157C131.265 54.9996 131.158 54.9803 131.053 54.962C130.694 54.8987 130.354 54.8322 130.05 54.7549C130.158 54.2463 130.58 52.903 131.946 52.6809C133.636 52.4019 134.324 53.7259 134.588 54.7335C134.648 54.9513 134.681 55.1638 134.692 55.3612Z" fill="#783932"/>
<path d="M130.634 46.4114C130.418 46.3942 130.228 46.5552 130.21 46.7719C130.18 47.1486 130.165 47.729 130.334 47.9501C130.678 48.4018 131.925 49.1701 133.736 49.6969C135.546 50.2238 138.21 49.684 138.316 49.3332C138.422 48.9823 134.232 48.4372 134.232 48.4372C134.232 48.4372 132.08 46.5294 130.634 46.4114Z" fill="white"/>
<path d="M124.475 46.2214C124.693 46.2214 124.869 46.3985 124.868 46.6163C124.867 46.994 124.834 47.5745 124.648 47.7794C124.267 48.2011 122.794 48.9372 121.617 49.126C119.755 49.4254 118.126 48.8031 118.05 48.4447C117.974 48.0863 121.322 47.7129 121.322 47.7129C121.322 47.7129 123.026 46.2193 124.475 46.2214Z" fill="white"/>
<path d="M107.124 101.951C107.124 101.951 100.599 114.079 87.201 117.303C75.6642 120.079 69.3582 115.686 69.2852 108.936C69.2723 107.847 69.4215 106.694 69.7391 105.502C72.0235 96.9293 94.5542 85.093 94.5542 85.093L103.217 96.7125L107.124 101.951Z" fill="#ECF6EF"/>
<path d="M107.124 101.952C107.124 101.952 100.599 114.08 87.201 117.304C75.6641 120.08 69.3581 115.687 69.2852 108.937C70.3174 111.532 72.7284 112.863 76.3734 113.081C88.2128 113.79 101.797 97.6756 101.797 97.6756L103.216 96.7131L107.124 101.952Z" fill="#ECF6EF"/>
<path d="M101.288 79.6375C101.033 79.5356 99.4308 78.2276 97.5617 79.6557C96.2204 80.6815 96.6818 82.365 96.6818 82.365C96.6818 82.365 94.8534 81.6622 93.495 83.923C92.1366 86.1838 95.1721 94.1111 97.1411 96.9224C99.1111 99.7336 104.245 105.301 106.628 104.784C110.287 103.99 108.976 99.3763 108.976 99.3763C108.976 99.3763 110.296 100.205 111.365 98.6531C112.433 97.1016 109.52 86.5111 108.106 85.6313C106.692 84.7514 101.288 79.6375 101.288 79.6375Z" fill="#ECF6EF"/>
<path d="M111.532 92.4835C110.871 90.2721 110.416 89.1036 109.342 87.595C109.002 87.1175 108.358 87.7913 108.625 88.2109C110.023 90.4137 110.793 93.0361 110.976 95.9504C111.009 96.4762 110.984 97.6618 110.765 98.1565C110.383 99.0224 109.507 98.8561 108.77 98.7488C107.374 98.546 106.08 98.0245 104.714 97.7133C104.46 97.6554 104.23 98.0073 104.458 98.1855C106.298 99.6297 111.697 101.865 112.127 98.017C112.324 96.2691 112.031 94.1531 111.532 92.4835Z" fill="#6E7881"/>
<path d="M101.368 82.1569C101.368 82.1569 99.565 82.041 98.3225 83.9252C97.08 85.8094 102.603 96.3569 105.287 96.9245C107.972 97.4911 104.862 93.3536 104.361 92.359C104.209 92.0575 106.177 95.8516 108.809 94.2528C111.441 92.654 107.741 84.8008 107.741 84.8008L101.368 82.1569Z" fill="#D4DBDC"/>
<path d="M109.231 99.7256C109.104 99.4327 108.551 99.6473 108.511 99.9531C108.377 100.984 108.834 102.084 108.282 103.051C107.526 104.374 106.017 103.892 104.96 103.299C103.259 102.344 101.697 101 100.337 99.613C99.0144 98.2642 97.8416 96.7449 96.8426 95.1429C96.0304 93.8413 94.3533 89.2285 93.7749 89.2285C93.0292 89.2285 95.2428 94.9808 96.2342 97.0721C97.4167 99.5658 99.6861 101.449 101.869 103.135C103.515 104.406 105.973 106.337 108.161 105.254C110.09 104.299 109.707 100.818 109.231 99.7256Z" fill="#6E7881"/>
<path d="M105.061 104.56C105.263 104.297 105.544 104.253 105.7 104.305C105.775 104.33 105.804 104.369 105.813 104.399C105.822 104.429 105.83 104.508 105.739 104.65C101.345 111.448 94.301 115.841 86.4399 117.514C82.4812 118.357 77.8011 118.732 74.1372 116.887C72.7218 116.175 71.2395 114.667 70.2466 112.907C69.2703 111.176 68.799 109.258 69.269 107.659C69.3268 110.024 70.117 111.852 71.3882 113.227C72.6754 114.619 74.4396 115.531 76.3892 116.077C80.2831 117.167 84.9777 116.818 88.3052 115.862C95.3162 113.846 100.653 110.287 105.061 104.56Z" fill="#6E7881" stroke="#ECF6EF" stroke-width="0.5"/>
<path d="M111.494 83.7788C111.71 84.7219 111.005 86.9269 109.56 88.5375C108.8 89.3852 107.835 90.0686 106.691 90.3197C106.183 90.4345 105.637 90.4592 105.058 90.3766C100.713 89.751 100.252 84.3732 100.252 84.3732C100.252 84.3732 100.202 84.0556 100.141 83.5191C99.9756 81.9504 99.7599 78.5093 100.624 75.6412C101.005 74.3772 101.596 73.2237 102.498 72.3943C104.525 70.5262 106.313 69.9575 107.994 69.6281C109.674 69.2976 113.544 70.1206 113.254 71.3438C112.965 72.567 111.85 73.3256 109.842 73.1421C107.834 72.9576 107.698 73.0306 107.698 73.0306L106.463 74.3901C106.463 74.3901 107.753 73.5832 108.722 74.1712C109.687 74.7624 109.878 75.6895 109.878 75.6895C109.878 75.6895 110.631 75.3182 111.406 76.2678C112.178 77.2206 111.453 78.5168 111.453 78.5168C111.453 78.5168 113.118 78.4503 113.232 80.0641C113.343 81.6757 113.864 83.3056 111.494 83.7788Z" fill="#FBE0C7"/>
<path d="M109.56 88.5365C108.8 89.3841 107.835 90.0677 106.691 90.3187C106.183 90.4335 105.637 90.4582 105.058 90.3756C100.713 89.75 100.252 84.3722 100.252 84.3722C100.252 84.3722 100.202 84.0546 100.141 83.5181C99.9756 81.9494 99.7599 78.5083 100.624 75.6401C100.977 78.1306 101.949 81.7294 103.724 83.9977C105.961 86.8529 108.503 88.1084 109.56 88.5365Z" fill="#EED6C0"/>
<path d="M107.44 73.6907C105.845 73.7487 103.761 74.8463 103.397 76.5202C103.345 76.7616 103.631 76.8722 103.794 76.7252C104.569 76.0245 105.125 75.2573 106.133 74.8549C107.281 74.3967 109.081 74.342 109.203 75.9601C109.223 76.2208 109.617 76.3324 109.729 76.0685C110.353 74.5899 108.749 73.6424 107.44 73.6907Z" fill="#6E7881"/>
<path d="M110.435 75.5792C108.899 75.4977 106.778 76.664 105.893 77.8851C105.74 78.0965 105.95 78.3336 106.181 78.222C107.069 77.7939 107.86 77.2145 108.787 76.8507C109.413 76.605 109.954 76.3904 110.606 76.6265C111.524 76.9591 111.282 77.8518 111.223 78.6651C111.188 79.1362 111.798 79.2521 111.939 78.8025C112.346 77.5085 112.114 75.6683 110.435 75.5792Z" fill="#6E7881"/>
<path d="M113.82 80.5551C113.605 79.5143 113.108 78.5669 111.942 78.4767C110.591 78.3726 109.513 79.4124 108.542 80.1903C108.356 80.3394 108.483 80.6249 108.723 80.568C109.803 80.3116 111.613 78.5239 112.609 79.7386C113.039 80.2633 113.18 81.5262 113.075 82.1818C113.006 82.6131 112.835 82.9586 112.444 83.1743C111.982 83.4286 111.725 83.2934 111.275 83.1035C111.045 83.0058 110.776 83.2097 110.864 83.464C111.189 84.4029 112.453 84.3578 113.127 83.8203C114.111 83.0359 114.049 81.6592 113.82 80.5551Z" fill="#6E7881"/>
<path d="M111.209 82.2729C111.068 82.0497 110.696 82.1731 110.718 82.4371C110.882 84.3706 111.041 86.2494 109.717 87.8643C108.334 89.5499 106.613 89.6154 104.654 89.9684C104.378 90.0178 104.216 90.4341 104.536 90.565C108.858 92.343 113.606 86.0713 111.209 82.2729Z" fill="#6E7881"/>
<path d="M77.1572 147.751C77.1572 148.81 78.6401 171.046 78.6401 171.046C78.6401 171.046 68.8983 182.904 71.0164 185.869C73.1345 188.834 77.1583 192.646 77.1583 192.646C77.1583 192.646 73.7697 202.388 75.0402 203.446C79.6991 205.351 151.395 211.26 151.465 204.666C151.543 197.393 151.465 184.91 151.465 184.91C151.465 184.91 157.053 182.811 156.624 179.797C156.227 177.003 150.643 173.798 150.643 173.798L152.018 147.115L77.1572 147.751Z" fill="white"/>
<path d="M152.02 146.425C152.02 146.425 152.022 146.426 152.024 146.428L152.035 146.461C152.474 148.637 152.181 151.031 152.121 153.316C152.062 155.605 151.915 157.881 151.821 160.178C151.723 162.576 151.632 164.975 151.548 167.374C151.48 169.333 151.537 171.371 151.087 173.246L151.05 173.399L151.172 173.498C151.354 173.646 151.538 173.794 151.721 173.937C152.5 174.546 153.405 175.126 154.245 175.72C155.094 176.322 155.894 176.948 156.513 177.672C157.136 178.4 157.302 179.112 157.193 179.798C157.082 180.498 156.68 181.2 156.111 181.885C154.967 183.259 153.247 184.454 152.175 185.335C152.174 185.335 152.173 185.336 152.172 185.337L152.174 185.335C152.172 185.336 152.17 185.338 152.167 185.34C152.16 185.344 152.151 185.349 152.141 185.356L152.022 185.441L152.038 185.587C152.226 187.35 152.026 189.199 151.988 191.018C151.951 192.695 151.916 194.373 151.88 196.05C151.842 197.832 151.783 199.613 151.718 201.397C151.708 201.683 151.709 201.978 151.708 202.266C151.708 202.557 151.705 202.845 151.688 203.126L151.682 203.219L151.739 203.293C151.803 203.376 151.855 203.472 151.889 203.579L151.917 203.69C152.029 204.268 151.981 204.754 151.818 205.167C151.654 205.581 151.369 205.938 150.981 206.247C150.198 206.87 149.022 207.28 147.698 207.548C145.045 208.085 141.969 208.029 140.604 208.128C129.562 208.927 118.48 208.977 107.426 208.364C101.856 208.054 96.2971 207.572 90.7612 206.887C87.9928 206.545 85.2246 206.181 82.478 205.719C81.8908 205.62 81.2658 205.538 80.6372 205.45C80.0063 205.362 79.3682 205.267 78.7427 205.142C77.4886 204.892 76.3066 204.521 75.3608 203.852V203.851C75.2967 203.806 75.2428 203.672 75.2808 203.498C75.2979 203.42 75.3297 203.364 75.3579 203.334C75.3698 203.321 75.3791 203.315 75.3862 203.312L75.4028 203.31C76.1665 203.404 78.0086 203.539 79.8521 203.677C81.7052 203.817 83.5589 203.961 84.3677 204.073C87.6472 204.528 90.9337 204.932 94.228 205.267C100.805 205.937 107.402 206.401 114.013 206.584C120.527 206.763 127.051 206.676 133.559 206.377C136.867 206.225 140.173 206.009 143.472 205.73C144.496 205.644 145.863 205.655 147.091 205.437C148.332 205.217 149.531 204.752 150.24 203.649L150.288 203.575L150.279 203.487C150.227 203.022 150.235 202.527 150.257 202.032C150.279 201.544 150.316 201.043 150.316 200.597C150.315 198.925 150.328 197.254 150.352 195.581C150.376 193.896 150.306 192.127 150.295 190.397C150.285 188.657 150.335 186.935 150.596 185.294C150.621 185.139 150.681 185.026 150.754 184.944L150.84 184.847L150.811 184.721C150.758 184.489 150.801 184.253 150.998 184.053C151.993 183.041 153.04 182.078 154.089 181.11C154.511 180.722 154.899 180.348 155.053 179.91C155.2 179.493 155.125 179.064 154.825 178.573L154.682 178.358C154.453 178.038 154.134 177.753 153.818 177.498C153.488 177.231 153.182 177.011 152.913 176.779C151.769 175.794 150.421 174.832 149.186 173.841C147.937 172.837 146.776 171.782 145.933 170.564C145.877 170.484 145.868 170.419 145.875 170.372C145.881 170.321 145.908 170.267 145.958 170.219C146.065 170.116 146.234 170.075 146.374 170.132C147.642 170.651 148.788 171.527 149.912 172.452L150.394 172.848L150.319 172.229C150.12 170.579 150.227 168.864 150.258 167.192C150.301 164.903 150.375 162.614 150.476 160.325C150.576 158.055 150.666 155.789 150.856 153.533C151.053 151.209 151.075 148.649 151.84 146.513V146.512C151.846 146.496 151.861 146.475 151.888 146.456C151.916 146.436 151.95 146.424 151.979 146.421C152.005 146.418 152.017 146.423 152.02 146.425Z" fill="#6E7881" stroke="#ECF6EF" stroke-width="0.5"/>
<path d="M139.34 168.649C136.854 165.86 95.8518 184.496 91.1639 189.366C86.4749 194.237 147.47 194.976 146.621 191.536C145.771 188.096 120.379 184.666 120.379 184.666C120.379 184.666 141.826 171.437 139.34 168.649Z" fill="#ECF6EF"/>
<path d="M86.1596 170.409C86.1596 170.409 91.9098 177.667 97.0816 177.371C102.253 177.076 135.186 164.274 133.49 160.86C131.795 157.445 98.4111 166.138 98.4111 166.138C98.4111 166.138 83.784 161.156 82.8773 162.043C81.9706 162.931 81.6316 164.065 86.1596 170.409Z" fill="#ECF6EF"/>
<path d="M164.617 147.433C164.617 147.433 156.104 151.798 128.639 155.99C97.9099 160.679 78.2119 153.143 76.3535 150.447C76.0584 150.018 75.8803 149.411 75.7912 148.69C75.3116 144.888 77.2773 137.979 77.2773 137.979C77.2773 137.979 81.2324 142.509 106.009 144.097C108.467 144.256 110.97 144.313 113.49 144.288C136.358 144.072 160.484 137.001 163.345 134.568C164.458 139.809 164.617 147.433 164.617 147.433Z" fill="#ECF6EF"/>
<path d="M164.618 147.433C164.618 147.433 156.104 151.798 128.64 155.99C97.9105 160.679 78.2124 153.143 76.354 150.447C76.0589 150.018 75.8808 149.411 75.7917 148.69L76.09 148.671C76.09 148.671 76.471 148.88 77.2274 149.217C81.7286 151.228 99.4727 157.784 128.932 151.983C109.984 151.983 106.468 150.792 109.707 149.48C112.947 148.171 131.714 147.327 131.437 147.113C131.228 146.951 119.7 146.167 113.489 144.286C136.357 144.07 160.483 136.999 163.345 134.565C164.459 139.809 164.618 147.433 164.618 147.433Z" fill="#ECF6EF"/>
<path d="M164.028 135.646C164.128 137.85 164.324 141.937 164.406 145.621L164.436 147.256C164.437 147.374 164.407 147.506 164.347 147.681C164.323 147.752 164.284 147.852 164.245 147.958L164.137 148.281C164.014 148.707 163.572 149.165 162.775 149.625C161.998 150.074 160.984 150.47 159.897 150.818C158.813 151.165 157.678 151.458 156.667 151.71C155.669 151.959 154.768 152.174 154.191 152.357C150.925 153.392 147.62 154.298 144.284 155.088C132.236 157.944 119.849 159.157 107.474 158.707C96.4019 158.304 84.3056 156.613 75.4963 149.61H75.4954C75.4312 149.559 75.4132 149.509 75.4104 149.458C75.4069 149.395 75.429 149.309 75.4856 149.226C75.5422 149.143 75.6131 149.093 75.6702 149.075C75.7148 149.06 75.7641 149.059 75.8333 149.1C81.2771 152.367 87.2219 154.492 93.4495 155.625C104.864 157.703 116.893 157.492 128.345 156.15C134.346 155.447 140.309 154.358 146.164 152.856C148.943 152.144 151.859 151.627 154.656 150.714H154.657C157.409 149.816 160.437 149.066 163.103 147.617L163.346 147.485L163.363 147.208C163.481 145.311 163.6 143.41 163.52 141.473C163.503 141.073 163.474 140.617 163.443 140.142C163.412 139.665 163.379 139.166 163.356 138.667C163.31 137.683 163.303 136.737 163.405 136.01C163.422 135.99 163.452 135.96 163.499 135.923C163.608 135.838 163.762 135.751 163.922 135.686C163.96 135.671 163.995 135.657 164.028 135.646Z" fill="#6E7881" stroke="white"/>
</svg>
