<svg width="106" height="66" viewBox="0 0 106 66" fill="none" xmlns="http://www.w3.org/2000/svg">
<path d="M104.164 37.2023C104.774 25.161 98.0989 14.0417 87.623 9.13582C83.9635 7.4221 79.8078 5.97859 76.005 5.8424C66.2219 5.49177 53.9931 10.0506 46.0999 11.6873C38.2068 13.3239 26.3114 6.66072 17.1953 9.11553C8.07931 11.5704 -2.02785 25.7703 1.80093 41.1452C5.62971 56.52 15.4029 63.7063 25.2972 64.6414C35.1915 65.5765 46.6473 56.133 54.7115 57.4648C62.7757 58.7966 65.2215 65.9272 81.0078 65.5766C96.794 65.226 103.242 51.0814 104.131 37.7552C104.144 37.5701 104.154 37.3858 104.164 37.2023Z" fill="#E09F75"/>
<path opacity="0.8" d="M104.164 37.2023C104.774 25.161 98.0989 14.0417 87.623 9.13582C83.9635 7.4221 79.8078 5.97859 76.005 5.8424C66.2219 5.49177 53.9931 10.0506 46.0999 11.6873C38.2068 13.3239 26.3114 6.66072 17.1953 9.11553C8.07931 11.5704 -2.02785 25.7703 1.80093 41.1452C5.62971 56.52 15.4029 63.7063 25.2972 64.6414C35.1915 65.5765 46.6473 56.133 54.7115 57.4648C62.7757 58.7966 65.2215 65.9272 81.0078 65.5766C96.794 65.226 103.242 51.0814 104.131 37.7552C104.144 37.5701 104.154 37.3858 104.164 37.2023Z" fill="white"/>
<path d="M103.878 63.4341V61.8639L103.489 61.9692L101.352 61.3896L99.2137 61.9692L97.0762 61.3896L94.939 61.9692L92.8016 61.3896L90.6635 61.9692L88.5259 61.3896L86.3886 61.9692L84.2508 61.3896L82.113 61.9692L79.9755 61.3896L77.8377 61.9692L75.6998 61.3896L73.5622 61.9692L71.4243 61.3896L69.2865 61.9692L67.1487 61.3896L65.0106 61.9692L62.8728 61.3896L60.7345 61.9692L58.5967 61.3896L56.4585 61.9692L54.3205 61.3896L52.1825 61.9692L50.0444 61.3896L47.9063 61.9692L45.7682 61.3896L43.6298 61.9692L41.4915 61.3896L39.3535 61.9692L37.2152 61.3896L35.077 61.9692L32.9387 61.3896L30.8002 61.9692L28.6621 61.3896L26.5239 61.9692L24.3858 61.3896L22.2478 61.9692L20.1096 61.3896L17.9709 61.9692L15.8327 61.3896L13.6941 61.9692L11.5556 61.3896L9.4168 61.9692L7.27856 61.3896L5.13974 61.9692L3.00136 61.3896L2.10596 61.6322V63.4341H103.878Z" fill="#E09F75"/>
<path d="M10.7734 10.486H20.2837C20.2837 10.486 20.4797 9.76697 19.9568 9.44025C19.4339 9.11339 19.3032 9.50559 18.715 9.37491C18.715 9.37491 17.1463 6.95646 15.9043 7.08714C15.7065 7.10801 15.5419 7.14872 15.4031 7.20537" stroke="#263238" stroke-width="0.182019" stroke-miterlimit="10" stroke-linecap="round" stroke-linejoin="round"/>
<path d="M14.8562 7.64746C14.6143 7.99896 14.5212 8.45564 14.2686 8.85248C13.8111 9.57141 13.0922 8.52562 12.3731 8.78714C11.654 9.04866 11.9155 9.50607 11.458 9.70225C11.0004 9.89842 9.95464 8.85248 9.56243 9.17935C9.17022 9.50621 9.03954 10.0291 8.77802 10.1598C8.51664 10.2905 7.99374 9.83293 7.73222 10.1598C7.4707 10.4867 7.4707 10.4867 7.4707 10.4867H10.1271" stroke="#263238" stroke-width="0.182019" stroke-miterlimit="10" stroke-linecap="round" stroke-linejoin="round"/>
<path d="M91.0839 12.6183C90.8531 12.5281 90.6126 12.4692 90.372 12.5567C89.6529 12.8181 89.9144 13.2756 89.4569 13.4718C88.9993 13.668 87.9535 12.622 87.5613 12.9489C87.1691 13.2758 87.0384 13.7986 86.7769 13.9293C86.5154 14.06 85.9925 13.6025 85.7311 13.9293C85.4697 14.2562 85.4697 14.2562 85.4697 14.2562H93.0479" stroke="#263238" stroke-width="0.182019" stroke-miterlimit="10" stroke-linecap="round" stroke-linejoin="round"/>
<path d="M95.2528 11.4498C94.8175 11.0811 94.3403 10.8117 93.9033 10.8576C92.6613 10.9883 92.7268 11.9034 92.2693 12.6224C92.1932 12.742 92.1098 12.8127 92.0205 12.8488" stroke="#263238" stroke-width="0.182019" stroke-miterlimit="10" stroke-linecap="round" stroke-linejoin="round"/>
<path d="M93.7734 14.2564H98.2809C98.2809 14.2564 98.4769 13.5375 97.954 13.2106C97.4311 12.8837 97.3004 13.2759 96.712 13.1452C96.712 13.1452 96.3119 12.5283 95.7558 11.9346" stroke="#263238" stroke-width="0.182019" stroke-miterlimit="10" stroke-linecap="round" stroke-linejoin="round"/>
<path d="M35.4382 3.3205C35.1219 3.23038 34.7982 3.20097 34.4745 3.31862C33.1798 3.78936 33.6507 4.61333 32.8267 4.96627C32.0029 5.31936 30.1198 3.43627 29.4136 4.0248C28.7075 4.61333 28.472 5.5548 28.0013 5.79024C27.5306 6.02568 26.5889 5.20171 26.1182 5.79024C25.6475 6.37877 25.6475 6.37877 25.6475 6.37877H39.5496" stroke="#263238" stroke-width="0.182019" stroke-miterlimit="10" stroke-linecap="round" stroke-linejoin="round"/>
<path d="M40.3558 6.37923H48.7155C48.7155 6.37923 49.0686 5.08452 48.127 4.49614C47.1855 3.90761 46.95 4.61379 45.8908 4.37849C45.8908 4.37849 43.0661 0.0237731 40.8299 0.259214C38.5937 0.494655 38.7113 2.14231 37.8875 3.43702C37.4316 4.15348 36.8314 3.89674 36.167 3.60422" stroke="#263238" stroke-width="0.182019" stroke-miterlimit="10" stroke-linecap="round" stroke-linejoin="round"/>
<path d="M18.3375 30.1149V14.7288H16.7057V13.1426H11.8101V14.4115H10.5278V40.7425H7.03115V45.3425H4.81641" stroke="#263238" stroke-width="0.182019" stroke-miterlimit="10"/>
<path d="M34.1891 32.1773V20.2806H30.8089V23.1358H29.1771V19.0117H25.5637V36.7772H22.5331V43.122H20.0853V33.2876H18.3369V31.2255" stroke="#263238" stroke-width="0.182019" stroke-miterlimit="10"/>
<path d="M46.8947 24.2461V45.3426H44.9131V32.9702H42.1156V43.4392H34.1895V34.0806" stroke="#263238" stroke-width="0.182019" stroke-miterlimit="10"/>
<path d="M53.0712 39.7902V13.7764H46.8936V22.5004" stroke="#263238" stroke-width="0.182019" stroke-miterlimit="10"/>
<path d="M65.0775 32.1764V35.1902H63.3292V21.5488H56.3355V42.6454H53.0718V40.5833" stroke="#263238" stroke-width="0.182019" stroke-miterlimit="10"/>
<path d="M72.6537 45.3428H70.0894V25.6738H65.0771V30.5911" stroke="#263238" stroke-width="0.182019" stroke-miterlimit="10"/>
<path d="M105.568 37.7333C107.876 49.4358 100.625 44.5616 94.528 44.5616C88.4305 44.5616 80.7043 48.5303 83.4877 37.7333C85.0782 31.5641 88.4305 27.707 94.528 27.707C100.625 27.707 104.595 32.7984 105.568 37.7333Z" fill="#E09F75"/>
<path opacity="0.3" d="M105.568 37.7333C107.876 49.4358 100.625 44.5616 94.528 44.5616C88.4305 44.5616 80.7043 48.5303 83.4877 37.7333C85.0782 31.5641 88.4305 27.707 94.528 27.707C100.625 27.707 104.595 32.7984 105.568 37.7333Z" fill="white"/>
<path d="M91.0487 43.5002L94.0222 45.7694L93.7176 63.3032H95.5144L95.1692 42.048L99.4217 37.3706L95.1178 41.0484L94.9613 34.084L94.4918 38.8574L93.385 38.0546L90.9704 34.6318L92.5225 37.7431L87.5273 35.7273L92.6182 38.604L94.2936 39.7651L94.1006 44.8304L91.0487 43.5002Z" fill="#A1A1A1"/>
<path d="M92.7242 32.1309C92.7242 32.1309 92.5614 32.8848 92.8998 33.5103C93.2383 34.1359 93.7009 34.5515 93.7009 34.5515C93.7009 34.5515 94.0368 33.3615 92.7242 32.1309Z" fill="white"/>
<path d="M86.4038 38.7904C86.4038 38.7904 86.9852 39.2974 87.6965 39.3033C88.4076 39.3094 88.9951 39.1051 88.9951 39.1051C88.9951 39.1051 88.1154 38.2359 86.4038 38.7904Z" fill="white"/>
<path d="M85.5176 41.9152C85.5176 41.9152 86.2233 42.2268 86.9041 42.0214C87.5851 41.8161 88.0854 41.4468 88.0854 41.4468C88.0854 41.4468 86.9876 40.8777 85.5176 41.9152Z" fill="white"/>
<path d="M89.7324 42.2408C89.7324 42.2408 90.5038 42.2305 91.0376 41.7605C91.5713 41.2905 91.8727 40.7464 91.8727 40.7464C91.8727 40.7464 90.6375 40.6857 89.7324 42.2408Z" fill="white"/>
<path d="M87.9541 32.9102C87.9541 32.9102 88.129 33.6615 88.7023 34.0824C89.2756 34.5033 89.8715 34.6814 89.8715 34.6814C89.8715 34.6814 89.6667 33.4617 87.9541 32.9102Z" fill="white"/>
<path d="M100.53 32.3535C100.53 32.3535 99.7658 32.4617 99.2962 32.9958C98.8265 33.5299 98.5967 34.1077 98.5967 34.1077C98.5967 34.1077 99.8295 34.011 100.53 32.3535Z" fill="white"/>
<path d="M103.177 36.322C103.177 36.322 102.423 36.1598 101.798 36.4987C101.173 36.8376 100.757 37.3007 100.757 37.3007C100.757 37.3007 101.948 37.6357 103.177 36.322Z" fill="white"/>
<path d="M102.918 40.8308C102.918 40.8308 102.374 40.2836 101.665 40.2269C100.956 40.1701 100.355 40.332 100.355 40.332C100.355 40.332 101.171 41.2617 102.918 40.8308Z" fill="white"/>
<path d="M99.9647 43.2494C99.9647 43.2494 99.6516 42.5444 99.0095 42.2387C98.3673 41.933 97.7485 41.8701 97.7485 41.8701C97.7485 41.8701 98.179 43.0295 99.9647 43.2494Z" fill="white"/>
<path d="M98.4087 35.9346C98.4087 35.9346 97.6448 36.0428 97.1751 36.5769C96.7054 37.1109 96.4756 37.6889 96.4756 37.6889C96.4756 37.6889 97.7086 37.5919 98.4087 35.9346Z" fill="white"/>
<path d="M85.895 34.9404C85.895 34.9404 86.2349 35.633 86.8884 35.9136C87.5418 36.1944 88.1625 36.2334 88.1625 36.2334C88.1625 36.2334 87.6878 35.0915 85.895 34.9404Z" fill="white"/>
<path d="M96.7868 31.29C96.7868 31.29 96.1684 31.7512 96.0124 32.4451C95.8563 33.1389 95.9318 33.7563 95.9318 33.7563C95.9318 33.7563 96.9673 33.0801 96.7868 31.29Z" fill="white"/>
<path d="M94.454 29.1084C94.454 29.1084 94.1029 29.7953 94.2694 30.4869C94.4357 31.1784 94.7762 31.6988 94.7762 31.6988C94.7762 31.6988 95.4066 30.6346 94.454 29.1084Z" fill="white"/>
<path d="M89.4067 29.8428C89.4067 29.8428 89.4067 30.6142 89.8697 31.1541C90.3324 31.6941 90.8724 32.0027 90.8724 32.0027C90.8724 32.0027 90.9496 30.7685 89.4067 29.8428Z" fill="white"/>
<path d="M25.0653 37.7333C27.3732 49.4358 20.1224 44.5616 14.025 44.5616C7.92762 44.5616 0.201387 48.5303 2.98481 37.7333C4.57523 31.5641 7.92762 27.707 14.025 27.707C20.1224 27.707 24.0919 32.7984 25.0653 37.7333Z" fill="#E09F75"/>
<path opacity="0.3" d="M25.0653 37.7333C27.3732 49.4358 20.1224 44.5616 14.025 44.5616C7.92762 44.5616 0.201387 48.5303 2.98481 37.7333C4.57523 31.5641 7.92762 27.707 14.025 27.707C20.1224 27.707 24.0919 32.7984 25.0653 37.7333Z" fill="white"/>
<path d="M10.5457 43.5002L13.5194 45.7694L13.2148 63.3032H15.0114L14.6663 42.048L18.9187 37.3706L14.6149 41.0484L14.4584 34.084L13.9888 38.8574L12.8822 38.0546L10.4675 34.6318L12.0197 37.7431L7.02441 35.7273L12.1153 38.604L13.7908 39.7651L13.5976 44.8304L10.5457 43.5002Z" fill="#A1A1A1"/>
<path d="M12.2218 32.1309C12.2218 32.1309 12.0589 32.8848 12.3974 33.5103C12.7358 34.1359 13.1985 34.5515 13.1985 34.5515C13.1985 34.5515 13.5345 33.3615 12.2218 32.1309Z" fill="white"/>
<path d="M5.90137 38.7904C5.90137 38.7904 6.4828 39.2974 7.19405 39.3033C7.90515 39.3094 8.49267 39.1051 8.49267 39.1051C8.49267 39.1051 7.61306 38.2359 5.90137 38.7904Z" fill="white"/>
<path d="M5.01514 41.9152C5.01514 41.9152 5.72088 42.2268 6.4017 42.0214C7.08267 41.8161 7.58296 41.4468 7.58296 41.4468C7.58296 41.4468 6.48501 40.8777 5.01514 41.9152Z" fill="white"/>
<path d="M9.22998 42.2408C9.22998 42.2408 10.0014 42.2305 10.5351 41.7605C11.0689 41.2905 11.3702 40.7464 11.3702 40.7464C11.3702 40.7464 10.1351 40.6857 9.22998 42.2408Z" fill="white"/>
<path d="M7.45166 32.9102C7.45166 32.9102 7.62654 33.6615 8.19986 34.0824C8.77317 34.5033 9.36909 34.6814 9.36909 34.6814C9.36909 34.6814 9.16422 33.4617 7.45166 32.9102Z" fill="white"/>
<path d="M20.0273 32.3535C20.0273 32.3535 19.2635 32.4617 18.7938 32.9958C18.324 33.5299 18.0942 34.1077 18.0942 34.1077C18.0942 34.1077 19.3272 34.011 20.0273 32.3535Z" fill="white"/>
<path d="M22.6733 36.322C22.6733 36.322 21.9192 36.1598 21.2938 36.4987C20.6687 36.8376 20.2534 37.3007 20.2534 37.3007C20.2534 37.3007 21.444 37.6357 22.6733 36.322Z" fill="white"/>
<path d="M22.4152 40.8308C22.4152 40.8308 21.8714 40.2836 21.1625 40.2269C20.4536 40.1701 19.853 40.332 19.853 40.332C19.853 40.332 20.6683 41.2617 22.4152 40.8308Z" fill="white"/>
<path d="M19.4623 43.2494C19.4623 43.2494 19.1492 42.5444 18.507 42.2387C17.8649 41.933 17.2461 41.8701 17.2461 41.8701C17.2461 41.8701 17.6766 43.0295 19.4623 43.2494Z" fill="white"/>
<path d="M17.9062 35.9346C17.9062 35.9346 17.1424 36.0428 16.6727 36.5769C16.2029 37.1109 15.9731 37.6889 15.9731 37.6889C15.9731 37.6889 17.2061 37.5919 17.9062 35.9346Z" fill="white"/>
<path d="M5.39258 34.9404C5.39258 34.9404 5.73248 35.633 6.38592 35.9136C7.03936 36.1944 7.66006 36.2334 7.66006 36.2334C7.66006 36.2334 7.18555 35.0915 5.39258 34.9404Z" fill="white"/>
<path d="M16.2844 31.291C16.2844 31.291 15.666 31.7522 15.5099 32.4461C15.3539 33.1399 15.4294 33.7573 15.4294 33.7573C15.4294 33.7573 16.4649 33.0811 16.2844 31.291Z" fill="white"/>
<path d="M13.9516 29.1084C13.9516 29.1084 13.6005 29.7953 13.767 30.4869C13.9333 31.1784 14.2738 31.6988 14.2738 31.6988C14.2738 31.6988 14.9042 30.6346 13.9516 29.1084Z" fill="white"/>
<path d="M8.9043 29.8428C8.9043 29.8428 8.9043 30.6142 9.36721 31.1541C9.82998 31.6941 10.37 32.0027 10.37 32.0027C10.37 32.0027 10.4472 30.7685 8.9043 29.8428Z" fill="white"/>
<path d="M91.9714 23.2725C94.9515 38.3834 85.589 32.0895 77.7159 32.0895C69.8427 32.0895 59.8663 37.2141 63.4603 23.2725C65.514 15.3065 69.8427 10.3262 77.7159 10.3262C85.589 10.326 90.7147 16.9003 91.9714 23.2725Z" fill="#E09F75"/>
<path opacity="0.3" d="M91.9714 23.2725C94.9515 38.3834 85.589 32.0895 77.7159 32.0895C69.8427 32.0895 59.8663 37.2141 63.4603 23.2725C65.514 15.3065 69.8427 10.3262 77.7159 10.3262C85.589 10.326 90.7147 16.9003 91.9714 23.2725Z" fill="white"/>
<path d="M73.2226 30.7179L77.0623 33.6482L76.6689 63.2832H78.9888L78.5433 28.8429L84.0342 22.8033L78.4768 27.5523L78.2748 18.5596L77.6685 24.7231L76.2394 23.6865L73.1216 19.2668L75.1257 23.2842L68.6758 20.6814L75.2493 24.3959L77.4126 25.8952L77.1632 32.4357L73.2226 30.7179Z" fill="#A1A1A1"/>
<path d="M75.3871 16.0381C75.3871 16.0381 75.1767 17.0117 75.6136 17.8195C76.0506 18.6272 76.648 19.1639 76.648 19.1639C76.648 19.1639 77.0819 17.6271 75.3871 16.0381Z" fill="white"/>
<path d="M67.2246 24.6372C67.2246 24.6372 67.9754 25.2918 68.8937 25.2995C69.812 25.3072 70.5706 25.0436 70.5706 25.0436C70.5706 25.0436 69.4349 23.9212 67.2246 24.6372Z" fill="white"/>
<path d="M66.0825 28.6712C66.0825 28.6712 66.9937 29.0736 67.873 28.8084C68.7523 28.5433 69.3984 28.0663 69.3984 28.0663C69.3984 28.0663 67.9805 27.3315 66.0825 28.6712Z" fill="white"/>
<path d="M71.5234 29.092C71.5234 29.092 72.5194 29.0787 73.2086 28.4719C73.8978 27.8649 74.287 27.1625 74.287 27.1625C74.287 27.1625 72.6921 27.084 71.5234 29.092Z" fill="white"/>
<path d="M69.2285 17.0439C69.2285 17.0439 69.4544 18.0141 70.1946 18.5576C70.9348 19.101 71.7043 19.331 71.7043 19.331C71.7043 19.331 71.4399 17.7564 69.2285 17.0439Z" fill="white"/>
<path d="M85.4662 16.3242C85.4662 16.3242 84.4799 16.464 83.8734 17.1536C83.2669 17.8431 82.9702 18.5894 82.9702 18.5894C82.9702 18.5894 84.5621 18.4643 85.4662 16.3242Z" fill="white"/>
<path d="M88.8844 21.4495C88.8844 21.4495 87.9106 21.24 87.1033 21.6777C86.296 22.1154 85.7598 22.7132 85.7598 22.7132C85.7598 22.7132 87.2969 23.1457 88.8844 21.4495Z" fill="white"/>
<path d="M88.5505 27.271C88.5505 27.271 87.8484 26.5645 86.933 26.4912C86.0176 26.4179 85.2422 26.6268 85.2422 26.6268C85.2422 26.6268 86.2949 27.8275 88.5505 27.271Z" fill="white"/>
<path d="M84.7365 30.3944C84.7365 30.3944 84.3323 29.4841 83.5031 29.0892C82.6739 28.6946 81.875 28.6133 81.875 28.6133C81.875 28.6133 82.4306 30.1105 84.7365 30.3944Z" fill="white"/>
<path d="M82.7298 20.9492C82.7298 20.9492 81.7436 21.0889 81.1371 21.7786C80.5306 22.4681 80.2339 23.2144 80.2339 23.2144C80.2339 23.2144 81.8258 23.0893 82.7298 20.9492Z" fill="white"/>
<path d="M66.5728 19.665C66.5728 19.665 67.0118 20.5591 67.8554 20.9218C68.6993 21.2843 69.5006 21.3347 69.5006 21.3347C69.5006 21.3347 68.8878 19.8602 66.5728 19.665Z" fill="white"/>
<path d="M80.6349 14.9531C80.6349 14.9531 79.8365 15.5486 79.6349 16.4446C79.4334 17.3406 79.5309 18.1377 79.5309 18.1377C79.5309 18.1377 80.8679 17.2646 80.6349 14.9531Z" fill="white"/>
<path d="M77.6214 12.1348C77.6214 12.1348 77.1681 13.0218 77.383 13.9146C77.5979 14.8073 78.0375 15.4795 78.0375 15.4795C78.0375 15.4795 78.8513 14.1057 77.6214 12.1348Z" fill="white"/>
<path d="M71.103 13.082C71.103 13.082 71.103 14.0781 71.7007 14.7753C72.2983 15.4725 72.9955 15.871 72.9955 15.871C72.9955 15.871 73.0952 14.2773 71.103 13.082Z" fill="white"/>
<path d="M101.785 57.2871H103.847V58.5666H101.785" fill="white"/>
<path d="M101.785 57.2871H103.847V58.5666H101.785" stroke="#263238" stroke-width="0.182019" stroke-miterlimit="10"/>
<path d="M68.1499 57.2871H37.1934V58.5665H68.1499V57.2871Z" fill="white" stroke="#263238" stroke-width="0.182019" stroke-miterlimit="10"/>
<path d="M3.55554 57.2871H2.03857V58.5666H3.55554" fill="white"/>
<path d="M3.55554 57.2871H2.03857V58.5666H3.55554" stroke="#263238" stroke-width="0.182019" stroke-miterlimit="10"/>
<path d="M35.852 57.2871H4.89551V58.5665H35.852V57.2871Z" fill="white" stroke="#263238" stroke-width="0.182019" stroke-miterlimit="10"/>
<path d="M100.443 57.2871H69.4883V58.5665H100.443V57.2871Z" fill="white" stroke="#263238" stroke-width="0.182019" stroke-miterlimit="10"/>
<path d="M101.785 53.7666H103.847V55.0459H101.785" fill="white"/>
<path d="M101.785 53.7666H103.847V55.0459H101.785" stroke="#263238" stroke-width="0.182019" stroke-miterlimit="10"/>
<path d="M68.1499 53.7666H37.1934V55.0459H68.1499V53.7666Z" fill="white" stroke="#263238" stroke-width="0.182019" stroke-miterlimit="10"/>
<path d="M3.55554 53.7666H2.03857V55.0459H3.55554" fill="white"/>
<path d="M3.55554 53.7666H2.03857V55.0459H3.55554" stroke="#263238" stroke-width="0.182019" stroke-miterlimit="10"/>
<path d="M35.852 53.7666H4.89551V55.0459H35.852V53.7666Z" fill="white" stroke="#263238" stroke-width="0.182019" stroke-miterlimit="10"/>
<path d="M100.443 53.7666H69.4883V55.0459H100.443V53.7666Z" fill="white" stroke="#263238" stroke-width="0.182019" stroke-miterlimit="10"/>
<path d="M101.785 52.8467H100.444V63.264H101.785V52.8467Z" fill="white" stroke="#263238" stroke-width="0.182019" stroke-miterlimit="10"/>
<path d="M69.4891 52.8467H68.1489V63.264H69.4891V52.8467Z" fill="white" stroke="#263238" stroke-width="0.182019" stroke-miterlimit="10"/>
<path d="M37.1913 52.8467H35.8511V63.264H37.1913V52.8467Z" fill="white" stroke="#263238" stroke-width="0.182019" stroke-miterlimit="10"/>
<path d="M4.89635 52.8467H3.55615V63.264H4.89635V52.8467Z" fill="white" stroke="#263238" stroke-width="0.182019" stroke-miterlimit="10"/>
<path d="M8.87939 57.2059C8.87939 57.2059 10.8681 58.5318 11.0449 58.576C11.2216 58.6202 13.3871 58.576 13.3871 58.576V57.9573L32.3021 56.9851L88.7375 56.2781C88.7375 56.2781 88.8259 53.0519 87.3233 50.4887C85.8207 47.9255 83.0807 45.981 80.0755 45.7158C77.0704 45.4507 73.4023 46.3787 71.5903 47.9697C69.7784 49.5607 68.099 55.792 68.099 55.792L33.4068 56.2339C33.4068 56.2339 32.4787 51.2401 29.2085 48.5442C25.9381 45.8484 21.342 45.2296 17.2762 46.4671C13.2103 47.7046 12.0171 55.6594 12.0171 55.6594L8.87939 57.2059Z" fill="#263238" stroke="#263238" stroke-width="0.182019" stroke-miterlimit="10"/>
<path d="M98.2138 48.2651C97.6114 47.0602 97.4908 44.8913 97.4908 44.0479C97.4908 43.2045 97.6113 42.0597 97.6113 42.0597C97.6113 42.0597 98.2138 41.2164 97.6113 40.0716C97.0089 38.927 96.4065 38.8065 96.4065 38.8065L91.4663 33.565C91.4663 33.565 92.9724 32.6614 92.852 32.4204C92.7314 32.1795 92.3098 32.1795 92.3098 32.1795L85.0802 31.7577C85.0802 31.7577 73.9949 31.336 68.0908 31.2156C62.1867 31.095 50.5592 30.9746 50.5592 30.9746C50.5592 30.9746 49.2338 31.0349 48.2096 31.3964C47.1854 31.7579 32.3046 39.8308 31.401 40.132C30.4973 40.4333 18.6288 40.9153 16.0985 41.3369C13.5682 41.7587 11.0379 42.7827 10.4353 43.5057C9.83285 44.2287 8.26648 49.7713 8.14594 50.5545C8.02539 51.3377 7.90499 56.0971 7.96526 56.5791C8.02554 57.0612 8.5677 57.3021 8.5677 57.3021H13.0259C13.0259 57.3021 13.0893 56.9851 13.2087 56.4747C13.201 56.3194 13.1968 56.163 13.1968 56.0058C13.1968 50.8687 17.3613 46.7042 22.4984 46.7042C27.6355 46.7042 31.8 50.8687 31.8 56.0058C31.8 56.4771 31.7642 56.9401 31.6966 57.3927C31.7 57.4109 31.7022 57.4228 31.7022 57.4228H69.1753C69.1753 57.4228 69.2541 56.8663 69.4474 56.0235C69.4474 56.0176 69.447 56.0118 69.447 56.006C69.447 50.8329 73.6404 46.6395 78.8135 46.6395C83.9863 46.6395 88.1799 50.8329 88.1799 56.006C88.1799 56.1981 88.1723 56.3885 88.161 56.5777C89.0972 56.5652 93.3415 56.4558 95.7439 55.495C98.455 54.4105 99.0575 53.5671 99.0575 51.8802C99.0572 50.193 98.8162 49.47 98.2138 48.2651Z" fill="#E09F75" stroke="#263238" stroke-width="0.182019" stroke-miterlimit="10"/>
<path opacity="0.24" d="M26.9644 44.4597C26.9644 44.4597 49.2921 43.4539 61.663 42.6493C74.0339 41.8448 78.4591 41.543 78.4591 41.543L29.4787 45.0631L26.9644 44.4597Z" fill="black"/>
<path d="M99.0546 51.6133C99.0542 51.5848 99.0536 51.5567 99.0529 51.5287C99.0521 51.4989 99.0511 51.4705 99.0503 51.4413C99.0494 51.4132 99.0487 51.3845 99.0476 51.357C99.0461 51.3125 99.0442 51.2685 99.042 51.2255C99.04 51.1846 99.0378 51.1446 99.0353 51.1048C99.0348 51.0951 99.0343 51.0848 99.0337 51.0751C99.0307 51.0283 99.0274 50.9825 99.0237 50.9371C99.0223 50.9183 99.0207 50.8996 99.0191 50.8811C99.0052 50.7197 98.9875 50.5671 98.9656 50.4219C98.0495 50.6811 95.5972 51.2389 95.19 51.2389C94.7039 51.2389 93.0246 52.4322 92.8036 52.5648C92.6115 52.6801 90.3166 52.8286 89.7196 52.8656C89.0455 50.5201 87.6368 48.4871 85.757 47.0304C85.4258 46.7518 85.0785 46.5004 84.7162 46.2893C84.5813 46.2108 84.4287 46.1296 84.2625 46.0478C82.645 45.1606 80.7883 44.6553 78.8132 44.6553C73.1998 44.6553 68.5413 48.7314 67.6285 54.0846L66.42 54.1558C66.42 54.1558 64.6964 53.5813 63.9452 53.4044C63.194 53.2276 40.5667 54.0231 39.5061 54.0231C38.4454 54.0231 34.8659 54.9511 34.8659 54.9511L33.2282 54.8692C32.6605 49.4442 28.0737 45.2154 22.4985 45.2154C17.195 45.2154 12.7884 49.043 11.8826 54.0857C11.6424 54.8712 11.5317 55.3931 11.5317 55.3931H8.83549L8.01239 52.8846V52.8851C8.01239 52.8856 8.01239 52.8859 8.01239 52.8863C8.01109 52.9222 8.00993 52.9584 8.00877 52.9945C8.00877 52.9968 8.00862 52.9993 8.00848 53.0016C8.00746 53.0338 8.0063 53.066 8.00529 53.0983C8.0037 53.1468 8.0021 53.1953 8.00065 53.244C7.99935 53.2844 7.99819 53.325 7.99689 53.3656C7.99573 53.4017 7.99471 53.4377 7.99355 53.4738C7.99211 53.5221 7.9908 53.5702 7.98935 53.6183C7.98805 53.6632 7.98689 53.7078 7.98559 53.7526C7.98457 53.7885 7.9837 53.8243 7.98269 53.8601C7.98153 53.9024 7.98051 53.9445 7.97936 53.9867C7.97907 54.0009 7.97863 54.0151 7.97834 54.0293C7.97747 54.0625 7.9766 54.0957 7.97588 54.1287C7.97515 54.1594 7.97443 54.1901 7.9737 54.2207C7.97226 54.2807 7.97095 54.3404 7.96965 54.3995C7.96907 54.4228 7.96863 54.4459 7.9682 54.4689C7.96733 54.5099 7.96646 54.5505 7.96574 54.5909C7.96559 54.6009 7.9653 54.6109 7.96516 54.6209C7.96458 54.6478 7.96414 54.6748 7.96356 54.7014C7.96255 54.7542 7.96153 54.8063 7.96067 54.8579C7.96023 54.8817 7.9598 54.9053 7.95936 54.9288C7.95835 54.9882 7.95733 55.047 7.95646 55.1045C7.95617 55.1228 7.95588 55.1409 7.95559 55.159C7.95487 55.2107 7.95415 55.2616 7.95357 55.3114C7.95342 55.3273 7.95313 55.3434 7.95299 55.3592C7.95241 55.4122 7.95183 55.464 7.95139 55.5147C7.95125 55.5306 7.9511 55.5467 7.95096 55.5625C7.95081 55.5852 7.95067 55.6065 7.95052 55.6289C7.95038 55.6599 7.95009 55.6916 7.9498 55.7214C7.9498 55.7323 7.94965 55.7429 7.94965 55.7537C7.94965 55.7669 7.94965 55.7792 7.94951 55.7923C7.94936 55.8308 7.94922 55.8694 7.94922 55.9056C7.94922 55.9073 7.94922 55.9092 7.94922 55.9111C7.94922 55.9388 7.94936 55.9638 7.94936 55.9902C7.94936 56.0106 7.94936 56.0321 7.94951 56.0518C7.94951 56.0618 7.94965 56.0718 7.94965 56.0816C7.9498 56.0987 7.94994 56.1139 7.95009 56.1303C7.95023 56.1551 7.95052 56.1807 7.95067 56.2039C7.95081 56.2114 7.95081 56.2187 7.95096 56.2259C7.95154 56.2649 7.95212 56.3021 7.95284 56.3359C7.95284 56.3363 7.95284 56.3366 7.95284 56.3371C7.95357 56.3711 7.95458 56.4014 7.95559 56.4298C7.95574 56.4349 7.95603 56.4402 7.95617 56.4451C7.95719 56.4715 7.95835 56.4951 7.9598 56.5157C7.96009 56.5195 7.96038 56.5228 7.96052 56.5264C7.96197 56.5467 7.96342 56.5648 7.96516 56.5784C8.02543 57.0605 8.5676 57.3014 8.5676 57.3014H11.789H13.0258C13.0258 57.3014 13.0892 56.9844 13.2086 56.474C13.2009 56.3187 13.1967 56.1623 13.1967 56.0051C13.1967 50.868 17.3612 46.7035 22.4983 46.7035C27.6354 46.7035 31.7999 50.868 31.7999 56.0051C31.7999 56.4764 31.7641 56.9394 31.6965 57.392C31.6999 57.4102 31.7021 57.4221 31.7021 57.4221H33.1924H67.5548H69.1752C69.1752 57.4221 69.254 56.8656 69.4473 56.0228C69.4473 56.0169 69.4468 56.0111 69.4468 56.0053C69.4468 50.8322 73.6403 46.6388 78.8133 46.6388C83.9862 46.6388 88.1798 50.8322 88.1798 56.0053C88.1798 56.1974 88.1722 56.3878 88.1609 56.577C88.4899 56.5726 89.2282 56.5561 90.1507 56.495C90.251 56.4883 90.3537 56.4811 90.458 56.4734C90.4696 56.4725 90.4814 56.4717 90.493 56.4708C90.7094 56.4546 90.9334 56.436 91.1633 56.4144C91.1668 56.4141 91.1703 56.4137 91.1738 56.4134C91.2787 56.4036 91.385 56.393 91.492 56.382C91.5151 56.3795 91.5383 56.377 91.5615 56.3746C91.6551 56.3647 91.7493 56.3543 91.8437 56.3434C91.8655 56.341 91.8872 56.3385 91.9091 56.3359C92.1361 56.3094 92.3656 56.2798 92.5954 56.2471C92.6257 56.2427 92.6558 56.2382 92.6861 56.2339C92.7712 56.2214 92.8562 56.2085 92.9411 56.1952C92.9741 56.19 93.0073 56.1848 93.0404 56.1796C93.1377 56.1638 93.2351 56.1474 93.3319 56.1304C93.348 56.1276 93.364 56.1251 93.38 56.1222C93.4914 56.1023 93.6022 56.0815 93.7125 56.0599C93.7419 56.0541 93.7712 56.048 93.8004 56.0421C93.8817 56.0257 93.9627 56.0089 94.043 55.9915C94.0785 55.9838 94.114 55.976 94.1492 55.9682C94.2296 55.9502 94.3091 55.9317 94.3881 55.9125C94.4162 55.9057 94.4447 55.8992 94.4727 55.8923C94.5772 55.8663 94.6805 55.8395 94.782 55.8117C94.8025 55.806 94.8222 55.8001 94.8423 55.7945C94.9237 55.7716 95.0041 55.7482 95.0833 55.724C95.1151 55.7143 95.1466 55.7043 95.178 55.6943C95.2479 55.6722 95.3167 55.6494 95.3845 55.6262C95.4132 55.6164 95.4421 55.6067 95.4705 55.5967C95.5637 55.5637 95.6553 55.5297 95.7437 55.4944C98.4548 54.4099 99.0572 53.5665 99.0572 51.8796C99.0571 51.7873 99.0561 51.6997 99.0546 51.6133Z" fill="#525252" stroke="#263238" stroke-width="0.182019" stroke-miterlimit="10"/>
<path d="M45.8589 32.6611H45.6792C41.1288 35.0328 32.0977 39.8989 31.3997 40.1316C31.2382 40.1855 30.7244 40.2452 29.9775 40.3093C30.971 40.9934 32.9289 41.3365 33.7494 41.3365C34.5928 41.3365 72.7888 39.7099 72.7888 39.7099C72.7888 39.7099 74.054 38.7459 74.054 38.4447C74.054 38.1435 69.1138 32.6611 69.1138 32.6611H45.8589Z" fill="#263238" stroke="#263238" stroke-width="0.182019" stroke-miterlimit="10"/>
<path d="M45.3396 32.8385C40.6948 35.2666 32.0807 39.9047 31.3997 40.1316C31.2382 40.1855 30.7244 40.2452 29.9775 40.3093C30.5435 40.699 31.4219 40.9776 32.2252 41.1457L45.8589 32.6611L45.3396 32.8385Z" fill="#525252" stroke="#263238" stroke-width="0.182019" stroke-miterlimit="10"/>
<path d="M48.21 33.2627C48.21 33.2627 38.3899 39.1066 37.9681 39.468C37.5463 39.8295 37.7271 40.191 38.0886 40.3114C38.4501 40.4318 53.8129 39.9499 53.8129 39.9499L54.8371 33.3228L48.21 33.2627Z" fill="#525252" stroke="#263238" stroke-width="0.182019" stroke-miterlimit="10"/>
<path d="M57.8488 33.4434L57.668 39.6487L70.5004 39.3475L71.4041 37.0581L68.5726 33.2627L57.8488 33.4434Z" fill="#525252" stroke="#263238" stroke-width="0.182019" stroke-miterlimit="10"/>
<path d="M40.2041 37.9835C40.2041 37.9835 40.0162 38.0962 39.1893 38.3218C38.3625 38.5472 37.3102 38.9982 37.1974 39.5245C37.0847 40.0507 37.1222 40.7647 37.6485 40.8399C38.1747 40.9151 40.8431 41.103 41.6324 40.7272C42.4216 40.3513 42.3089 39.5997 42.1962 38.9607C42.0835 38.3218 41.7076 38.1339 41.2566 38.0211C40.8054 37.9084 40.2041 37.9835 40.2041 37.9835Z" fill="#525252" stroke="#263238" stroke-width="0.182019" stroke-miterlimit="10"/>
<path d="M50.6315 42.7193C51.6175 42.7193 52.4168 42.5006 52.4168 42.2307C52.4168 41.9609 51.6175 41.7422 50.6315 41.7422C49.6455 41.7422 48.8462 41.9609 48.8462 42.2307C48.8462 42.5006 49.6455 42.7193 50.6315 42.7193Z" stroke="#263238" stroke-width="0.182019" stroke-miterlimit="10"/>
<path d="M71.943 41.9293C72.929 41.9293 73.7283 41.7105 73.7283 41.4407C73.7283 41.1709 72.929 40.9521 71.943 40.9521C70.957 40.9521 70.1577 41.1709 70.1577 41.4407C70.1577 41.7105 70.957 41.9293 71.943 41.9293Z" stroke="#263238" stroke-width="0.182019" stroke-miterlimit="10"/>
<path d="M75.3213 37.2949C76.2074 38.2816 76.8669 39.1157 76.895 39.4392C76.9834 40.4558 76.1438 44.8309 76.1438 44.8309" stroke="#263238" stroke-width="0.182019" stroke-miterlimit="10"/>
<path d="M70.4863 32.3691C70.4863 32.3691 72.7673 34.5543 74.6076 36.5196" stroke="#263238" stroke-width="0.182019" stroke-miterlimit="10"/>
<path d="M89.0811 46.0303C90.4359 45.0608 92.8472 43.1963 92.8472 43.1963" stroke="#263238" stroke-width="0.182019" stroke-miterlimit="10"/>
<path d="M86.1299 46.8634C86.1299 46.8634 87.8535 46.6866 88.207 46.5983C88.2704 46.5825 88.4602 46.4628 88.7292 46.2773" stroke="#263238" stroke-width="0.182019" stroke-miterlimit="10"/>
<path d="M55.2356 52.2129L55.1509 56.4985" stroke="#263238" stroke-width="0.182019" stroke-miterlimit="10"/>
<path d="M55.4207 42.8145L55.248 51.5485" stroke="#263238" stroke-width="0.182019" stroke-miterlimit="10"/>
<path d="M55.4594 40.8535L55.4326 42.2068" stroke="#263238" stroke-width="0.182019" stroke-miterlimit="10"/>
<path d="M67.4806 54.5527L35.0425 55.4807" stroke="#263238" stroke-width="0.182019" stroke-miterlimit="10"/>
<path d="M33.5303 44.6455C33.7688 47.9521 34.4681 56.9836 34.4681 56.9836" stroke="#263238" stroke-width="0.182019" stroke-miterlimit="10"/>
<path d="M33.8062 41.6934C33.8062 41.6934 33.4526 43.0634 33.4526 43.4611C33.4526 43.503 33.4639 43.6854 33.4839 43.9785" stroke="#263238" stroke-width="0.182019" stroke-miterlimit="10"/>
<path d="M10.3792 43.5805C9.90888 44.2924 8.97928 47.3376 8.47754 49.1903C8.95132 48.3773 9.9535 46.7291 10.5136 46.3337C11.2649 45.8034 16.9217 44.7869 17.4079 44.6101C17.894 44.4333 18.778 43.4168 18.9105 43.0191C19.0237 42.6792 12.3308 43.3716 10.3792 43.5805Z" fill="#263238" stroke="#263238" stroke-width="0.182019" stroke-miterlimit="10"/>
<path d="M18.9118 43.019C19.0251 42.6793 12.3322 43.3717 10.3806 43.5805C10.3806 43.5805 9.63107 45.8474 10.515 46.3336C11.2663 45.8033 16.9231 44.7868 17.4093 44.61C17.8954 44.4333 18.7792 43.4168 18.9118 43.019Z" fill="white" stroke="#263238" stroke-width="0.182019" stroke-miterlimit="10"/>
<path d="M10.2065 49.0732L10.3391 52.3436H9.72042C9.72042 52.3436 7.99047 49.2623 8.47975 49.1899C8.96903 49.1174 10.2065 49.0732 10.2065 49.0732Z" fill="#263238" stroke="#263238" stroke-width="0.182019" stroke-miterlimit="10"/>
<path d="M74.2432 33.207C74.2432 33.207 83.1704 39.2616 83.6123 39.2616C84.0542 39.2616 96.4072 38.805 96.4072 38.805L91.467 33.5636L74.2432 33.207Z" fill="#263238" stroke="#263238" stroke-width="0.182019" stroke-miterlimit="10"/>
<path d="M77.4243 34.2246C77.4243 34.2246 82.7718 38.4672 83.6998 38.5998C84.6278 38.7323 90.0195 38.423 90.0195 38.423C90.0195 38.423 86.7933 34.5781 86.3956 34.4898C85.998 34.4014 77.4243 34.2246 77.4243 34.2246Z" fill="#525252" stroke="#263238" stroke-width="0.182019" stroke-miterlimit="10"/>
<path d="M96.7368 40.543C96.7368 40.543 89.8867 40.7639 89.8867 40.9407C89.8867 41.1174 90.5938 42.0014 91.08 42.2224C91.5661 42.4433 92.3175 42.3549 92.4501 42.4875C92.5826 42.6201 94.483 44.6088 94.8365 44.8739C95.19 45.1391 96.2507 45.5368 96.4275 45.5368C96.4275 45.5368 96.8252 40.7639 96.7368 40.543Z" fill="#969696" stroke="#263238" stroke-width="0.182019" stroke-miterlimit="10"/>
<path d="M22.5 63.3047C26.531 63.3047 29.7988 60.0369 29.7988 56.0058C29.7988 51.9748 26.531 48.707 22.5 48.707C18.469 48.707 15.2012 51.9748 15.2012 56.0058C15.2012 60.0369 18.469 63.3047 22.5 63.3047Z" fill="#263238" stroke="#263238" stroke-width="0.182019" stroke-miterlimit="10"/>
<path d="M22.4996 50.5947C19.5108 50.5947 17.0879 53.0175 17.0879 56.0064C17.0879 58.9951 19.5107 61.4181 22.4996 61.4181C25.4883 61.4181 27.9112 58.9953 27.9112 56.0064C27.9112 53.0175 25.4884 50.5947 22.4996 50.5947ZM26.8801 54.4977L23.2972 55.4802L25.2502 52.2785C25.9973 52.8306 26.5716 53.602 26.8801 54.4977ZM21.9516 60.606C20.9985 60.4935 20.1346 60.0922 19.4488 59.4916L22.0585 56.9089L21.9516 60.606ZM22.9286 56.9248L25.7646 59.2927C25.1156 59.9375 24.2766 60.3902 23.3392 60.5619L22.9286 56.9248ZM23.6962 51.5301L22.5062 54.8864L21.2651 51.541C21.6583 51.4325 22.0719 51.3733 22.4996 51.3733C22.9135 51.3732 23.3144 51.4283 23.6962 51.5301ZM19.7157 52.3031L21.6189 55.3235L18.2203 54.2291C18.5398 53.4606 19.0599 52.7967 19.7157 52.3031ZM17.8688 55.9189L21.4288 56.2924L18.5511 58.4301C18.1173 57.7249 17.8667 56.895 17.8667 56.0062C17.8665 55.977 17.8682 55.9481 17.8688 55.9189ZM26.592 58.1785L23.582 56.3149L27.1291 55.8644C27.1306 55.9118 27.1327 55.9589 27.1327 56.0065C27.1326 56.7914 26.9367 57.5305 26.592 58.1785Z" fill="white" stroke="#263238" stroke-width="0.182019" stroke-miterlimit="10"/>
<path d="M22.5007 57.437C23.291 57.437 23.9316 56.7964 23.9316 56.0061C23.9316 55.2158 23.291 54.5752 22.5007 54.5752C21.7105 54.5752 21.0698 55.2158 21.0698 56.0061C21.0698 56.7964 21.7105 57.437 22.5007 57.437Z" fill="white" stroke="#263238" stroke-width="0.182019" stroke-miterlimit="10"/>
<path d="M78.8135 63.3047C82.8445 63.3047 86.1123 60.0369 86.1123 56.0058C86.1123 51.9748 82.8445 48.707 78.8135 48.707C74.7824 48.707 71.5146 51.9748 71.5146 56.0058C71.5146 60.0369 74.7824 63.3047 78.8135 63.3047Z" fill="#263238" stroke="#263238" stroke-width="0.182019" stroke-miterlimit="10"/>
<path d="M78.813 50.5947C75.8243 50.5947 73.4014 53.0175 73.4014 56.0064C73.4014 58.9951 75.8242 61.4181 78.813 61.4181C81.8018 61.4181 84.2247 58.9953 84.2247 56.0064C84.2247 53.0175 81.8018 50.5947 78.813 50.5947ZM83.1934 54.4977L79.6105 55.4802L81.5636 52.2785C82.3106 52.8306 82.8851 53.602 83.1934 54.4977ZM78.2651 60.606C77.312 60.4935 76.4481 60.0922 75.7623 59.4916L78.3719 56.9089L78.2651 60.606ZM79.242 56.9248L82.0781 59.2927C81.4291 59.9375 80.5901 60.3902 79.6527 60.5619L79.242 56.9248ZM80.0097 51.5301L78.8197 54.8864L77.5786 51.541C77.9718 51.4325 78.3853 51.3733 78.813 51.3733C79.2268 51.3732 79.6279 51.4283 80.0097 51.5301ZM76.029 52.3031L77.9323 55.3235L74.5337 54.2291C74.8533 53.4606 75.3733 52.7967 76.029 52.3031ZM74.1822 55.9189L77.7422 56.2924L74.8644 58.4301C74.4306 57.7249 74.18 56.895 74.18 56.0062C74.18 55.977 74.1816 55.9481 74.1822 55.9189ZM82.9054 58.1785L79.8952 56.3149L83.4423 55.8644C83.4438 55.9118 83.4459 55.9589 83.4459 56.0065C83.4461 56.7914 83.25 57.5305 82.9054 58.1785Z" fill="white" stroke="#263238" stroke-width="0.182019" stroke-miterlimit="10"/>
<path d="M78.8142 57.437C79.6045 57.437 80.2451 56.7964 80.2451 56.0061C80.2451 55.2158 79.6045 54.5752 78.8142 54.5752C78.0239 54.5752 77.3833 55.2158 77.3833 56.0061C77.3833 56.7964 78.0239 57.437 78.8142 57.437Z" fill="white" stroke="#263238" stroke-width="0.182019" stroke-miterlimit="10"/>
<path d="M51.7671 30.9635C51.7671 30.9635 53.7912 30.3887 54.7497 30.206C55.7083 30.0235 69.5393 29.9322 75.1995 30.206C80.8596 30.4799 83.1877 30.982 83.6898 31.119C84.192 31.2559 85.0803 31.7572 85.0803 31.7572L80.6245 31.5583C80.6245 31.5583 80.7684 31.119 80.4032 31.0733C80.0381 31.0277 70.9087 30.7995 70.4979 30.7995C70.0872 30.7995 70.0722 31.2337 70.0722 31.2337L68.091 31.215L67.3484 30.7082C67.3484 30.7082 56.2561 30.6169 55.9823 30.7538C55.7084 30.8908 55.7381 30.9857 55.7381 30.9857L51.7671 30.9635Z" fill="#263238" stroke="#263238" stroke-width="0.182019" stroke-miterlimit="10"/>
<path d="M2.03711 63.3027H103.845" stroke="#263238" stroke-width="0.182019" stroke-miterlimit="10" stroke-linecap="round" stroke-linejoin="round"/>
</svg>
