<svg width="328" height="328" viewBox="0 0 328 328" fill="none" xmlns="http://www.w3.org/2000/svg">
<path d="M304.71 74.4387C303.671 72.676 302.581 70.9468 301.438 69.2543C286.23 46.7233 260.064 31.3126 234.322 24.3459C223.049 21.2948 211.408 19.6955 199.743 19.2999C123.245 16.7068 92.7747 76.9984 67.4911 92.5574C42.2076 108.116 3.30942 134.696 5.90259 190.45C8.49575 246.203 48.6902 298.715 126.486 301.957C204.282 305.198 209.468 270.191 252.904 257.225C281.649 248.644 302.072 219.662 312.073 192.879C325.701 156.378 325.059 108.966 304.71 74.4387Z" fill="#C25E3E"/>
<path opacity="0.7" d="M304.71 74.4387C303.671 72.676 302.581 70.9468 301.438 69.2543C286.23 46.7233 260.064 31.3126 234.322 24.3459C223.049 21.2948 211.408 19.6955 199.743 19.2999C123.245 16.7068 92.7747 76.9984 67.4911 92.5574C42.2076 108.116 3.30942 134.696 5.90259 190.45C8.49575 246.203 48.6902 298.715 126.486 301.957C204.282 305.198 209.468 270.191 252.904 257.225C281.649 248.644 302.072 219.662 312.073 192.879C325.701 156.378 325.059 108.966 304.71 74.4387Z" fill="white"/>
<path d="M287.696 79.699V77.5368H247.769V45.5371H246.471V77.5368H206.832V79.699H246.471V109.323H206.832V111.485H246.471V141.11H206.832V143.272H246.471V174.4H247.769V143.272H287.696V141.11H247.769V111.485H287.696V109.323H247.769V79.699H287.696Z" fill="#263238" stroke="#263238" stroke-width="0.656" stroke-miterlimit="10"/>
<path d="M204.094 42.9424V177.859H290.146V42.9424H204.094ZM287.242 173.305H206.999V47.497H287.242V173.305Z" fill="#263238" stroke="#263238" stroke-width="0.656" stroke-miterlimit="10"/>
<path d="M166.621 212.491L166.622 212.487C166.635 212.454 166.619 212.417 166.587 212.403C166.553 212.388 166.514 212.404 166.5 212.437C164.512 217.028 163.114 221.848 161.947 226.71C160.82 231.584 160.005 236.53 159.435 241.506L159.079 245.246C159.024 245.87 158.956 246.493 158.911 247.118L158.809 248.994C158.755 250.246 158.678 251.497 158.643 252.75L158.677 256.508L158.719 258.387C158.747 259.012 158.792 259.637 158.835 260.262C158.929 261.511 159.006 262.761 159.12 264.007C159.359 266.499 159.734 268.977 160.12 271.445C160.124 271.476 160.152 271.501 160.185 271.501C160.221 271.501 160.251 271.471 160.251 271.434V271.431C160.244 270.178 160.191 268.932 160.164 267.685C160.128 266.44 160.019 265.2 160.036 263.953C160.042 262.708 160.01 261.465 159.996 260.223L159.961 258.36L159.994 256.497L160.011 252.773L160.113 249.05L160.151 247.188C160.175 246.567 160.221 245.949 160.256 245.328L160.484 241.608C160.92 236.658 161.6 231.725 162.592 226.85C163.579 221.98 164.804 217.128 166.621 212.491Z" fill="#263238"/>
<path d="M167.154 231.964C167.163 231.931 167.146 231.894 167.113 231.882C167.079 231.871 167.04 231.889 167.029 231.923C165.957 235.018 165.101 238.183 164.378 241.381C163.686 244.585 163.144 247.832 162.813 251.103C162.482 254.362 162.117 257.625 162.073 260.901C162.022 264.177 162.075 267.456 162.421 270.728C162.424 270.758 162.448 270.784 162.48 270.787C162.517 270.791 162.549 270.765 162.553 270.728C162.931 267.466 163.162 264.211 163.388 260.958C163.619 257.706 163.65 254.444 163.862 251.191C164.059 247.948 164.466 244.718 165.024 241.509C165.571 238.298 166.253 235.101 167.154 231.964Z" fill="#263238"/>
<path d="M177.95 238.815C177.931 238.784 177.89 238.775 177.86 238.795C175.157 240.505 172.747 242.66 170.641 245.088C169.605 246.32 168.643 247.611 167.818 249.013L167.238 250.108L166.784 251.245C166.621 251.623 166.506 252.011 166.388 252.399C166.271 252.786 166.141 253.173 166.036 253.564C165.225 256.693 164.688 259.881 164.542 263.087C164.412 266.29 164.473 269.498 164.901 272.679C164.905 272.709 164.93 272.734 164.962 272.736C164.998 272.739 165.03 272.711 165.033 272.675L165.855 263.18C166.183 260.041 166.384 256.884 167.058 253.818C167.144 253.436 167.253 253.063 167.35 252.685C167.447 252.307 167.542 251.926 167.683 251.567L168.068 250.469L168.564 249.433C169.296 248.061 170.19 246.749 171.151 245.505C173.079 243.017 175.347 240.749 177.929 238.908L177.933 238.905C177.962 238.884 177.969 238.844 177.95 238.815Z" fill="#263238"/>
<path d="M172.726 251.014C171.254 251.964 170.27 253.458 169.443 254.961C168.654 256.497 168.033 258.125 167.603 259.796C167.474 260.21 167.373 260.628 167.283 261.05L166.985 262.312C166.833 263.16 166.714 264.017 166.666 264.876C166.655 265.738 166.63 266.598 166.688 267.457C166.76 268.316 166.858 269.172 167.027 270.021C167.033 270.046 167.053 270.069 167.079 270.074C167.115 270.081 167.151 270.057 167.158 270.021C167.366 269.174 167.502 268.335 167.613 267.497C167.746 266.661 167.876 265.831 167.976 265C168.098 264.172 168.208 263.347 168.272 262.512C168.387 261.69 168.448 260.848 168.629 260.035C168.917 258.389 169.394 256.782 170.037 255.246C170.677 253.722 171.511 252.203 172.793 251.129L172.803 251.121C172.828 251.1 172.834 251.063 172.816 251.035C172.796 251.003 172.756 250.995 172.726 251.014Z" fill="#263238"/>
<path d="M157.584 260.525C157.229 256.31 156.534 252.137 155.877 247.966C155.217 243.794 154.491 239.636 153.728 235.485C152.938 231.338 152.111 227.2 151.218 223.077C151.21 223.042 151.176 223.019 151.142 223.025C151.106 223.032 151.082 223.066 151.088 223.102C151.81 227.257 152.463 231.424 153.079 235.594C153.711 239.762 154.307 243.935 154.834 248.115C155.349 252.297 155.751 256.489 156.275 260.663L157.816 273.21C157.82 273.241 157.846 273.267 157.879 273.268C157.915 273.27 157.946 273.242 157.948 273.205C157.996 272.148 157.997 271.091 158.023 270.031C158.032 268.972 157.98 267.917 157.961 266.858C157.923 264.74 157.742 262.634 157.584 260.525Z" fill="#263238"/>
<path d="M155.057 260.465C154.831 258.795 154.525 257.135 154.206 255.481L153.614 253.02C153.421 252.2 153.236 251.378 152.996 250.568C152.155 247.303 151.08 244.093 149.775 240.983L149.269 239.823L148.708 238.688C148.351 237.924 147.919 237.196 147.509 236.46C146.628 235.024 145.713 233.59 144.466 232.426C144.441 232.402 144.401 232.402 144.376 232.426C144.349 232.451 144.349 232.493 144.374 232.519L144.38 232.526C145.532 233.719 146.372 235.194 147.163 236.651C147.53 237.401 147.917 238.138 148.23 238.911L148.726 240.058L149.164 241.229C150.332 244.35 151.269 247.557 151.973 250.817C152.357 252.439 152.612 254.092 152.926 255.727L153.321 258.197C153.464 259.019 153.64 259.834 153.755 260.661C154.018 262.309 154.321 263.952 154.609 265.601C154.864 267.254 155.167 268.905 155.515 270.557C155.522 270.587 155.549 270.612 155.58 270.612C155.617 270.612 155.646 270.582 155.646 270.546C155.654 268.862 155.615 267.177 155.529 265.495C155.431 263.814 155.232 262.141 155.057 260.465Z" fill="#263238"/>
<path d="M151.568 260.678C150.787 258.467 149.883 256.302 148.899 254.179C147.889 252.068 146.798 249.997 145.542 248.025C145.522 247.997 145.483 247.986 145.453 248.003C145.421 248.022 145.411 248.062 145.43 248.094C146.527 250.142 147.454 252.28 148.295 254.441C149.151 256.596 149.922 258.784 150.568 261.006C151.228 263.226 151.699 265.49 152.29 267.719C152.912 269.948 153.413 272.199 154.099 274.456C154.107 274.483 154.132 274.504 154.162 274.505C154.199 274.506 154.229 274.476 154.229 274.439C154.263 272.085 154.031 269.732 153.573 267.427C153.16 265.108 152.345 262.889 151.568 260.678Z" fill="#263238"/>
<path d="M151.424 268.046C151.024 266.661 150.343 265.37 149.569 264.155C148.808 262.933 147.926 261.778 146.868 260.799C146.323 260.327 145.766 259.873 145.15 259.503C144.543 259.124 143.9 258.804 143.202 258.622C143.171 258.614 143.139 258.629 143.125 258.659C143.111 258.692 143.125 258.73 143.159 258.746L143.167 258.749C144.43 259.31 145.497 260.241 146.399 261.259C147.313 262.279 148.043 263.45 148.651 264.669C149.291 265.88 149.621 267.218 150.177 268.465C150.423 269.105 150.667 269.749 150.95 270.387C151.191 271.038 151.458 271.688 151.798 272.335L151.8 272.338C151.81 272.358 151.832 272.373 151.857 272.374C151.894 272.375 151.926 272.346 151.927 272.309C151.957 271.588 151.915 270.87 151.846 270.155C151.743 269.448 151.593 268.745 151.424 268.046Z" fill="#263238"/>
<path d="M151.684 229.11C151.684 229.11 144.777 227.516 143.184 220.078C141.59 212.64 146.725 215.828 142.121 204.14C137.517 192.451 138.579 189.795 140.173 186.43C141.767 183.065 142.652 184.128 144.069 188.556C145.486 192.983 150.621 199.89 152.569 212.818C154.517 225.746 151.684 229.11 151.684 229.11Z" fill="#C25E3E"/>
<path d="M165.321 216.537C165.321 216.537 160.717 214.943 160.54 206.265C160.363 197.588 163.904 199.358 164.436 188.555C164.967 177.752 165.675 170.137 167.623 169.96C169.571 169.783 174.707 175.273 176.478 187.316C178.249 199.359 174.175 207.328 170.633 210.87C167.092 214.411 165.321 216.537 165.321 216.537Z" fill="#C25E3E"/>
<path d="M149.205 239.559C149.205 239.559 148.143 233.183 146.018 230.173C143.892 227.162 139.288 224.506 136.278 218.661C133.267 212.817 129.902 209.984 130.079 218.307C130.256 226.63 133.975 230.881 138.579 233.715C143.184 236.548 149.205 239.559 149.205 239.559Z" fill="#C25E3E"/>
<path d="M147.257 250.539C147.257 250.539 143.007 242.393 136.808 236.371C130.61 230.35 125.651 227.34 127.422 230.35C129.193 233.36 131.318 233.183 134.329 238.496C137.34 243.809 136.455 247.705 140.705 250.716C144.955 253.727 147.257 250.539 147.257 250.539Z" fill="#C25E3E"/>
<path d="M146.725 260.987C146.548 260.456 146.371 256.56 140.35 253.372C134.328 250.184 128.661 251.424 129.37 253.018C130.078 254.612 133.797 257.268 137.516 258.862C141.235 260.456 146.725 260.987 146.725 260.987Z" fill="#C25E3E"/>
<path d="M164.967 239.913C164.967 239.913 162.311 236.548 163.727 229.464C165.144 222.38 168.332 224.151 171.873 220.432C175.415 216.713 174.707 216.182 178.249 212.286C181.791 208.39 184.979 206.265 186.395 207.859C187.812 209.453 185.687 214.411 183.562 217.245C181.436 220.079 178.072 221.495 176.478 225.037C174.884 228.579 175.592 234.246 171.519 236.903C167.446 239.558 164.967 239.913 164.967 239.913Z" fill="#C25E3E"/>
<path d="M173.822 241.862C173.822 241.862 180.197 234.602 184.802 229.288C189.406 223.975 191.177 219.902 191.354 223.444C191.532 226.985 192.949 229.819 189.229 234.424C185.51 239.028 173.822 241.862 173.822 241.862Z" fill="#C25E3E"/>
<path d="M170.457 253.55C170.457 253.55 170.28 250.717 180.374 244.164C190.469 237.612 194.719 236.372 193.656 239.029C192.594 241.685 188.166 244.341 183.385 249.123C178.603 253.905 170.457 253.55 170.457 253.55Z" fill="#C25E3E"/>
<path d="M152.105 228.356C152.105 228.356 149.736 215.651 147.257 206.62C144.777 197.588 143.184 192.098 143.184 192.098" stroke="#263238" stroke-width="0.656" stroke-miterlimit="10" stroke-linecap="round" stroke-linejoin="round"/>
<path d="M164.913 216.67C164.913 216.67 169.217 202.9 170.634 194.576C172.051 186.252 170.457 180.054 169.749 176.335" stroke="#263238" stroke-width="0.656" stroke-miterlimit="10" stroke-linecap="round" stroke-linejoin="round"/>
<path d="M148.647 239.293C148.647 239.293 146.018 234.6 142.121 229.996C138.225 225.391 135.214 222.912 133.443 218.484" stroke="#263238" stroke-width="0.656" stroke-miterlimit="10" stroke-linecap="round" stroke-linejoin="round"/>
<path d="M164.967 239.913C164.967 239.913 166.384 231.413 169.749 226.985C173.113 222.558 179.843 215.651 182.5 211.224" stroke="#263238" stroke-width="0.656" stroke-miterlimit="10" stroke-linecap="round" stroke-linejoin="round"/>
<path d="M146.31 260.794C146.31 260.794 140.35 256.915 136.1 254.789" stroke="#263238" stroke-width="0.656" stroke-miterlimit="10" stroke-linecap="round" stroke-linejoin="round"/>
<path d="M165.897 298.355H153.588L147.434 267.54H172.05L165.897 298.355Z" fill="#263238" stroke="#263238" stroke-width="0.656" stroke-miterlimit="10" stroke-linecap="round" stroke-linejoin="round"/>
<path d="M42.5107 298.354H321.425" stroke="#263238" stroke-width="0.656" stroke-miterlimit="10"/>
<path d="M20.4567 298.354H37.7541" stroke="#263238" stroke-width="0.656" stroke-miterlimit="10"/>
<path d="M141.79 109.558V88.8951H139.921V62.4419C139.921 53.4364 132.62 46.1357 123.615 46.1357H36.0275C27.0219 46.1357 19.7213 53.4364 19.7213 62.4419V270.678C19.7213 279.684 27.0219 286.984 36.0275 286.984H123.615C132.62 286.984 139.921 279.684 139.921 270.678V127.169H141.79V114.959H139.921V109.558L141.79 109.558Z" fill="#707070" stroke="#263238" stroke-width="0.656" stroke-miterlimit="10" stroke-linejoin="round"/>
<path d="M120.758 284.738H38.8845C29.3436 284.738 21.6094 277.004 21.6094 267.463V65.6572C21.6094 56.1164 26.4992 48.3821 38.8845 48.3821H120.758C132.111 48.2267 138.033 56.1164 138.033 65.6572V267.463C138.033 277.004 130.299 284.738 120.758 284.738Z" fill="#263238" stroke="#263238" stroke-width="0.656" stroke-miterlimit="10" stroke-linejoin="round"/>
<path d="M86.1558 51.0384L86.123 51.1598C85.1666 54.7271 82.9624 57.0421 80.5228 57.0421H79.1189C76.6793 57.0421 74.4751 54.7271 73.5186 51.1598L73.4865 51.0384L39.3214 50.919C31.3641 50.8908 24.8972 57.3334 24.8953 65.2913L24.8461 265.332C24.8461 274.654 32.1467 282.212 41.1523 282.212H118.49C127.496 282.212 134.796 274.654 134.796 265.332L134.779 63.8521C134.779 57.029 129.284 51.4786 122.461 51.4091L86.1558 51.0384Z" fill="white" stroke="#263238" stroke-width="0.656" stroke-miterlimit="10"/>
<path d="M134.78 67.4903L134.779 63.8527C134.779 57.0297 129.284 51.4793 122.462 51.4097L86.1559 51.0384L86.1231 51.1598C85.1666 54.7271 82.9625 57.0421 80.5228 57.0421H79.119C76.6793 57.0421 74.4751 54.7271 73.5187 51.1598L73.4865 51.0384L39.3214 50.919C31.3641 50.8908 24.8973 57.3327 24.8953 65.2913L24.8947 67.4903H134.78Z" fill="#DBDBDB" stroke="#263238" stroke-width="0.656" stroke-miterlimit="10"/>
<path d="M81.0161 50.6444C81.0161 49.7988 80.3305 49.1133 79.485 49.1133C78.6394 49.1133 77.9539 49.7988 77.9539 50.6444C77.9539 51.49 78.6394 52.1755 79.485 52.1755C80.3312 52.1748 81.0161 51.4893 81.0161 50.6444Z" fill="#707070"/>
<path d="M35.6856 54.543C35.6856 56.0918 33.9459 56.6494 33.9387 57.8315V57.9122H35.6266V58.4338H33.3739V57.9929C33.3739 56.3346 35.1136 56.0111 35.1136 54.5653C35.1136 54.0372 34.9372 53.7584 34.5114 53.7584C34.0929 53.7584 33.9092 54.0589 33.9092 54.5142V54.9694H33.3739V54.5509C33.3739 53.7657 33.7334 53.2441 34.5258 53.2441C35.3262 53.2441 35.6856 53.7578 35.6856 54.543Z" fill="#263238"/>
<path d="M38.4972 54.5361V54.668C38.4972 55.1967 38.2847 55.5713 37.8734 55.7248C38.3063 55.8862 38.4972 56.2752 38.4972 56.7888V57.1851C38.4972 57.9703 38.1305 58.4839 37.3374 58.4839C36.5522 58.4839 36.1855 57.9703 36.1855 57.1851V56.8328H36.7208V57.2218C36.7208 57.6843 36.9117 57.9631 37.323 57.9631C37.7415 57.9631 37.9252 57.6915 37.9252 57.1706V56.7744C37.9252 56.268 37.712 56.0259 37.279 56.0115H36.9707V55.4972H37.3079C37.6897 55.4827 37.9245 55.2407 37.9245 54.7926V54.5571C37.9245 54.0291 37.7408 53.7575 37.3223 53.7575C36.911 53.7575 36.7201 54.0435 36.7201 54.506V54.7703H36.1848V54.5355C36.1848 53.7503 36.5515 53.2432 37.3368 53.2432C38.1305 53.2445 38.4972 53.7509 38.4972 54.5361Z" fill="#263238"/>
<path d="M39.6065 54.9258V55.6382H39.0562V54.9258H39.6065ZM39.6065 57.7223V58.4347H39.0562V57.7223H39.6065Z" fill="#263238"/>
<path d="M40.7663 55.3879C40.9277 55.1091 41.1849 54.9621 41.5299 54.9621C42.1905 54.9621 42.4837 55.4463 42.4837 56.1803V57.186C42.4837 57.9712 42.1098 58.4849 41.3246 58.4849C40.5387 58.4849 40.172 57.9712 40.172 57.186V56.8409H40.7073V57.2221C40.7073 57.6845 40.8982 57.9633 41.3095 57.9633C41.7208 57.9633 41.9117 57.6845 41.9117 57.2221V56.2243C41.9117 55.7618 41.7208 55.483 41.3095 55.483C40.994 55.483 40.7808 55.6595 40.7296 56.0334V56.1508H40.1943L40.334 53.2959H42.3598V53.8095H40.8477L40.7663 55.3879Z" fill="#263238"/>
<path d="M45.3399 54.5292V54.625H44.8046V54.4932C44.8046 54.0307 44.6137 53.7591 44.1952 53.7591C43.7622 53.7591 43.5713 54.0379 43.5713 54.5883V55.7402C43.7104 55.3879 43.9899 55.1898 44.4005 55.1898C45.0611 55.1898 45.355 55.6674 45.355 56.408V57.186C45.355 57.9713 44.9653 58.4849 44.1801 58.4849C43.3877 58.4849 42.9987 57.9713 42.9987 57.186V54.5653C42.9987 53.7506 43.366 53.2441 44.1801 53.2441C44.9732 53.2448 45.3399 53.744 45.3399 54.5292ZM43.5713 56.452V57.2221C43.5713 57.6846 43.7622 57.9634 44.1801 57.9634C44.5914 57.9634 44.7895 57.6846 44.7895 57.2221V56.452C44.7895 55.9895 44.5914 55.7107 44.1801 55.7107C43.7622 55.7107 43.5713 55.9895 43.5713 56.452Z" fill="#263238"/>
<path d="M101.43 54.7539H99.9795V58.3809H101.43V54.7539Z" fill="#263238"/>
<path d="M103.364 54.0283H101.913V58.3815H103.364V54.0283Z" fill="#263238"/>
<path d="M105.298 53.5117H103.848V58.3812H105.298V53.5117Z" fill="#263238"/>
<path d="M107.232 52.6152H105.782V58.3815H107.232V52.6152Z" fill="#263238"/>
<path d="M125.185 58.2827H116.48V52.9639H125.185V58.2827ZM116.965 57.7992H124.701V53.4473H116.965V57.7992Z" fill="#263238"/>
<path d="M122.284 53.9736H117.69V57.2733H122.284V53.9736Z" fill="#263238"/>
<path d="M125.978 54.9961H124.883V56.2491H125.978V54.9961Z" fill="#263238"/>
<path d="M113.29 57.1245C113.233 57.1245 113.176 57.11 113.124 57.0785C111.353 56.0257 110.182 57.0031 110.132 57.0444C109.997 57.1618 109.792 57.1468 109.675 57.0123C109.557 56.8771 109.57 56.6738 109.705 56.5557C109.768 56.5006 111.265 55.2181 113.456 56.5203C113.611 56.6115 113.662 56.8115 113.569 56.9657C113.508 57.068 113.4 57.1245 113.29 57.1245Z" fill="#263238"/>
<path d="M113.945 56.0318C113.889 56.0318 113.831 56.0174 113.778 55.9859C111.217 54.4626 109.496 55.936 109.478 55.9504C109.344 56.0698 109.139 56.0561 109.02 55.9216C108.901 55.7871 108.914 55.5811 109.049 55.463C109.07 55.444 111.146 53.6656 114.111 55.4276C114.265 55.5188 114.316 55.7189 114.224 55.8737C114.163 55.9754 114.055 56.0318 113.945 56.0318Z" fill="#263238"/>
<path d="M114.539 54.7659C114.483 54.7659 114.425 54.7515 114.373 54.72C111.129 52.7914 108.972 54.6072 108.882 54.6859C108.747 54.8033 108.541 54.7889 108.423 54.6544C108.305 54.5199 108.318 54.3153 108.454 54.1972C108.479 54.1742 111.041 51.9825 114.705 54.1618C114.859 54.2529 114.911 54.453 114.818 54.6072C114.758 54.7095 114.65 54.7659 114.539 54.7659Z" fill="#263238"/>
<path d="M112.311 57.6699C112.311 58.1206 111.946 58.4853 111.496 58.4853C111.045 58.4853 110.68 58.1199 110.68 57.6699C110.68 57.2192 111.046 56.8545 111.496 56.8545C111.946 56.8538 112.311 57.2192 112.311 57.6699Z" fill="#263238"/>
<path d="M79.7249 142.786C94.1477 143.01 106.183 148.481 115.661 159.424C116.955 160.918 116.797 162.992 115.352 164.232C113.975 165.415 111.928 165.264 110.662 163.794C107.217 159.794 103.222 156.482 98.5416 154.025C83.8662 146.324 66.313 148.212 53.6705 158.908C51.9282 160.382 50.3774 162.091 48.8069 163.757C47.4464 165.199 45.439 165.43 44.0011 164.191C42.5808 162.968 42.4733 160.884 43.7689 159.382C51.7117 150.176 61.7052 144.735 73.75 143.071C74.6934 142.94 75.6446 142.839 76.5951 142.796C77.6368 142.75 78.6818 142.786 79.7249 142.786Z" fill="#263238"/>
<path d="M80.9161 156.159C90.0326 156.395 98.6026 160.289 105.347 168.083C106.677 169.62 106.521 171.603 105.045 172.872C103.639 174.08 101.604 173.917 100.306 172.414C96.7874 168.34 92.5221 165.353 87.322 163.949C76.725 161.088 67.5626 163.697 59.89 171.541C59.6047 171.833 59.341 172.146 59.07 172.452C57.804 173.878 55.7553 174.069 54.3711 172.89C52.9115 171.646 52.76 169.591 54.0365 168.086C57.0417 164.544 60.6195 161.727 64.7825 159.661C69.4998 157.32 74.4998 156.181 80.9161 156.159Z" fill="#263238"/>
<path d="M95.9149 178.968C95.9136 180.356 95.0746 181.584 93.7842 182.087C92.4854 182.593 91.0422 182.256 90.0693 181.155C88.636 179.531 86.9828 178.219 84.9781 177.369C79.5051 175.05 73.4673 176.491 69.3974 181.088C68.4318 182.178 67.2274 182.574 65.8347 182.151C64.4952 181.745 63.7224 180.78 63.5157 179.398C63.3701 178.425 63.6633 177.56 64.2898 176.805C71.2605 168.4 84.0846 167.21 92.4709 174.217C93.4241 175.013 94.3189 175.904 95.1074 176.861C95.5712 177.424 95.7713 178.204 96.0901 178.886C96.0317 178.913 95.9733 178.941 95.9149 178.968Z" fill="#263238"/>
<path d="M79.7137 196.477C75.9738 196.479 73.0041 193.512 73.0067 189.776C73.0087 186.099 75.9968 183.11 79.6841 183.096C83.3886 183.081 86.395 186.096 86.3852 189.815C86.376 193.517 83.4142 196.475 79.7137 196.477Z" fill="#263238"/>
<path d="M79.755 119.417C53.4521 119.417 32.0533 140.816 32.0533 167.118C32.0533 193.421 53.4521 214.82 79.755 214.82C106.057 214.82 127.456 193.421 127.456 167.118C127.457 140.816 106.058 119.417 79.755 119.417ZM38.614 167.118C38.614 144.432 57.0699 125.977 79.7557 125.977C90.4629 125.977 100.225 130.091 107.552 136.819L49.4557 194.915C42.7284 187.588 38.614 177.826 38.614 167.118ZM79.755 208.26C70.1348 208.26 61.2827 204.932 54.2681 199.379L112.015 141.632C117.568 148.646 120.896 157.498 120.896 167.118C120.897 189.804 102.441 208.26 79.755 208.26Z" fill="#C25E3E"/>
<path d="M280.439 298.355H274.224L272.892 283.557H281.771L280.439 298.355Z" fill="#263238" stroke="#263238" stroke-width="0.656" stroke-miterlimit="10"/>
<path d="M306.337 298.355H300.121L298.79 283.557H307.669L306.337 298.355Z" fill="#263238" stroke="#263238" stroke-width="0.656" stroke-miterlimit="10"/>
<path d="M244.183 298.355H237.967L236.635 283.557H245.514L244.183 298.355Z" fill="#263238" stroke="#263238" stroke-width="0.656" stroke-miterlimit="10"/>
<path d="M216.435 298.355H210.22L208.888 283.557H217.767L216.435 298.355Z" fill="#263238" stroke="#263238" stroke-width="0.656" stroke-miterlimit="10"/>
<path d="M246.112 188.207H310.741C310.741 188.207 310.998 210.674 307.669 226.583C304.339 242.492 300.27 252.111 300.27 252.111H238.855C238.855 252.111 247.966 216.923 246.112 188.207Z" fill="white" stroke="#263238" stroke-width="0.656" stroke-miterlimit="10"/>
<path d="M272.933 191.636C267.267 191.193 265.021 190.05 260.777 187.727C255.261 184.706 254.08 186.72 254.473 189.74C254.868 192.76 249.114 212.674 247.932 222.741C246.75 232.807 247.144 238.176 247.144 238.176C247.144 238.176 243.598 241.196 245.962 242.202C248.325 243.209 250.69 243.544 250.69 243.544H296.39C296.39 243.544 304.507 201.819 305.295 195.108C306.083 188.398 302.537 187.727 300.567 188.733C298.597 189.74 298.204 190.411 295.445 190.746C288.969 191.535 280.7 192.244 272.933 191.636Z" fill="#C25E3E"/>
<path d="M258.222 192.313C259.61 190.684 260.303 189.141 260.64 187.655C260.09 187.358 259.586 187.116 259.121 186.917C258.862 188.318 258.271 189.741 256.981 191.256C256.002 192.405 255.011 193.147 254.003 193.648C253.888 194.25 253.756 194.898 253.608 195.593C255.156 195.042 256.703 194.096 258.222 192.313Z" fill="white"/>
<path d="M299.131 205.366C296.236 208.765 296.348 211.785 296.456 214.705C296.557 217.434 296.652 220.012 294.169 222.928C291.686 225.843 289.127 226.159 286.416 226.494C283.516 226.852 280.517 227.222 277.623 230.62C274.729 234.019 274.84 237.039 274.949 239.959C274.993 241.17 275.036 242.35 274.854 243.544H276.503C276.663 242.3 276.621 241.091 276.577 239.9C276.477 237.171 276.381 234.593 278.864 231.678C281.347 228.763 283.906 228.447 286.617 228.112C289.517 227.754 292.516 227.383 295.41 223.985C298.304 220.586 298.193 217.567 298.085 214.646C297.985 211.917 297.89 209.339 300.373 206.423C301.523 205.073 302.688 204.285 303.878 203.789C303.992 203.147 304.101 202.527 304.205 201.932C302.505 202.455 300.801 203.406 299.131 205.366Z" fill="white"/>
<path d="M252.714 242.808C255.614 242.45 258.613 242.079 261.507 238.681C264.401 235.283 264.289 232.263 264.181 229.343C264.081 226.614 263.985 224.037 266.468 221.121C268.951 218.206 271.51 217.89 274.221 217.555C277.121 217.197 280.12 216.827 283.014 213.428C285.908 210.03 285.797 207.01 285.689 204.09C285.589 201.361 285.494 198.783 287.977 195.867C290.46 192.951 293.02 192.635 295.73 192.299C298.397 191.969 301.149 191.623 303.824 188.927C303.274 188.514 302.644 188.351 302.028 188.367C300.343 189.79 298.618 190.242 296.83 190.509C296.44 190.601 295.99 190.68 295.445 190.747C294.808 190.824 294.15 190.9 293.48 190.975C291.231 191.38 288.952 192.206 286.736 194.809C283.841 198.208 283.952 201.228 284.061 204.149C284.161 206.878 284.256 209.455 281.773 212.371C279.29 215.286 276.731 215.602 274.02 215.937C271.12 216.295 268.121 216.666 265.227 220.064C262.332 223.463 262.444 226.482 262.552 229.403C262.653 232.132 262.748 234.709 260.265 237.624C257.782 240.539 255.223 240.855 252.513 241.19C250.703 241.413 248.854 241.642 247.017 242.609C248.018 242.961 248.95 243.197 249.626 243.343C250.635 243.067 251.663 242.938 252.714 242.808Z" fill="white"/>
<path d="M249.111 228.123C252.004 224.725 251.893 221.705 251.785 218.785C251.685 216.056 251.589 213.479 254.072 210.563C256.555 207.648 259.114 207.332 261.825 206.997C264.725 206.638 267.724 206.268 270.618 202.87C273.513 199.471 273.401 196.451 273.294 193.531C273.271 192.9 273.249 192.278 273.258 191.657C273.15 191.649 273.041 191.644 272.933 191.635C272.475 191.599 272.045 191.557 271.629 191.512C271.616 192.212 271.64 192.904 271.665 193.591C271.765 196.32 271.86 198.897 269.377 201.813C266.894 204.728 264.335 205.044 261.625 205.379C258.725 205.737 255.725 206.108 252.831 209.506C249.937 212.905 250.048 215.924 250.156 218.845C250.257 221.574 250.352 224.151 247.87 227.066C247.731 227.229 247.592 227.381 247.453 227.528C247.384 228.361 247.328 229.143 247.281 229.881C247.894 229.408 248.505 228.835 249.111 228.123Z" fill="white"/>
<path d="M272.933 191.636C267.267 191.193 265.021 190.05 260.777 187.727C255.261 184.706 254.08 186.72 254.473 189.74C254.868 192.76 249.114 212.674 247.932 222.741C246.75 232.807 247.144 238.176 247.144 238.176C247.144 238.176 243.598 241.196 245.962 242.202C248.325 243.209 250.69 243.544 250.69 243.544H296.39C296.39 243.544 304.507 201.819 305.295 195.108C306.083 188.398 302.537 187.727 300.567 188.733C298.597 189.74 298.204 190.411 295.445 190.746C288.969 191.535 280.7 192.244 272.933 191.636Z" stroke="#263238" stroke-width="0.656" stroke-miterlimit="10"/>
<path d="M246.112 188.207H242.456C241.092 188.207 239.908 189.142 239.591 190.468L235.052 209.488C234.21 213.014 231.34 223.188 228.177 224.961C226.235 226.05 224.047 226.622 221.821 226.622H208.119L213.95 286.166H238.851L245.393 191.358C245.408 191.142 245.399 190.931 245.37 190.725H246.112V188.207Z" fill="white" stroke="#263238" stroke-width="0.656" stroke-miterlimit="10"/>
<path d="M211.776 226.622H225.477C227.703 226.622 229.892 226.05 231.833 224.961C234.996 223.188 237.867 213.014 238.708 209.488L243.247 190.468C243.563 189.142 244.749 188.207 246.112 188.207C247.82 188.207 249.17 189.655 249.05 191.359L242.325 286.168H217.424L211.776 226.622Z" fill="white" stroke="#263238" stroke-width="0.656" stroke-miterlimit="10"/>
<path d="M270.298 286.2L271.724 243.545L214.577 243.041L216.007 286.2H270.298Z" fill="white" stroke="#263238" stroke-width="0.656" stroke-miterlimit="10"/>
<path d="M314.397 188.207H310.741C309.377 188.207 308.193 189.142 307.876 190.468L303.337 209.488C302.495 213.014 299.625 223.188 296.462 224.961C294.52 226.05 292.332 226.622 290.105 226.622H276.404L278.82 286.166L306.908 286.166L313.677 191.358C313.693 191.143 313.683 190.931 313.654 190.726H314.396V188.207H314.397Z" fill="white" stroke="#263238" stroke-width="0.656" stroke-miterlimit="10"/>
<path d="M280.061 226.622H293.763C295.989 226.622 298.178 226.05 300.119 224.961C303.282 223.188 306.153 213.014 306.994 209.488L311.533 190.468C311.849 189.142 313.035 188.207 314.398 188.207C316.106 188.207 317.455 189.655 317.335 191.359L310.668 284.716C310.61 285.533 309.93 286.166 309.112 286.166L282.296 286.167L280.061 226.622Z" fill="white" stroke="#263238" stroke-width="0.656" stroke-miterlimit="10"/>
<path d="M271.724 230.914L270.297 286.199H282.295L284.353 230.914C284.353 228.543 282.431 226.622 280.061 226.622H276.017C273.646 226.621 271.724 228.543 271.724 230.914Z" fill="white" stroke="#263238" stroke-width="0.656" stroke-miterlimit="10"/>
<path d="M202.01 230.914L204.068 286.199H216.066L214.638 230.914C214.638 228.543 212.716 226.622 210.346 226.622H206.302C203.931 226.621 202.01 228.543 202.01 230.914Z" fill="white" stroke="#263238" stroke-width="0.656" stroke-miterlimit="10"/>
<path d="M214.865 261.896H271.18" stroke="#263238" stroke-width="0.656" stroke-miterlimit="10"/>
<path d="M187.319 188.42C187.319 188.42 182.113 217.368 180.971 222.26C179.83 227.152 177.058 252.1 177.058 258.296C177.058 264.492 177.547 283.244 177.547 283.244C177.547 283.244 175.427 284.222 175.427 285.038C175.427 285.853 177.058 291.071 177.058 291.071L186.679 294.659C186.679 294.659 188.635 290.093 188.798 288.462C188.961 286.831 187.657 286.179 187.657 283.407C187.657 280.635 192.548 248.349 194.016 242.968C195.483 237.587 199.723 221.444 200.539 219.976C201.354 218.509 205.43 207.747 205.43 207.747L207.713 208.889C207.713 208.889 209.181 242.805 209.996 244.925C210.811 247.044 221.736 281.555 221.736 281.555C221.736 281.555 219.943 282.37 221.084 284.327C222.226 286.284 224.183 290.686 224.183 290.686C224.183 290.686 225.976 288.24 228.096 287.751C230.216 287.262 233.804 289.382 233.804 289.382C233.804 289.382 235.923 284.49 235.434 282.207C234.945 279.924 232.826 276.011 232.662 274.869C232.499 273.728 228.096 240.848 228.096 240.848C228.096 240.848 229.238 194.865 229.238 191.767C229.238 188.669 228.096 185.571 228.096 185.571C228.096 185.571 218.476 189.158 206.898 189.647C195.321 190.136 188.962 185.407 188.962 185.407L187.319 188.42Z" fill="#263238" stroke="#263238" stroke-width="0.656" stroke-miterlimit="10"/>
<path d="M177.058 291.071C177.058 291.071 171.676 295.963 170.698 296.615C169.72 297.267 162.872 299.876 163.034 301.181C163.198 302.485 164.991 303.3 164.991 303.3H187.167C187.167 303.3 187.331 302.648 187.657 299.55C187.983 296.452 186.679 293.68 186.679 293.68L177.058 291.071Z" fill="white" stroke="#263238" stroke-width="0.656" stroke-miterlimit="10"/>
<path d="M187.502 300.944L163.155 301.617C163.595 302.664 164.991 303.3 164.991 303.3H187.167C187.167 303.3 187.279 302.85 187.502 300.944Z" fill="white" stroke="#263238" stroke-width="0.656" stroke-miterlimit="10"/>
<path d="M224.182 290.688C224.182 290.688 224.019 294.764 224.019 296.885C224.019 299.004 223.693 301.45 223.856 301.94C224.018 302.429 224.345 303.244 224.345 303.244H237.227C237.227 303.244 237.716 301.94 237.063 299.493C236.411 297.047 235.27 295.743 234.944 293.624C234.618 291.504 233.802 289.384 233.802 289.384C233.802 289.384 227.443 284.328 224.182 290.688Z" fill="white" stroke="#263238" stroke-width="0.656" stroke-miterlimit="10"/>
<path d="M237.399 301.701C232.499 301.682 226.399 301.545 223.811 301.481C223.813 301.691 223.826 301.849 223.856 301.939C224.019 302.428 224.345 303.243 224.345 303.243H237.227C237.227 303.243 237.422 302.713 237.399 301.701Z" fill="white" stroke="#263238" stroke-width="0.656" stroke-miterlimit="10"/>
<path d="M182.699 127.025C182.699 127.025 168.839 140.034 169.447 141.249C170.056 142.465 173.824 152.313 173.824 152.313C173.824 152.313 174.918 158.878 174.31 163.011C173.702 167.145 173.946 170.913 173.946 170.913C173.946 170.913 175.891 173.467 178.565 174.926C181.24 176.385 183.307 178.938 185.008 174.804C186.711 170.671 185.981 163.255 185.981 163.255C185.981 163.255 188.291 172.251 188.656 173.831C189.02 175.412 187.318 188.42 187.318 188.42C187.318 188.42 195.706 195.471 209.93 193.891C224.155 192.311 228.653 187.326 228.653 187.326C228.653 187.326 227.194 171.4 227.194 169.577C227.194 167.753 226.95 165.808 226.95 165.808C226.95 165.808 231.935 170.914 234.367 170.671C236.798 170.427 241.053 160.459 239.959 158.878C238.865 157.298 235.097 150.844 232.787 146.224C230.477 141.605 229.324 137.568 229.324 137.568C229.324 137.568 225.312 123.952 224.097 122.979C222.881 122.006 209.201 122.163 206.77 121.555C204.339 120.947 197.895 120.218 197.044 120.218C196.193 120.216 185.373 122.77 182.699 127.025Z" fill="#C25E3E" stroke="#263238" stroke-width="0.656" stroke-miterlimit="10"/>
<path d="M223.565 145.234C223.498 141.741 223.489 139.025 223.489 139.025" stroke="#263238" stroke-width="0.656" stroke-miterlimit="10"/>
<path d="M226.951 165.807C226.951 165.807 225.492 162.889 224.52 159.971C224.037 158.522 223.779 153.345 223.643 148.501" stroke="#263238" stroke-width="0.656" stroke-miterlimit="10"/>
<path d="M179.043 151.407C177.8 149.24 176.856 147.548 176.742 147.206" stroke="#263238" stroke-width="0.656" stroke-miterlimit="10"/>
<path d="M185.981 163.253C185.981 163.253 182.874 158.017 180.261 153.516" stroke="#263238" stroke-width="0.656" stroke-miterlimit="10"/>
<path d="M201.786 121.919C201.786 121.919 202.636 128.362 201.907 134.805" stroke="#263238" stroke-width="0.656" stroke-miterlimit="10"/>
<path d="M209.968 181.919C211.429 182.217 212.996 182.482 214.672 182.705" stroke="#263238" stroke-width="0.656" stroke-miterlimit="10"/>
<path d="M192.303 174.073C192.303 174.073 196.216 178.394 206.713 181.161" stroke="#263238" stroke-width="0.656" stroke-miterlimit="10"/>
<path d="M203.001 183.312C203.001 183.312 208.958 186.352 217.347 186.23" stroke="#263238" stroke-width="0.656" stroke-miterlimit="10"/>
<path d="M173.946 107.33C173.946 107.33 175.405 114.138 175.526 115.597C175.647 117.056 176.012 119.001 177.836 121.919C179.66 124.837 184.401 131.28 185.373 131.645C186.346 132.01 190.115 131.037 190.115 131.037C190.115 131.037 194.127 138.939 195.221 138.696C196.315 138.452 199.111 129.456 199.476 125.809C199.841 122.162 199.597 120.338 199.597 120.338L197.895 114.26C197.895 114.26 196.436 105.749 196.436 105.142C196.436 104.534 197.287 100.158 192.546 98.334C187.804 96.5103 181.969 96.389 178.079 100.887C174.189 105.385 173.946 107.33 173.946 107.33Z" fill="white" stroke="#263238" stroke-width="0.656" stroke-miterlimit="10"/>
<path d="M186.954 99.6719C186.954 99.6719 184.887 103.197 180.389 106.115C175.891 109.033 178.079 105.872 178.079 105.872C178.079 105.872 174.918 107.817 172.365 109.154C169.812 110.492 170.785 110.856 169.812 110.492C168.839 110.127 165.202 99.7454 173.347 94.7611C181.492 89.7768 187.403 91.0803 187.403 91.0803C187.403 91.0803 183.878 89.5 187.039 89.5C190.199 89.5 191.537 91.2023 191.537 91.2023C191.537 91.2023 193.239 90.7162 193.968 91.6884C194.194 91.9902 194.631 92.2467 195.125 92.4566C199.045 94.1228 200.437 97.8509 201.177 101.739C201.664 104.292 199.597 110.371 199.597 110.371L196.193 112.194C196.193 112.194 194.734 110.857 194.248 109.52C193.762 108.182 193.762 106.481 193.762 106.481C193.762 106.481 191.695 109.155 191.33 107.21C190.966 105.265 189.993 100.28 189.993 100.28C189.993 100.28 190.357 102.225 189.142 102.225C187.926 102.224 186.954 99.6719 186.954 99.6719Z" fill="#263238" stroke="#263238" stroke-width="0.656" stroke-miterlimit="10"/>
<path d="M195.95 113.044C195.95 113.044 195.829 108.91 198.26 107.573C200.691 106.235 202.394 107.694 201.664 111.585C200.935 115.475 196.558 116.934 196.558 116.934" fill="white"/>
<path d="M195.95 113.044C195.95 113.044 195.829 108.91 198.26 107.573C200.691 106.235 202.394 107.694 201.664 111.585C200.935 115.475 196.558 116.934 196.558 116.934" stroke="#263238" stroke-width="0.656" stroke-miterlimit="10"/>
<path d="M190.115 131.037L196.558 124.594L192.303 134.441L190.115 131.037Z" fill="#263238" stroke="#263238" stroke-width="0.656" stroke-miterlimit="10"/>
<path d="M187.135 124.518C187.387 125.141 187.237 125.788 186.801 125.964C186.366 126.14 185.808 125.778 185.557 125.155C185.306 124.533 185.455 123.885 185.891 123.709C186.327 123.534 186.884 123.896 187.135 124.518Z" fill="#263238"/>
<path d="M188.815 113.267C189.053 114.037 188.885 114.771 188.44 114.909C187.995 115.047 187.441 114.534 187.204 113.765C186.967 112.995 187.134 112.26 187.579 112.123C188.024 111.985 188.578 112.498 188.815 113.267Z" fill="#263238"/>
<path d="M180.83 114.62C181.067 115.389 180.899 116.124 180.455 116.262C180.01 116.399 179.456 115.886 179.219 115.117C178.981 114.348 179.149 113.613 179.594 113.476C180.039 113.338 180.592 113.85 180.83 114.62Z" fill="#263238"/>
<path d="M181.118 111.585C181.118 111.585 182.821 112.801 182.821 115.232C182.821 117.664 182.456 121.311 182.456 121.311L186.833 120.703" stroke="#263238" stroke-width="0.656" stroke-miterlimit="10"/>
<path d="M184.036 110.005C184.036 110.005 186.225 106.115 189.629 106.844" stroke="#263238" stroke-width="0.656" stroke-miterlimit="10"/>
<path d="M180.146 110.734C180.146 110.734 177.471 109.883 175.647 110.978" stroke="#263238" stroke-width="0.656" stroke-miterlimit="10"/>
<path d="M254.548 141.978C254.548 141.978 257.223 141.005 258.196 140.641C259.169 140.277 260.141 140.885 261.843 140.033C263.545 139.182 265.49 137.48 265.612 138.696C265.733 139.912 265.126 140.398 264.153 141.006C263.18 141.614 261.6 142.83 261.6 142.83L261.114 144.045L253.82 143.437C253.82 143.437 253.94 142.343 254.548 141.978Z" fill="white" stroke="#263238" stroke-width="0.656" stroke-miterlimit="10"/>
<path d="M269.193 145.123C269.193 145.123 272.541 142.465 273.027 141.249C273.513 140.034 272.662 139.912 271.811 140.398C270.961 140.885 268.286 143.073 268.286 143.073L269.193 145.123Z" fill="white" stroke="#263238" stroke-width="0.656" stroke-miterlimit="10"/>
<path d="M266.446 145.696C266.446 145.696 268.938 145.961 269.193 145.122C269.448 144.283 271.409 138.995 271.082 138.332C270.755 137.668 270.138 137.727 269.453 138.823C268.767 139.918 267.549 143.46 267.549 143.46C267.549 143.46 265.884 143.835 265.467 144.977C265.05 146.119 266.446 145.696 266.446 145.696Z" fill="white" stroke="#263238" stroke-width="0.656" stroke-miterlimit="10"/>
<path d="M263.301 146.355C263.301 146.355 265.611 147.328 266.098 146.598C266.584 145.869 269.988 141.371 269.867 140.641C269.745 139.912 269.137 139.791 268.164 140.641C267.191 141.492 265.004 144.531 265.004 144.531C265.004 144.531 263.301 144.41 262.572 145.382C261.842 146.355 263.301 146.355 263.301 146.355Z" fill="white" stroke="#263238" stroke-width="0.656" stroke-miterlimit="10"/>
<path d="M229.383 166.293C229.383 166.293 230.356 160.701 236.191 156.932C242.027 153.163 249.929 146.355 249.929 146.355C249.929 146.355 252.603 142.587 254.548 141.979C256.493 141.37 262.815 143.194 262.815 143.194C262.815 143.194 267.921 138.088 268.043 139.182C268.164 140.276 265.611 144.166 264.395 145.625C263.18 147.084 259.411 147.449 258.56 147.449C257.709 147.449 254.548 147.692 254.062 147.814C253.575 147.935 245.551 158.877 241.905 164.226C238.257 169.575 236.677 170.548 234.367 170.669C232.057 170.791 229.626 168.968 229.018 168.116C228.41 167.266 229.383 166.293 229.383 166.293Z" fill="white" stroke="#263238" stroke-width="0.656" stroke-miterlimit="10"/>
<path d="M153.354 146.167L161.018 162.791C161.249 163.291 161.789 163.571 162.331 163.472L168.689 162.297C169.447 162.158 169.88 161.353 169.579 160.644L162.702 144.399C162.495 143.908 161.989 143.612 161.461 143.672L154.315 144.465C153.498 144.556 153.01 145.421 153.354 146.167Z" fill="#263238" stroke="#263238" stroke-width="0.656" stroke-miterlimit="10"/>
<path d="M158.383 160.397C158.383 160.397 155.634 156.185 155.634 155.241C155.634 154.299 157.235 152.058 158.178 150.037C159.12 148.017 159.255 146.67 160.063 146.94C160.871 147.209 160.737 148.017 160.467 149.364C160.197 150.711 158.716 154.482 158.716 154.482L158.986 156.099C158.986 156.099 160.198 153.674 161.41 152.462C162.623 151.249 163.969 149.229 164.912 149.633C165.855 150.037 166.259 150.307 165.451 151.249C164.642 152.192 164.076 152.975 162.736 155.127C161.61 156.934 160.903 158.793 160.903 158.793C160.903 158.793 162.421 157.33 163.767 156.387C165.114 155.445 166.932 154.078 167.741 154.617C168.549 155.155 168.683 155.695 167.875 156.368C167.067 157.041 166.334 157.506 165.256 158.449C164.179 159.392 162.083 162.025 162.083 162.025C162.083 162.025 162.966 161.225 165.256 160.282C167.546 159.339 169.638 159.447 169.724 160.167C169.801 160.811 167.319 161.542 167.319 161.542C165.533 161.95 165.451 162.564 165.451 162.564C165.451 162.564 166.932 165.527 166.664 166.469C166.664 166.469 172.649 165.535 174.939 164.861C177.228 164.188 180.798 165.518 181.884 166.604C184.173 168.894 185.251 172.396 184.039 175.359C182.827 178.322 182.827 177.379 173.264 174.685C163.7 171.992 163.883 171.05 161.545 167.142C160.659 165.663 158.383 160.397 158.383 160.397Z" fill="white" stroke="#263238" stroke-width="0.656" stroke-miterlimit="10"/>
<path d="M166.663 166.471L166.459 168.939" stroke="#263238" stroke-width="0.656" stroke-miterlimit="10"/>
</svg>
